<?xml version="1.0" encoding="UTF-8" standalone="no"?><svg xmlns="http://www.w3.org/2000/svg" xmlns:xlink="http://www.w3.org/1999/xlink" contentScriptType="application/ecmascript" contentStyleType="text/css" height="765px" preserveAspectRatio="none" style="width:837px;height:765px;background:#FFFFFF;" version="1.1" viewBox="0 0 837 765" width="837px" zoomAndPan="magnify"><defs><filter height="300%" id="f8cipzegte5r6" width="300%" x="-1" y="-1"><feGaussianBlur result="blurOut" stdDeviation="2.0"/><feColorMatrix in="blurOut" result="blurOut2" type="matrix" values="0 0 0 0 0 0 0 0 0 0 0 0 0 0 0 0 0 0 .4 0"/><feOffset dx="4.0" dy="4.0" in="blurOut2" result="blurOut3"/><feBlend in="SourceGraphic" in2="blurOut3" mode="normal"/></filter></defs><g><text fill="#000000" font-family="sans-serif" font-size="18" lengthAdjust="spacing" text-decoration="underline" textLength="277" x="273.5" y="16.7225">CARDMARKET's Class Diagram</text><text fill="#000000" font-family="sans-serif" font-size="18" lengthAdjust="spacing" textLength="0" x="415" y="37.6938"/><!--MD5=[432dd831305d7709bed0fe1447e3cfc7]
cluster it.polimi.ingsw--><polygon fill="#FFFFFF" filter="url(#f8cipzegte5r6)" points="16,170.9426,140,170.9426,147,193.2395,820,193.2395,820,729.9426,16,729.9426,16,170.9426" style="stroke:#000000;stroke-width:1.5;"/><line style="stroke:#000000;stroke-width:1.5;" x1="16" x2="147" y1="193.2395" y2="193.2395"/><text fill="#000000" font-family="sans-serif" font-size="14" font-weight="bold" lengthAdjust="spacing" textLength="118" x="20" y="185.9377">it.polimi.ingsw</text><!--MD5=[6ff9cca172c9c23be7720fa07ee26538]
cluster it.polimi.ingsw.server--><polygon fill="#FFFFFF" filter="url(#f8cipzegte5r6)" points="40,213.9426,97,213.9426,104,236.2395,796,236.2395,796,705.9426,40,705.9426,40,213.9426" style="stroke:#000000;stroke-width:1.5;"/><line style="stroke:#000000;stroke-width:1.5;" x1="40" x2="104" y1="236.2395" y2="236.2395"/><text fill="#000000" font-family="sans-serif" font-size="14" font-weight="bold" lengthAdjust="spacing" textLength="51" x="44" y="228.9377">server</text><!--MD5=[6644f379719c89a69245f782f93ed447]
cluster it.polimi.ingsw.server.Model--><polygon fill="#FFFFFF" filter="url(#f8cipzegte5r6)" points="64,256.9426,119,256.9426,126,279.2395,772,279.2395,772,681.9426,64,681.9426,64,256.9426" style="stroke:#000000;stroke-width:1.5;"/><line style="stroke:#000000;stroke-width:1.5;" x1="64" x2="126" y1="279.2395" y2="279.2395"/><text fill="#000000" font-family="sans-serif" font-size="14" font-weight="bold" lengthAdjust="spacing" textLength="49" x="68" y="271.9377">Model</text><!--MD5=[419117b42b064efe7b33cc44d03110f0]
cluster it.polimi.ingsw.server.Model.Table--><polygon fill="#FFFFFF" filter="url(#f8cipzegte5r6)" points="88,299.9426,138,299.9426,145,322.2395,748,322.2395,748,657.9426,88,657.9426,88,299.9426" style="stroke:#000000;stroke-width:1.5;"/><line style="stroke:#000000;stroke-width:1.5;" x1="88" x2="145" y1="322.2395" y2="322.2395"/><text fill="#000000" font-family="sans-serif" font-size="14" font-weight="bold" lengthAdjust="spacing" textLength="44" x="92" y="314.9377">Table</text><!--MD5=[95b043438b998d13a814029b92bae770]
cluster it.polimi.ingsw.server.Model.Table.CardMarket--><polygon fill="#FFFFFF" filter="url(#f8cipzegte5r6)" points="112,342.9426,210,342.9426,217,365.2395,724,365.2395,724,633.9426,112,633.9426,112,342.9426" style="stroke:#000000;stroke-width:1.5;"/><line style="stroke:#000000;stroke-width:1.5;" x1="112" x2="217" y1="365.2395" y2="365.2395"/><text fill="#000000" font-family="sans-serif" font-size="14" font-weight="bold" lengthAdjust="spacing" textLength="92" x="116" y="357.9377">CardMarket</text><!--MD5=[0d852700fdad35b7061d461d6907a324]
cluster java.io--><polygon fill="#FFFFFF" filter="url(#f8cipzegte5r6)" points="359,47.9426,417,47.9426,424,70.2395,491,70.2395,491,146.9426,359,146.9426,359,47.9426" style="stroke:#000000;stroke-width:1.5;"/><line style="stroke:#000000;stroke-width:1.5;" x1="359" x2="424" y1="70.2395" y2="70.2395"/><text fill="#000000" font-family="sans-serif" font-size="14" font-weight="bold" lengthAdjust="spacing" textLength="52" x="363" y="62.9377">java.io</text><!--MD5=[53fc6256ba638befa42a7996128a6fe5]
class it.polimi.ingsw.server.Model.Table.CardMarket.CardDeck--><rect codeLine="9" fill="#FEFECE" filter="url(#f8cipzegte5r6)" height="137.6328" id="it.polimi.ingsw.server.Model.Table.CardMarket.CardDeck" style="stroke:#A80036;stroke-width:1.5;" width="257" x="450.5" y="428.9426"/><ellipse cx="545.75" cy="444.9426" fill="#ADD1B2" rx="11" ry="11" style="stroke:#A80036;stroke-width:1.0;"/><path d="M548.2188,450.8176 Q547.6406,451.1301 547,451.2864 Q546.3594,451.4426 545.6563,451.4426 Q543.1406,451.4426 541.8281,449.7708 Q540.5156,448.0989 540.5156,444.9426 Q540.5156,441.7864 541.8281,440.1145 Q543.1406,438.4426 545.6563,438.4426 Q546.3594,438.4426 547,438.5989 Q547.6563,438.7551 548.2188,439.0676 L548.2188,441.8645 Q547.5781,441.2864 546.9844,441.0208 Q546.4063,440.7551 545.7656,440.7551 Q544.4219,440.7551 543.7344,441.8176 Q543.0625,442.8645 543.0625,444.9426 Q543.0625,447.0208 543.7344,448.0833 Q544.4219,449.1301 545.7656,449.1301 Q546.4063,449.1301 546.9844,448.8645 Q547.5781,448.5989 548.2188,448.0208 L548.2188,450.8176 Z " fill="#000000"/><text fill="#000000" font-family="sans-serif" font-size="12" lengthAdjust="spacing" textLength="58" x="566.25" y="449.0969">CardDeck</text><line style="stroke:#A80036;stroke-width:1.5;" x1="451.5" x2="706.5" y1="460.9426" y2="460.9426"/><rect fill="none" height="6" style="stroke:#C82930;stroke-width:1.0;" width="6" x="458.5" y="468.9426"/><text fill="#000000" font-family="sans-serif" font-size="11" lengthAdjust="spacing" textLength="231" x="470.5" y="475.1531">cards : ArrayDeque&lt;DevelopmentCard&gt;</text><line style="stroke:#A80036;stroke-width:1.5;" x1="451.5" x2="706.5" y1="481.7473" y2="481.7473"/><ellipse cx="461.5" cy="492.7473" fill="#84BE84" rx="3" ry="3" style="stroke:#038048;stroke-width:1.0;"/><text fill="#000000" font-family="sans-serif" font-size="11" lengthAdjust="spacing" textLength="62" x="470.5" y="495.9578">CardDeck()</text><ellipse cx="461.5" cy="505.552" fill="#84BE84" rx="3" ry="3" style="stroke:#038048;stroke-width:1.0;"/><text fill="#000000" font-family="sans-serif" font-size="11" lengthAdjust="spacing" textLength="59" x="470.5" y="508.7625">getCards()</text><ellipse cx="461.5" cy="518.3567" fill="#84BE84" rx="3" ry="3" style="stroke:#038048;stroke-width:1.0;"/><text fill="#000000" font-family="sans-serif" font-size="11" lengthAdjust="spacing" textLength="49" x="470.5" y="521.5671">getSize()</text><ellipse cx="461.5" cy="531.1614" fill="#84BE84" rx="3" ry="3" style="stroke:#038048;stroke-width:1.0;"/><text fill="#000000" font-family="sans-serif" font-size="11" lengthAdjust="spacing" textLength="35" x="470.5" y="534.3718">peek()</text><ellipse cx="461.5" cy="543.9661" fill="#84BE84" rx="3" ry="3" style="stroke:#038048;stroke-width:1.0;"/><text fill="#000000" font-family="sans-serif" font-size="11" lengthAdjust="spacing" textLength="29" x="470.5" y="547.1765">pop()</text><rect fill="#F24D5C" height="6" style="stroke:#C82930;stroke-width:1.0;" width="6" x="458.5" y="553.7708"/><text fill="#000000" font-family="sans-serif" font-size="11" lengthAdjust="spacing" text-decoration="underline" textLength="78" x="470.5" y="559.9812">shuffleArray()</text><!--MD5=[eba51d5b6707e50a2bb83479dea1e827]
class it.polimi.ingsw.server.Model.Table.CardMarket.CardMarket--><rect codeLine="30" fill="#FEFECE" filter="url(#f8cipzegte5r6)" height="240.0703" id="it.polimi.ingsw.server.Model.Table.CardMarket.CardMarket" style="stroke:#A80036;stroke-width:1.5;" width="287" x="128.5" y="377.9426"/><ellipse cx="233.25" cy="393.9426" fill="#ADD1B2" rx="11" ry="11" style="stroke:#A80036;stroke-width:1.0;"/><path d="M235.7188,399.8176 Q235.1406,400.1301 234.5,400.2864 Q233.8594,400.4426 233.1563,400.4426 Q230.6406,400.4426 229.3281,398.7708 Q228.0156,397.0989 228.0156,393.9426 Q228.0156,390.7864 229.3281,389.1145 Q230.6406,387.4426 233.1563,387.4426 Q233.8594,387.4426 234.5,387.5989 Q235.1563,387.7551 235.7188,388.0676 L235.7188,390.8645 Q235.0781,390.2864 234.4844,390.0208 Q233.9063,389.7551 233.2656,389.7551 Q231.9219,389.7551 231.2344,390.8176 Q230.5625,391.8645 230.5625,393.9426 Q230.5625,396.0208 231.2344,397.0833 Q231.9219,398.1301 233.2656,398.1301 Q233.9063,398.1301 234.4844,397.8645 Q235.0781,397.5989 235.7188,397.0208 L235.7188,399.8176 Z " fill="#000000"/><text fill="#000000" font-family="sans-serif" font-size="12" lengthAdjust="spacing" textLength="69" x="253.75" y="398.0969">CardMarket</text><line style="stroke:#A80036;stroke-width:1.5;" x1="129.5" x2="414.5" y1="409.9426" y2="409.9426"/><rect fill="none" height="6" style="stroke:#C82930;stroke-width:1.0;" width="6" x="136.5" y="417.9426"/><text fill="#000000" font-family="sans-serif" font-size="11" lengthAdjust="spacing" text-decoration="underline" textLength="80" x="148.5" y="424.1531">COL_SIZE : int</text><rect fill="none" height="6" style="stroke:#C82930;stroke-width:1.0;" width="6" x="136.5" y="430.7473"/><text fill="#000000" font-family="sans-serif" font-size="11" lengthAdjust="spacing" text-decoration="underline" textLength="125" x="148.5" y="436.9578">DEV_CARDS_SIZE : int</text><rect fill="none" height="6" style="stroke:#C82930;stroke-width:1.0;" width="6" x="136.5" y="443.552"/><text fill="#000000" font-family="sans-serif" font-size="11" lengthAdjust="spacing" text-decoration="underline" textLength="85" x="148.5" y="449.7625">ROW_SIZE : int</text><rect fill="none" height="6" style="stroke:#C82930;stroke-width:1.0;" width="6" x="136.5" y="456.3567"/><text fill="#000000" font-family="sans-serif" font-size="11" lengthAdjust="spacing" textLength="158" x="148.5" y="462.5671">cardDeckGrid : CardDeck[][]</text><rect fill="none" height="6" style="stroke:#C82930;stroke-width:1.0;" width="6" x="136.5" y="469.1614"/><text fill="#000000" font-family="sans-serif" font-size="11" lengthAdjust="spacing" textLength="261" x="148.5" y="475.3718">colorIndexes : HashMap&lt;TypeEnum, Integer&gt;</text><line style="stroke:#A80036;stroke-width:1.5;" x1="129.5" x2="414.5" y1="481.9661" y2="481.9661"/><ellipse cx="139.5" cy="492.9661" fill="#84BE84" rx="3" ry="3" style="stroke:#038048;stroke-width:1.0;"/><text fill="#000000" font-family="sans-serif" font-size="11" lengthAdjust="spacing" textLength="73" x="148.5" y="496.1765">CardMarket()</text><ellipse cx="139.5" cy="505.7708" fill="#84BE84" rx="3" ry="3" style="stroke:#038048;stroke-width:1.0;"/><text fill="#000000" font-family="sans-serif" font-size="11" lengthAdjust="spacing" textLength="87" x="148.5" y="508.9812">emptyColumn()</text><ellipse cx="139.5" cy="518.5754" fill="#84BE84" rx="3" ry="3" style="stroke:#038048;stroke-width:1.0;"/><text fill="#000000" font-family="sans-serif" font-size="11" lengthAdjust="spacing" text-decoration="underline" textLength="67" x="148.5" y="521.7859">getColSize()</text><ellipse cx="139.5" cy="531.3801" fill="#84BE84" rx="3" ry="3" style="stroke:#038048;stroke-width:1.0;"/><text fill="#000000" font-family="sans-serif" font-size="11" lengthAdjust="spacing" textLength="102" x="148.5" y="534.5906">getIndexByColor()</text><ellipse cx="139.5" cy="544.1848" fill="#84BE84" rx="3" ry="3" style="stroke:#038048;stroke-width:1.0;"/><text fill="#000000" font-family="sans-serif" font-size="11" lengthAdjust="spacing" textLength="116" x="148.5" y="547.3953">getMarketStructure()</text><ellipse cx="139.5" cy="556.9895" fill="#84BE84" rx="3" ry="3" style="stroke:#038048;stroke-width:1.0;"/><text fill="#000000" font-family="sans-serif" font-size="11" lengthAdjust="spacing" text-decoration="underline" textLength="73" x="148.5" y="560.2">getRowSize()</text><ellipse cx="139.5" cy="569.7942" fill="#84BE84" rx="3" ry="3" style="stroke:#038048;stroke-width:1.0;"/><text fill="#000000" font-family="sans-serif" font-size="11" lengthAdjust="spacing" textLength="52" x="148.5" y="573.0046">remove()</text><ellipse cx="139.5" cy="582.5989" fill="#84BE84" rx="3" ry="3" style="stroke:#038048;stroke-width:1.0;"/><text fill="#000000" font-family="sans-serif" font-size="11" lengthAdjust="spacing" textLength="128" x="148.5" y="585.8093">removeCardsOfColor()</text><rect fill="#F24D5C" height="6" style="stroke:#C82930;stroke-width:1.0;" width="6" x="136.5" y="592.4036"/><text fill="#000000" font-family="sans-serif" font-size="11" lengthAdjust="spacing" textLength="69" x="148.5" y="598.614">getColumn()</text><rect fill="#F24D5C" height="6" style="stroke:#C82930;stroke-width:1.0;" width="6" x="136.5" y="605.2083"/><text fill="#000000" font-family="sans-serif" font-size="11" lengthAdjust="spacing" textLength="86" x="148.5" y="611.4187">readCardsFile()</text><!--MD5=[5a5af9b0547913863cbe0ddf55a9ab5e]
class java.io.Serializable--><rect fill="#FEFECE" filter="url(#f8cipzegte5r6)" height="48" id="java.io.Serializable" style="stroke:#A80036;stroke-width:1.5;" width="99" x="375.5" y="82.9426"/><ellipse cx="390.5" cy="98.9426" fill="#ADD1B2" rx="11" ry="11" style="stroke:#A80036;stroke-width:1.0;"/><path d="M392.9688,104.8176 Q392.3906,105.1301 391.75,105.2864 Q391.1094,105.4426 390.4063,105.4426 Q387.8906,105.4426 386.5781,103.7708 Q385.2656,102.0989 385.2656,98.9426 Q385.2656,95.7864 386.5781,94.1145 Q387.8906,92.4426 390.4063,92.4426 Q391.1094,92.4426 391.75,92.5989 Q392.4063,92.7551 392.9688,93.0676 L392.9688,95.8645 Q392.3281,95.2864 391.7344,95.0208 Q391.1563,94.7551 390.5156,94.7551 Q389.1719,94.7551 388.4844,95.8176 Q387.8125,96.8645 387.8125,98.9426 Q387.8125,101.0208 388.4844,102.0833 Q389.1719,103.1301 390.5156,103.1301 Q391.1563,103.1301 391.7344,102.8645 Q392.3281,102.5989 392.9688,102.0208 L392.9688,104.8176 Z " fill="#000000"/><text fill="#000000" font-family="sans-serif" font-size="12" lengthAdjust="spacing" textLength="67" x="404.5" y="103.0969">Serializable</text><line style="stroke:#A80036;stroke-width:1.5;" x1="376.5" x2="473.5" y1="114.9426" y2="114.9426"/><line style="stroke:#A80036;stroke-width:1.5;" x1="376.5" x2="473.5" y1="122.9426" y2="122.9426"/><!--MD5=[88ff0218f4abdd8e059d7558b6d14884]
reverse link java.io.Serializable to it.polimi.ingsw.server.Model.Table.CardMarket.CardDeck--><path codeLine="54" d="M441.67,150.0526 C468.15,216.9326 520.07,348.0926 551.94,428.5826 " fill="none" id="java.io.Serializable-backto-it.polimi.ingsw.server.Model.Table.CardMarket.CardDeck" style="stroke:#A80036;stroke-width:1.0;stroke-dasharray:7.0,7.0;"/><polygon fill="none" points="435.03,152.2826,434.17,131.1126,448.04,147.1326,435.03,152.2826" style="stroke:#A80036;stroke-width:1.0;"/><!--MD5=[f4db068824d086ef470b5290e2468937]
reverse link java.io.Serializable to it.polimi.ingsw.server.Model.Table.CardMarket.CardMarket--><path codeLine="55" d="M408.46,149.9826 C387.17,204.1226 349.28,300.4626 318.82,377.9126 " fill="none" id="java.io.Serializable-backto-it.polimi.ingsw.server.Model.Table.CardMarket.CardMarket" style="stroke:#A80036;stroke-width:1.0;stroke-dasharray:7.0,7.0;"/><polygon fill="none" points="402.05,147.1626,415.89,131.1126,415.08,152.2826,402.05,147.1626" style="stroke:#A80036;stroke-width:1.0;"/><text fill="#888888" font-family="sans-serif" font-size="10" lengthAdjust="spacing" textLength="0" x="824" y="745.2249"/><text fill="#888888" font-family="sans-serif" font-size="10" lengthAdjust="spacing" textLength="0" x="824" y="756.8655"/><!--MD5=[d7a195e5197246424f7860b092b593ab]
@startuml

title __CARDMARKET's Class Diagram__\n

  namespace it.polimi.ingsw {
    namespace server {
      namespace Model {
        namespace Table {
          namespace CardMarket {
            class it.polimi.ingsw.server.Model.Table.CardMarket.CardDeck {
                - cards : ArrayDeque<DevelopmentCard>
                + CardDeck()
                + getCards()
                + getSize()
                + peek()
                + pop()
                {static} - shuffleArray()
            }
          }
        }
      }
    }
  }
  

  namespace it.polimi.ingsw {
    namespace server {
      namespace Model {
        namespace Table {
          namespace CardMarket {
            class it.polimi.ingsw.server.Model.Table.CardMarket.CardMarket {
                {static} - COL_SIZE : int
                {static} - DEV_CARDS_SIZE : int
                {static} - ROW_SIZE : int
                - cardDeckGrid : CardDeck[][]
                - colorIndexes : HashMap<TypeEnum, Integer>
                + CardMarket()
                + emptyColumn()
                {static} + getColSize()
                + getIndexByColor()
                + getMarketStructure()
                {static} + getRowSize()
                + remove()
                + removeCardsOfColor()
                - getColumn()
                - readCardsFile()
            }
          }
        }
      }
    }
  }
  

  it.polimi.ingsw.server.Model.Table.CardMarket.CardDeck .up.|> java.io.Serializable
  it.polimi.ingsw.server.Model.Table.CardMarket.CardMarket .up.|> java.io.Serializable


right footer


endfooter

@enduml

PlantUML version 1.2021.7(Sun May 23 14:40:07 CEST 2021)
(GPL source distribution)
Java Runtime: OpenJDK Runtime Environment
JVM: Dynamic Code Evolution 64-Bit Server VM
Default Encoding: UTF-8
Language: en
Country: US
--></g></svg>