<?xml version="1.0" encoding="UTF-8" standalone="no"?><svg xmlns="http://www.w3.org/2000/svg" xmlns:xlink="http://www.w3.org/1999/xlink" contentScriptType="application/ecmascript" contentStyleType="text/css" height="419.84px" preserveAspectRatio="none" style="width:565px;height:419px;background:#FFFFFF;" version="1.1" viewBox="0 0 565 419" width="565.8px" zoomAndPan="magnify"><defs><filter height="300%" id="f15n7o0jfira8s" width="300%" x="-1" y="-1"><feGaussianBlur result="blurOut" stdDeviation="0.82"/><feColorMatrix in="blurOut" result="blurOut2" type="matrix" values="0 0 0 0 0 0 0 0 0 0 0 0 0 0 0 0 0 0 .4 0"/><feOffset dx="1.64" dy="1.64" in="blurOut2" result="blurOut3"/><feBlend in="SourceGraphic" in2="blurOut3" mode="normal"/></filter></defs><g><text fill="#000000" font-family="sans-serif" font-size="7.38" lengthAdjust="spacing" text-decoration="underline" textLength="87.33" x="236.6438" y="6.8562">CARDS's Class Diagram</text><text fill="#000000" font-family="sans-serif" font-size="7.38" lengthAdjust="spacing" textLength="0" x="281.5388" y="15.4545"/><!--MD5=[432dd831305d7709bed0fe1447e3cfc7]
cluster it.polimi.ingsw--><polygon fill="#FFFFFF" filter="url(#f15n7o0jfira8s)" points="301.76,73.7765,352.6,73.7765,355.47,82.9182,550.22,82.9182,550.22,405.4665,301.76,405.4665,301.76,73.7765" style="stroke:#000000;stroke-width:0.615;"/><line style="stroke:#000000;stroke-width:0.615;" x1="301.76" x2="355.47" y1="82.9182" y2="82.9182"/><text fill="#000000" font-family="sans-serif" font-size="5.74" font-weight="bold" lengthAdjust="spacing" textLength="48.38" x="303.4" y="79.9245">it.polimi.ingsw</text><!--MD5=[6ff9cca172c9c23be7720fa07ee26538]
cluster it.polimi.ingsw.server--><polygon fill="#FFFFFF" filter="url(#f15n7o0jfira8s)" points="311.6,91.4065,334.97,91.4065,337.84,100.5482,540.38,100.5482,540.38,395.6265,311.6,395.6265,311.6,91.4065" style="stroke:#000000;stroke-width:0.615;"/><line style="stroke:#000000;stroke-width:0.615;" x1="311.6" x2="337.84" y1="100.5482" y2="100.5482"/><text fill="#000000" font-family="sans-serif" font-size="5.74" font-weight="bold" lengthAdjust="spacing" textLength="20.91" x="313.24" y="97.5545">server</text><!--MD5=[6644f379719c89a69245f782f93ed447]
cluster it.polimi.ingsw.server.Model--><polygon fill="#FFFFFF" filter="url(#f15n7o0jfira8s)" points="321.44,109.0365,343.99,109.0365,346.86,118.1782,530.54,118.1782,530.54,385.7865,321.44,385.7865,321.44,109.0365" style="stroke:#000000;stroke-width:0.615;"/><line style="stroke:#000000;stroke-width:0.615;" x1="321.44" x2="346.86" y1="118.1782" y2="118.1782"/><text fill="#000000" font-family="sans-serif" font-size="5.74" font-weight="bold" lengthAdjust="spacing" textLength="20.09" x="323.08" y="115.1845">Model</text><!--MD5=[efca3317e8ccd9b942d9ee8c15ee7f01]
cluster it.polimi.ingsw.server.Model.Cards--><polygon fill="#FFFFFF" filter="url(#f15n7o0jfira8s)" points="331.28,126.6665,351.78,126.6665,354.65,135.8082,520.7,135.8082,520.7,375.9465,331.28,375.9465,331.28,126.6665" style="stroke:#000000;stroke-width:0.615;"/><line style="stroke:#000000;stroke-width:0.615;" x1="331.28" x2="354.65" y1="135.8082" y2="135.8082"/><text fill="#000000" font-family="sans-serif" font-size="5.74" font-weight="bold" lengthAdjust="spacing" textLength="18.04" x="332.92" y="132.8145">Cards</text><!--MD5=[0d852700fdad35b7061d461d6907a324]
cluster java.io--><polygon fill="#FFFFFF" filter="url(#f15n7o0jfira8s)" points="447.31,19.6565,471.09,19.6565,473.96,28.7982,501.43,28.7982,501.43,60.2465,447.31,60.2465,447.31,19.6565" style="stroke:#000000;stroke-width:0.615;"/><line style="stroke:#000000;stroke-width:0.615;" x1="447.31" x2="473.96" y1="28.7982" y2="28.7982"/><text fill="#000000" font-family="sans-serif" font-size="5.74" font-weight="bold" lengthAdjust="spacing" textLength="21.32" x="448.95" y="25.8045">java.io</text><!--MD5=[48f7be51bd0005e6c97bce768131ca54]
cluster it.polimi.ingsw.server.Model.Enums--><polygon fill="#FFFFFF" filter="url(#f15n7o0jfira8s)" points="6.56,303.7865,126.28,303.7865,129.15,312.9282,130.38,312.9282,130.38,344.3765,6.56,344.3765,6.56,303.7865" style="stroke:#000000;stroke-width:0.615;"/><line style="stroke:#000000;stroke-width:0.615;" x1="6.56" x2="129.15" y1="312.9282" y2="312.9282"/><text fill="#000000" font-family="sans-serif" font-size="5.74" font-weight="bold" lengthAdjust="spacing" textLength="117.26" x="8.2" y="309.9345">it.polimi.ingsw.server.Model.Enums</text><!--MD5=[8db89a2eda5cae884eb8730cd929388d]
cluster it.polimi.ingsw.server.Model.LeaderAbilities--><polygon fill="#FFFFFF" filter="url(#f15n7o0jfira8s)" points="140.22,303.7865,287.82,303.7865,290.69,312.9282,291.92,312.9282,291.92,344.3765,140.22,344.3765,140.22,303.7865" style="stroke:#000000;stroke-width:0.615;"/><line style="stroke:#000000;stroke-width:0.615;" x1="140.22" x2="290.69" y1="312.9282" y2="312.9282"/><text fill="#000000" font-family="sans-serif" font-size="5.74" font-weight="bold" lengthAdjust="spacing" textLength="145.14" x="141.86" y="309.9345">it.polimi.ingsw.server.Model.LeaderAbilities</text><!--MD5=[4539a5daab551c60198b265d466d2bed]
class it.polimi.ingsw.server.Model.Cards.DevelopmentCard--><rect codeLine="8" fill="#FEFECE" filter="url(#f15n7o0jfira8s)" height="114.1786" id="it.polimi.ingsw.server.Model.Cards.DevelopmentCard" style="stroke:#A80036;stroke-width:0.615;" width="82" x="337.84" y="141.0165"/><ellipse cx="355.06" cy="147.5765" fill="#ADD1B2" rx="4.51" ry="4.51" style="stroke:#A80036;stroke-width:0.41;"/><path d="M356.0722,149.9852 Q355.8352,150.1134 355.5725,150.1774 Q355.3098,150.2415 355.0216,150.2415 Q353.9902,150.2415 353.452,149.556 Q352.9139,148.8705 352.9139,147.5765 Q352.9139,146.2824 353.452,145.5969 Q353.9902,144.9115 355.0216,144.9115 Q355.3098,144.9115 355.5725,144.9755 Q355.8416,145.0396 356.0722,145.1677 L356.0722,146.3144 Q355.8095,146.0774 355.5661,145.9685 Q355.3291,145.8596 355.0664,145.8596 Q354.5155,145.8596 354.2336,146.2952 Q353.9581,146.7244 353.9581,147.5765 Q353.9581,148.4285 354.2336,148.8641 Q354.5155,149.2934 355.0664,149.2934 Q355.3291,149.2934 355.5661,149.1844 Q355.8095,149.0755 356.0722,148.8385 L356.0722,149.9852 Z " fill="#000000"/><text fill="#000000" font-family="sans-serif" font-size="4.92" lengthAdjust="spacing" textLength="44.28" x="363.26" y="149.2797">DevelopmentCard</text><line style="stroke:#A80036;stroke-width:0.615;" x1="338.25" x2="419.43" y1="154.1365" y2="154.1365"/><rect fill="none" height="2.46" style="stroke:#C82930;stroke-width:0.41;" width="2.46" x="341.12" y="157.4165"/><text fill="#000000" font-family="sans-serif" font-size="4.51" lengthAdjust="spacing" textLength="14.76" x="346.04" y="159.9628">id : int</text><rect fill="none" height="2.46" style="stroke:#C82930;stroke-width:0.41;" width="2.46" x="341.12" y="162.6664"/><text fill="#000000" font-family="sans-serif" font-size="4.51" lengthAdjust="spacing" textLength="28.7" x="346.04" y="165.2127">path : String</text><rect fill="none" height="2.46" style="stroke:#C82930;stroke-width:0.41;" width="2.46" x="341.12" y="167.9163"/><text fill="#000000" font-family="sans-serif" font-size="4.51" lengthAdjust="spacing" textLength="71.34" x="346.04" y="170.4626">price : ResourceRequirement[]</text><rect fill="none" height="2.46" style="stroke:#C82930;stroke-width:0.41;" width="2.46" x="341.12" y="173.1662"/><text fill="#000000" font-family="sans-serif" font-size="4.51" lengthAdjust="spacing" textLength="40.59" x="346.04" y="175.7125">victoryPoints : int</text><line style="stroke:#A80036;stroke-width:0.615;" x1="338.25" x2="419.43" y1="178.4162" y2="178.4162"/><ellipse cx="342.35" cy="182.9262" fill="#84BE84" rx="1.23" ry="1.23" style="stroke:#038048;stroke-width:0.41;"/><text fill="#000000" font-family="sans-serif" font-size="4.51" lengthAdjust="spacing" textLength="45.1" x="346.04" y="184.2424">DevelopmentCard()</text><ellipse cx="342.35" cy="188.1761" fill="#84BE84" rx="1.23" ry="1.23" style="stroke:#038048;stroke-width:0.41;"/><text fill="#000000" font-family="sans-serif" font-size="4.51" lengthAdjust="spacing" textLength="45.1" x="346.04" y="189.4924">DevelopmentCard()</text><ellipse cx="342.35" cy="193.426" fill="#84BE84" rx="1.23" ry="1.23" style="stroke:#038048;stroke-width:0.41;"/><text fill="#000000" font-family="sans-serif" font-size="4.51" lengthAdjust="spacing" textLength="45.1" x="346.04" y="194.7423">DevelopmentCard()</text><ellipse cx="342.35" cy="198.6759" fill="#84BE84" rx="1.23" ry="1.23" style="stroke:#038048;stroke-width:0.41;"/><text fill="#000000" font-family="sans-serif" font-size="4.51" lengthAdjust="spacing" textLength="34.03" x="346.04" y="199.9922">canBeBought()</text><ellipse cx="342.35" cy="203.9259" fill="#84BE84" rx="1.23" ry="1.23" style="stroke:#038048;stroke-width:0.41;"/><text fill="#000000" font-family="sans-serif" font-size="4.51" lengthAdjust="spacing" textLength="18.45" x="346.04" y="205.2421">equals()</text><ellipse cx="342.35" cy="209.1758" fill="#84BE84" rx="1.23" ry="1.23" style="stroke:#038048;stroke-width:0.41;"/><text fill="#000000" font-family="sans-serif" font-size="4.51" lengthAdjust="spacing" textLength="14.76" x="346.04" y="210.4921">getId()</text><ellipse cx="342.35" cy="214.4257" fill="#84BE84" rx="1.23" ry="1.23" style="stroke:#038048;stroke-width:0.41;"/><text fill="#000000" font-family="sans-serif" font-size="4.51" lengthAdjust="spacing" textLength="22.96" x="346.04" y="215.742">getLevel()</text><ellipse cx="342.35" cy="219.6756" fill="#84BE84" rx="1.23" ry="1.23" style="stroke:#038048;stroke-width:0.41;"/><text fill="#000000" font-family="sans-serif" font-size="4.51" lengthAdjust="spacing" textLength="20.91" x="346.04" y="220.9919">getPath()</text><ellipse cx="342.35" cy="224.9255" fill="#84BE84" rx="1.23" ry="1.23" style="stroke:#038048;stroke-width:0.41;"/><text fill="#000000" font-family="sans-serif" font-size="4.51" lengthAdjust="spacing" textLength="22.14" x="346.04" y="226.2418">getPrice()</text><ellipse cx="342.35" cy="230.1755" fill="#84BE84" rx="1.23" ry="1.23" style="stroke:#038048;stroke-width:0.41;"/><text fill="#000000" font-family="sans-serif" font-size="4.51" lengthAdjust="spacing" textLength="49.61" x="346.04" y="231.4917">getProductionPower()</text><ellipse cx="342.35" cy="235.4254" fill="#84BE84" rx="1.23" ry="1.23" style="stroke:#038048;stroke-width:0.41;"/><text fill="#000000" font-family="sans-serif" font-size="4.51" lengthAdjust="spacing" textLength="22.14" x="346.04" y="236.7417">getType()</text><ellipse cx="342.35" cy="240.6753" fill="#84BE84" rx="1.23" ry="1.23" style="stroke:#038048;stroke-width:0.41;"/><text fill="#000000" font-family="sans-serif" font-size="4.51" lengthAdjust="spacing" textLength="41" x="346.04" y="241.9916">getVictoryPoints()</text><ellipse cx="342.35" cy="245.9252" fill="#84BE84" rx="1.23" ry="1.23" style="stroke:#038048;stroke-width:0.41;"/><text fill="#000000" font-family="sans-serif" font-size="4.51" lengthAdjust="spacing" textLength="21.32" x="346.04" y="247.2415">toString()</text><rect fill="#F24D5C" height="2.46" style="stroke:#C82930;stroke-width:0.41;" width="2.46" x="341.12" y="249.9451"/><text fill="#000000" font-family="sans-serif" font-size="4.51" lengthAdjust="spacing" textLength="26.65" x="346.04" y="252.4914">deepCopy()</text><!--MD5=[c88a8c1224a72cf24dc63ff38e5372be]
class it.polimi.ingsw.server.Model.Cards.LeaderCard--><rect codeLine="38" fill="#FEFECE" filter="url(#f15n7o0jfira8s)" height="103.6788" id="it.polimi.ingsw.server.Model.Cards.LeaderCard" style="stroke:#A80036;stroke-width:0.615;" width="79.95" x="434.395" y="146.1415"/><ellipse cx="458.4825" cy="152.7015" fill="#ADD1B2" rx="4.51" ry="4.51" style="stroke:#A80036;stroke-width:0.41;"/><path d="M459.4947,155.1102 Q459.2577,155.2384 458.995,155.3024 Q458.7323,155.3665 458.4441,155.3665 Q457.4127,155.3665 456.8745,154.681 Q456.3364,153.9955 456.3364,152.7015 Q456.3364,151.4074 456.8745,150.7219 Q457.4127,150.0365 458.4441,150.0365 Q458.7323,150.0365 458.995,150.1005 Q459.2641,150.1646 459.4947,150.2927 L459.4947,151.4394 Q459.232,151.2024 458.9886,151.0935 Q458.7516,150.9846 458.4889,150.9846 Q457.938,150.9846 457.6561,151.4202 Q457.3806,151.8494 457.3806,152.7015 Q457.3806,153.5535 457.6561,153.9891 Q457.938,154.4184 458.4889,154.4184 Q458.7516,154.4184 458.9886,154.3094 Q459.232,154.2005 459.4947,153.9635 L459.4947,155.1102 Z " fill="#000000"/><text fill="#000000" font-family="sans-serif" font-size="4.92" lengthAdjust="spacing" textLength="28.29" x="466.8875" y="154.4047">LeaderCard</text><line style="stroke:#A80036;stroke-width:0.615;" x1="434.805" x2="513.935" y1="159.2615" y2="159.2615"/><rect fill="none" height="2.46" style="stroke:#C82930;stroke-width:0.41;" width="2.46" x="437.675" y="162.5415"/><text fill="#000000" font-family="sans-serif" font-size="4.51" lengthAdjust="spacing" textLength="14.76" x="442.595" y="165.0878">id : int</text><rect fill="none" height="2.46" style="stroke:#C82930;stroke-width:0.41;" width="2.46" x="437.675" y="167.7914"/><text fill="#000000" font-family="sans-serif" font-size="4.51" lengthAdjust="spacing" textLength="41.41" x="442.595" y="170.3377">isActive : boolean</text><rect fill="none" height="2.46" style="stroke:#C82930;stroke-width:0.41;" width="2.46" x="437.675" y="173.0413"/><text fill="#000000" font-family="sans-serif" font-size="4.51" lengthAdjust="spacing" textLength="28.7" x="442.595" y="175.5876">path : String</text><rect fill="none" height="2.46" style="stroke:#C82930;stroke-width:0.41;" width="2.46" x="437.675" y="178.2912"/><text fill="#000000" font-family="sans-serif" font-size="4.51" lengthAdjust="spacing" textLength="69.29" x="442.595" y="180.8375">requirements : Requirement[]</text><rect fill="none" height="2.46" style="stroke:#C82930;stroke-width:0.41;" width="2.46" x="437.675" y="183.5412"/><text fill="#000000" font-family="sans-serif" font-size="4.51" lengthAdjust="spacing" textLength="40.59" x="442.595" y="186.0874">victoryPoints : int</text><line style="stroke:#A80036;stroke-width:0.615;" x1="434.805" x2="513.935" y1="188.7911" y2="188.7911"/><ellipse cx="438.905" cy="193.3011" fill="#84BE84" rx="1.23" ry="1.23" style="stroke:#038048;stroke-width:0.41;"/><text fill="#000000" font-family="sans-serif" font-size="4.51" lengthAdjust="spacing" textLength="30.34" x="442.595" y="194.6174">LeaderCard()</text><ellipse cx="438.905" cy="198.551" fill="#84BE84" rx="1.23" ry="1.23" style="stroke:#038048;stroke-width:0.41;"/><text fill="#000000" font-family="sans-serif" font-size="4.51" lengthAdjust="spacing" textLength="30.34" x="442.595" y="199.8673">LeaderCard()</text><ellipse cx="438.905" cy="203.8009" fill="#84BE84" rx="1.23" ry="1.23" style="stroke:#038048;stroke-width:0.41;"/><text fill="#000000" font-family="sans-serif" font-size="4.51" lengthAdjust="spacing" textLength="21.73" x="442.595" y="205.1172">activate()</text><ellipse cx="438.905" cy="209.0509" fill="#84BE84" rx="1.23" ry="1.23" style="stroke:#038048;stroke-width:0.41;"/><text fill="#000000" font-family="sans-serif" font-size="4.51" lengthAdjust="spacing" textLength="39.36" x="442.595" y="210.3671">canBeActivated()</text><ellipse cx="438.905" cy="214.3008" fill="#84BE84" rx="1.23" ry="1.23" style="stroke:#038048;stroke-width:0.41;"/><text fill="#000000" font-family="sans-serif" font-size="4.51" lengthAdjust="spacing" textLength="25.01" x="442.595" y="215.6171">getAbility()</text><ellipse cx="438.905" cy="219.5507" fill="#84BE84" rx="1.23" ry="1.23" style="stroke:#038048;stroke-width:0.41;"/><text fill="#000000" font-family="sans-serif" font-size="4.51" lengthAdjust="spacing" textLength="14.76" x="442.595" y="220.867">getId()</text><ellipse cx="438.905" cy="224.8006" fill="#84BE84" rx="1.23" ry="1.23" style="stroke:#038048;stroke-width:0.41;"/><text fill="#000000" font-family="sans-serif" font-size="4.51" lengthAdjust="spacing" textLength="20.91" x="442.595" y="226.1169">getPath()</text><ellipse cx="438.905" cy="230.0505" fill="#84BE84" rx="1.23" ry="1.23" style="stroke:#038048;stroke-width:0.41;"/><text fill="#000000" font-family="sans-serif" font-size="4.51" lengthAdjust="spacing" textLength="43.05" x="442.595" y="231.3668">getRequirements()</text><ellipse cx="438.905" cy="235.3005" fill="#84BE84" rx="1.23" ry="1.23" style="stroke:#038048;stroke-width:0.41;"/><text fill="#000000" font-family="sans-serif" font-size="4.51" lengthAdjust="spacing" textLength="41" x="442.595" y="236.6167">getVictoryPoints()</text><ellipse cx="438.905" cy="240.5504" fill="#84BE84" rx="1.23" ry="1.23" style="stroke:#038048;stroke-width:0.41;"/><text fill="#000000" font-family="sans-serif" font-size="4.51" lengthAdjust="spacing" textLength="21.32" x="442.595" y="241.8667">isActive()</text><ellipse cx="438.905" cy="245.8003" fill="#84BE84" rx="1.23" ry="1.23" style="stroke:#038048;stroke-width:0.41;"/><text fill="#000000" font-family="sans-serif" font-size="4.51" lengthAdjust="spacing" textLength="21.32" x="442.595" y="247.1166">toString()</text><!--MD5=[20493a6e02bd0438cc042058fa3fce9f]
class it.polimi.ingsw.server.Model.Cards.ProductionPower--><rect codeLine="66" fill="#FEFECE" filter="url(#f15n7o0jfira8s)" height="82.6791" id="it.polimi.ingsw.server.Model.Cards.ProductionPower" style="stroke:#A80036;stroke-width:0.615;" width="141.45" x="355.265" y="286.5665"/><ellipse cx="403.5425" cy="293.1265" fill="#ADD1B2" rx="4.51" ry="4.51" style="stroke:#A80036;stroke-width:0.41;"/><path d="M404.5547,295.5352 Q404.3177,295.6634 404.055,295.7274 Q403.7923,295.7915 403.5041,295.7915 Q402.4727,295.7915 401.9345,295.106 Q401.3964,294.4205 401.3964,293.1265 Q401.3964,291.8324 401.9345,291.1469 Q402.4727,290.4615 403.5041,290.4615 Q403.7923,290.4615 404.055,290.5255 Q404.3241,290.5896 404.5547,290.7177 L404.5547,291.8644 Q404.292,291.6274 404.0486,291.5185 Q403.8116,291.4096 403.5489,291.4096 Q402.998,291.4096 402.7161,291.8452 Q402.4406,292.2744 402.4406,293.1265 Q402.4406,293.9785 402.7161,294.4141 Q402.998,294.8434 403.5489,294.8434 Q403.8116,294.8434 404.0486,294.7344 Q404.292,294.6255 404.5547,294.3885 L404.5547,295.5352 Z " fill="#000000"/><text fill="#000000" font-family="sans-serif" font-size="4.92" lengthAdjust="spacing" textLength="41.41" x="411.9475" y="294.8297">ProductionPower</text><line style="stroke:#A80036;stroke-width:0.615;" x1="355.675" x2="496.305" y1="299.6865" y2="299.6865"/><rect fill="none" height="2.46" style="stroke:#C82930;stroke-width:0.41;" width="2.46" x="358.545" y="302.9665"/><text fill="#000000" font-family="sans-serif" font-size="4.51" lengthAdjust="spacing" textLength="77.49" x="363.465" y="305.5128">isBaseProductionPower : boolean</text><rect fill="none" height="2.46" style="stroke:#C82930;stroke-width:0.41;" width="2.46" x="358.545" y="308.2164"/><text fill="#000000" font-family="sans-serif" font-size="4.51" lengthAdjust="spacing" textLength="130.79" x="363.465" y="310.7627">resourceObtained : EnumMap&lt;ResourceEnum, Integer&gt;</text><rect fill="none" height="2.46" style="stroke:#C82930;stroke-width:0.41;" width="2.46" x="358.545" y="313.4663"/><text fill="#000000" font-family="sans-serif" font-size="4.51" lengthAdjust="spacing" textLength="104.96" x="363.465" y="316.0126">resourceRequested : ResourceRequirement[]</text><line style="stroke:#A80036;stroke-width:0.615;" x1="355.675" x2="496.305" y1="318.7162" y2="318.7162"/><ellipse cx="359.775" cy="323.2262" fill="#84BE84" rx="1.23" ry="1.23" style="stroke:#038048;stroke-width:0.41;"/><text fill="#000000" font-family="sans-serif" font-size="4.51" lengthAdjust="spacing" textLength="42.23" x="363.465" y="324.5425">ProductionPower()</text><ellipse cx="359.775" cy="328.4762" fill="#84BE84" rx="1.23" ry="1.23" style="stroke:#038048;stroke-width:0.41;"/><text fill="#000000" font-family="sans-serif" font-size="4.51" lengthAdjust="spacing" textLength="42.23" x="363.465" y="329.7924">ProductionPower()</text><ellipse cx="359.775" cy="333.7261" fill="#84BE84" rx="1.23" ry="1.23" style="stroke:#038048;stroke-width:0.41;"/><text fill="#000000" font-family="sans-serif" font-size="4.51" lengthAdjust="spacing" textLength="29.11" x="363.465" y="335.0424">canBeUsed()</text><ellipse cx="359.775" cy="338.976" fill="#84BE84" rx="1.23" ry="1.23" style="stroke:#038048;stroke-width:0.41;"/><text fill="#000000" font-family="sans-serif" font-size="4.51" lengthAdjust="spacing" textLength="18.45" x="363.465" y="340.2923">equals()</text><ellipse cx="359.775" cy="344.2259" fill="#84BE84" rx="1.23" ry="1.23" style="stroke:#038048;stroke-width:0.41;"/><text fill="#000000" font-family="sans-serif" font-size="4.51" lengthAdjust="spacing" textLength="53.3" x="363.465" y="345.5422">getResourceObtained()</text><ellipse cx="359.775" cy="349.4759" fill="#84BE84" rx="1.23" ry="1.23" style="stroke:#038048;stroke-width:0.41;"/><text fill="#000000" font-family="sans-serif" font-size="4.51" lengthAdjust="spacing" textLength="56.99" x="363.465" y="350.7921">getResourceRequested()</text><ellipse cx="359.775" cy="354.7258" fill="#84BE84" rx="1.23" ry="1.23" style="stroke:#038048;stroke-width:0.41;"/><text fill="#000000" font-family="sans-serif" font-size="4.51" lengthAdjust="spacing" textLength="57.4" x="363.465" y="356.0421">isBaseProductionPower()</text><ellipse cx="359.775" cy="359.9757" fill="#84BE84" rx="1.23" ry="1.23" style="stroke:#038048;stroke-width:0.41;"/><text fill="#000000" font-family="sans-serif" font-size="4.51" lengthAdjust="spacing" textLength="60.68" x="363.465" y="361.292">setBaseProductionPower()</text><ellipse cx="359.775" cy="365.2256" fill="#84BE84" rx="1.23" ry="1.23" style="stroke:#038048;stroke-width:0.41;"/><text fill="#000000" font-family="sans-serif" font-size="4.51" lengthAdjust="spacing" textLength="21.32" x="363.465" y="366.5419">toString()</text><!--MD5=[5a5af9b0547913863cbe0ddf55a9ab5e]
class java.io.Serializable--><rect fill="#FEFECE" filter="url(#f15n7o0jfira8s)" height="19.68" id="java.io.Serializable" style="stroke:#A80036;stroke-width:0.615;" width="40.59" x="454.075" y="34.0065"/><ellipse cx="460.225" cy="40.5665" fill="#ADD1B2" rx="4.51" ry="4.51" style="stroke:#A80036;stroke-width:0.41;"/><path d="M461.2372,42.9752 Q461.0002,43.1034 460.7375,43.1674 Q460.4748,43.2315 460.1866,43.2315 Q459.1552,43.2315 458.617,42.546 Q458.0789,41.8605 458.0789,40.5665 Q458.0789,39.2724 458.617,38.5869 Q459.1552,37.9015 460.1866,37.9015 Q460.4748,37.9015 460.7375,37.9655 Q461.0066,38.0296 461.2372,38.1577 L461.2372,39.3044 Q460.9745,39.0674 460.7311,38.9585 Q460.4941,38.8496 460.2314,38.8496 Q459.6805,38.8496 459.3986,39.2852 Q459.1231,39.7144 459.1231,40.5665 Q459.1231,41.4185 459.3986,41.8541 Q459.6805,42.2834 460.2314,42.2834 Q460.4941,42.2834 460.7311,42.1744 Q460.9745,42.0655 461.2372,41.8285 L461.2372,42.9752 Z " fill="#000000"/><text fill="#000000" font-family="sans-serif" font-size="4.92" lengthAdjust="spacing" textLength="27.47" x="465.965" y="42.2697">Serializable</text><line style="stroke:#A80036;stroke-width:0.615;" x1="454.485" x2="494.255" y1="47.1265" y2="47.1265"/><line style="stroke:#A80036;stroke-width:0.615;" x1="454.485" x2="494.255" y1="50.4065" y2="50.4065"/><!--MD5=[9ddd7617f27c0fd785e7e2336786fa65]
class it.polimi.ingsw.server.Model.Enums.LevelEnum--><rect fill="#FEFECE" filter="url(#f15n7o0jfira8s)" height="19.68" id="it.polimi.ingsw.server.Model.Enums.LevelEnum" style="stroke:#A80036;stroke-width:0.615;" width="40.59" x="29.315" y="318.1365"/><ellipse cx="35.465" cy="324.6965" fill="#ADD1B2" rx="4.51" ry="4.51" style="stroke:#A80036;stroke-width:0.41;"/><path d="M36.4772,327.1052 Q36.2402,327.2334 35.9775,327.2974 Q35.7148,327.3615 35.4266,327.3615 Q34.3952,327.3615 33.857,326.676 Q33.3189,325.9905 33.3189,324.6965 Q33.3189,323.4024 33.857,322.7169 Q34.3952,322.0315 35.4266,322.0315 Q35.7148,322.0315 35.9775,322.0955 Q36.2466,322.1596 36.4772,322.2877 L36.4772,323.4344 Q36.2145,323.1974 35.9711,323.0885 Q35.7341,322.9796 35.4714,322.9796 Q34.9205,322.9796 34.6386,323.4152 Q34.3631,323.8444 34.3631,324.6965 Q34.3631,325.5485 34.6386,325.9841 Q34.9205,326.4134 35.4714,326.4134 Q35.7341,326.4134 35.9711,326.3044 Q36.2145,326.1955 36.4772,325.9585 L36.4772,327.1052 Z " fill="#000000"/><text fill="#000000" font-family="sans-serif" font-size="4.92" lengthAdjust="spacing" textLength="27.47" x="41.205" y="326.3997">LevelEnum</text><line style="stroke:#A80036;stroke-width:0.615;" x1="29.725" x2="69.495" y1="331.2565" y2="331.2565"/><line style="stroke:#A80036;stroke-width:0.615;" x1="29.725" x2="69.495" y1="334.5365" y2="334.5365"/><!--MD5=[12648000a58003ca1c2150b0afcfeea0]
class it.polimi.ingsw.server.Model.Enums.TypeEnum--><rect fill="#FEFECE" filter="url(#f15n7o0jfira8s)" height="19.68" id="it.polimi.ingsw.server.Model.Enums.TypeEnum" style="stroke:#A80036;stroke-width:0.615;" width="39.77" x="84.255" y="318.1365"/><ellipse cx="90.405" cy="324.6965" fill="#ADD1B2" rx="4.51" ry="4.51" style="stroke:#A80036;stroke-width:0.41;"/><path d="M91.4172,327.1052 Q91.1802,327.2334 90.9175,327.2974 Q90.6548,327.3615 90.3666,327.3615 Q89.3352,327.3615 88.797,326.676 Q88.2589,325.9905 88.2589,324.6965 Q88.2589,323.4024 88.797,322.7169 Q89.3352,322.0315 90.3666,322.0315 Q90.6548,322.0315 90.9175,322.0955 Q91.1866,322.1596 91.4172,322.2877 L91.4172,323.4344 Q91.1545,323.1974 90.9111,323.0885 Q90.6741,322.9796 90.4114,322.9796 Q89.8605,322.9796 89.5786,323.4152 Q89.3031,323.8444 89.3031,324.6965 Q89.3031,325.5485 89.5786,325.9841 Q89.8605,326.4134 90.4114,326.4134 Q90.6741,326.4134 90.9111,326.3044 Q91.1545,326.1955 91.4172,325.9585 L91.4172,327.1052 Z " fill="#000000"/><text fill="#000000" font-family="sans-serif" font-size="4.92" lengthAdjust="spacing" textLength="26.65" x="96.145" y="326.3997">TypeEnum</text><line style="stroke:#A80036;stroke-width:0.615;" x1="84.665" x2="123.615" y1="331.2565" y2="331.2565"/><line style="stroke:#A80036;stroke-width:0.615;" x1="84.665" x2="123.615" y1="334.5365" y2="334.5365"/><!--MD5=[352582cb052e2238dde8d63c2c592692]
class it.polimi.ingsw.server.Model.LeaderAbilities.SpecialAbility--><rect fill="#FEFECE" filter="url(#f15n7o0jfira8s)" height="19.68" id="it.polimi.ingsw.server.Model.LeaderAbilities.SpecialAbility" style="stroke:#A80036;stroke-width:0.615;" width="45.92" x="239.44" y="318.1365"/><ellipse cx="245.59" cy="324.6965" fill="#ADD1B2" rx="4.51" ry="4.51" style="stroke:#A80036;stroke-width:0.41;"/><path d="M246.6022,327.1052 Q246.3652,327.2334 246.1025,327.2974 Q245.8398,327.3615 245.5516,327.3615 Q244.5202,327.3615 243.982,326.676 Q243.4439,325.9905 243.4439,324.6965 Q243.4439,323.4024 243.982,322.7169 Q244.5202,322.0315 245.5516,322.0315 Q245.8398,322.0315 246.1025,322.0955 Q246.3716,322.1596 246.6022,322.2877 L246.6022,323.4344 Q246.3395,323.1974 246.0961,323.0885 Q245.8591,322.9796 245.5964,322.9796 Q245.0455,322.9796 244.7636,323.4152 Q244.4881,323.8444 244.4881,324.6965 Q244.4881,325.5485 244.7636,325.9841 Q245.0455,326.4134 245.5964,326.4134 Q245.8591,326.4134 246.0961,326.3044 Q246.3395,326.1955 246.6022,325.9585 L246.6022,327.1052 Z " fill="#000000"/><text fill="#000000" font-family="sans-serif" font-size="4.92" lengthAdjust="spacing" textLength="32.8" x="251.33" y="326.3997">SpecialAbility</text><line style="stroke:#A80036;stroke-width:0.615;" x1="239.85" x2="284.95" y1="331.2565" y2="331.2565"/><line style="stroke:#A80036;stroke-width:0.615;" x1="239.85" x2="284.95" y1="334.5365" y2="334.5365"/><!--MD5=[5680288cdf1fae6ed17f01b9a934029d]
reverse link java.io.Serializable to it.polimi.ingsw.server.Model.Cards.DevelopmentCard--><path codeLine="86" d="M446.5843,55.5397 C439.5446,59.4429 432.4926,64.4039 427.22,70.4965 C409.9549,90.4471 398.5446,117.1996 391.1646,141.0124 " fill="none" id="java.io.Serializable-backto-it.polimi.ingsw.server.Model.Cards.DevelopmentCard" style="stroke:#A80036;stroke-width:0.41;stroke-dasharray:7.0,7.0;"/><polygon fill="none" points="445.3748,52.9362,453.9889,51.7882,447.9701,58.0571,445.3748,52.9362" style="stroke:#A80036;stroke-width:0.41;"/><!--MD5=[f7ae1d947d89fa0a5f7850717f161489]
reverse link it.polimi.ingsw.server.Model.Cards.DevelopmentCard to it.polimi.ingsw.server.Model.Enums.LevelEnum--><path codeLine="87" d="M332.3337,202.1393 C269.0707,209.2528 154.8816,229.5601 77.08,286.5665 C66.0223,294.6681 58.056,308.6573 53.6362,318.0135 " fill="none" id="it.polimi.ingsw.server.Model.Cards.DevelopmentCard-backto-it.polimi.ingsw.server.Model.Enums.LevelEnum" style="stroke:#A80036;stroke-width:0.41;"/><polygon fill="#FFFFFF" points="337.7334,201.553,335.1096,200.1902,332.8426,202.088,335.4663,203.4508,337.7334,201.553" style="stroke:#A80036;stroke-width:0.41;"/><text fill="#000000" font-family="sans-serif" font-size="5.33" lengthAdjust="spacing" textLength="13.12" x="105.78" y="272.6539">level</text><!--MD5=[fac8f81dc441d95e1d14989e011dd220]
reverse link it.polimi.ingsw.server.Model.Cards.DevelopmentCard to it.polimi.ingsw.server.Model.Cards.ProductionPower--><path codeLine="88" d="M401.3818,260.1625 C404.6413,269.0923 407.9295,278.0959 410.9922,286.4886 " fill="none" id="it.polimi.ingsw.server.Model.Cards.DevelopmentCard-backto-it.polimi.ingsw.server.Model.Cards.ProductionPower" style="stroke:#A80036;stroke-width:0.41;"/><polygon fill="#FFFFFF" points="399.5204,255.0621,398.826,257.9359,401.2118,259.6822,401.9061,256.8084,399.5204,255.0621" style="stroke:#A80036;stroke-width:0.41;"/><text fill="#000000" font-family="sans-serif" font-size="5.33" lengthAdjust="spacing" textLength="44.69" x="405.49" y="272.6539">productionPower</text><!--MD5=[b1099cf605d6af32dc019c06f7082577]
reverse link it.polimi.ingsw.server.Model.Cards.DevelopmentCard to it.polimi.ingsw.server.Model.Enums.TypeEnum--><path codeLine="89" d="M332.879,220.0235 C272.1498,248.5759 167.7802,297.6447 124.1849,318.1406 " fill="none" id="it.polimi.ingsw.server.Model.Cards.DevelopmentCard-backto-it.polimi.ingsw.server.Model.Enums.TypeEnum" style="stroke:#A80036;stroke-width:0.41;"/><polygon fill="#FFFFFF" points="337.7129,217.7521,334.7886,217.3163,333.2617,219.848,336.1859,220.2838,337.7129,217.7521" style="stroke:#A80036;stroke-width:0.41;"/><text fill="#000000" font-family="sans-serif" font-size="5.33" lengthAdjust="spacing" textLength="11.89" x="225.09" y="272.6539">type</text><!--MD5=[d5adf9968e4a443bda62d397bbae2105]
reverse link java.io.Serializable to it.polimi.ingsw.server.Model.Cards.LeaderCard--><path codeLine="90" d="M474.37,61.9398 C474.37,82.3906 474.37,116.9782 474.37,146.1087 " fill="none" id="java.io.Serializable-backto-it.polimi.ingsw.server.Model.Cards.LeaderCard" style="stroke:#A80036;stroke-width:0.41;stroke-dasharray:7.0,7.0;"/><polygon fill="none" points="471.5,61.9316,474.37,53.7316,477.24,61.9316,471.5,61.9316" style="stroke:#A80036;stroke-width:0.41;"/><!--MD5=[7e94ede2ce0a43128abbfea18d65b40d]
reverse link it.polimi.ingsw.server.Model.Cards.LeaderCard to it.polimi.ingsw.server.Model.LeaderAbilities.SpecialAbility--><path codeLine="91" d="M430.0162,253.0859 C429.0937,253.746 428.163,254.3815 427.22,254.9965 C410.5453,265.8533 403.0956,261.1547 384.17,267.2965 C360.3736,275.0209 353.8833,275.8409 331.28,286.5665 C311.5426,295.935 290.1078,309.2313 276.4794,318.116 " fill="none" id="it.polimi.ingsw.server.Model.Cards.LeaderCard-backto-it.polimi.ingsw.server.Model.LeaderAbilities.SpecialAbility" style="stroke:#A80036;stroke-width:0.41;"/><polygon fill="#FFFFFF" points="434.2679,249.8428,431.3173,250.0301,430.3554,252.8258,433.306,252.6385,434.2679,249.8428" style="stroke:#A80036;stroke-width:0.41;"/><text fill="#000000" font-family="sans-serif" font-size="5.33" lengthAdjust="spacing" textLength="16.81" x="384.58" y="272.6539">ability</text><!--MD5=[270162e9fc5ad7258be8ada281acc897]
reverse link java.io.Serializable to it.polimi.ingsw.server.Model.Cards.ProductionPower--><path codeLine="92" d="M502.2828,53.6332 C509.8555,57.602 517.1576,63.0755 521.52,70.4965 C563.0776,141.1846 557.9649,181.5409 521.52,254.9965 C515.5955,266.9357 506.6616,277.444 496.5961,286.4845 " fill="none" id="java.io.Serializable-backto-it.polimi.ingsw.server.Model.Cards.ProductionPower" style="stroke:#A80036;stroke-width:0.41;stroke-dasharray:7.0,7.0;"/><polygon fill="none" points="500.9667,56.1875,494.7183,50.1523,503.3652,50.9764,500.9667,56.1875" style="stroke:#A80036;stroke-width:0.41;"/><text fill="#888888" font-family="sans-serif" font-size="4.1" lengthAdjust="spacing" textLength="0" x="560.6176" y="411.7322"/><text fill="#888888" font-family="sans-serif" font-size="4.1" lengthAdjust="spacing" textLength="0" x="560.6176" y="416.5048"/><!--MD5=[08ab70439cbb990d81aeb800c1871d45]
@startuml

title __CARDS's Class Diagram__\n

  namespace it.polimi.ingsw {
    namespace server {
      namespace Model {
        namespace Cards {
          class it.polimi.ingsw.server.Model.Cards.DevelopmentCard {
              - id : int
              - path : String
              - price : ResourceRequirement[]
              - victoryPoints : int
              + DevelopmentCard()
              + DevelopmentCard()
              + DevelopmentCard()
              + canBeBought()
              + equals()
              + getId()
              + getLevel()
              + getPath()
              + getPrice()
              + getProductionPower()
              + getType()
              + getVictoryPoints()
              + toString()
              - deepCopy()
          }
        }
      }
    }
  }
  

  namespace it.polimi.ingsw {
    namespace server {
      namespace Model {
        namespace Cards {
          class it.polimi.ingsw.server.Model.Cards.LeaderCard {
              - id : int
              - isActive : boolean
              - path : String
              - requirements : Requirement[]
              - victoryPoints : int
              + LeaderCard()
              + LeaderCard()
              + activate()
              + canBeActivated()
              + getAbility()
              + getId()
              + getPath()
              + getRequirements()
              + getVictoryPoints()
              + isActive()
              + toString()
          }
        }
      }
    }
  }
  

  namespace it.polimi.ingsw {
    namespace server {
      namespace Model {
        namespace Cards {
          class it.polimi.ingsw.server.Model.Cards.ProductionPower {
              - isBaseProductionPower : boolean
              - resourceObtained : EnumMap<ResourceEnum, Integer>
              - resourceRequested : ResourceRequirement[]
              + ProductionPower()
              + ProductionPower()
              + canBeUsed()
              + equals()
              + getResourceObtained()
              + getResourceRequested()
              + isBaseProductionPower()
              + setBaseProductionPower()
              + toString()
          }
        }
      }
    }
  }
  

  it.polimi.ingsw.server.Model.Cards.DevelopmentCard .up.|> java.io.Serializable
  it.polimi.ingsw.server.Model.Cards.DevelopmentCard o- - it.polimi.ingsw.server.Model.Enums.LevelEnum : level
  it.polimi.ingsw.server.Model.Cards.DevelopmentCard o- - it.polimi.ingsw.server.Model.Cards.ProductionPower : productionPower
  it.polimi.ingsw.server.Model.Cards.DevelopmentCard o- - it.polimi.ingsw.server.Model.Enums.TypeEnum : type
  it.polimi.ingsw.server.Model.Cards.LeaderCard .up.|> java.io.Serializable
  it.polimi.ingsw.server.Model.Cards.LeaderCard o- - it.polimi.ingsw.server.Model.LeaderAbilities.SpecialAbility : ability
  it.polimi.ingsw.server.Model.Cards.ProductionPower .up.|> java.io.Serializable


right footer


endfooter

@enduml

PlantUML version 1.2021.7(Sun May 23 14:40:07 CEST 2021)
(GPL source distribution)
Java Runtime: OpenJDK Runtime Environment
JVM: Dynamic Code Evolution 64-Bit Server VM
Default Encoding: UTF-8
Language: en
Country: US
--></g></svg>