<?xml version="1.0" encoding="UTF-8" standalone="no"?><svg xmlns="http://www.w3.org/2000/svg" xmlns:xlink="http://www.w3.org/1999/xlink" contentScriptType="application/ecmascript" contentStyleType="text/css" height="1018px" preserveAspectRatio="none" style="width:593px;height:1018px;background:#FFFFFF;" version="1.1" viewBox="0 0 593 1018" width="593px" zoomAndPan="magnify"><defs><filter height="300%" id="fbfxdqpu3z02t" width="300%" x="-1" y="-1"><feGaussianBlur result="blurOut" stdDeviation="2.0"/><feColorMatrix in="blurOut" result="blurOut2" type="matrix" values="0 0 0 0 0 0 0 0 0 0 0 0 0 0 0 0 0 0 .4 0"/><feOffset dx="4.0" dy="4.0" in="blurOut2" result="blurOut3"/><feBlend in="SourceGraphic" in2="blurOut3" mode="normal"/></filter></defs><g><text fill="#000000" font-family="sans-serif" font-size="18" lengthAdjust="spacing" text-decoration="underline" textLength="213" x="183.5" y="16.7225">CLIENT's Class Diagram</text><text fill="#000000" font-family="sans-serif" font-size="18" lengthAdjust="spacing" textLength="0" x="293" y="37.6938"/><!--MD5=[432dd831305d7709bed0fe1447e3cfc7]
cluster it.polimi.ingsw--><polygon fill="#FFFFFF" filter="url(#fbfxdqpu3z02t)" points="16,47.9426,140,47.9426,147,70.2395,576,70.2395,576,811.9426,16,811.9426,16,47.9426" style="stroke:#000000;stroke-width:1.5;"/><line style="stroke:#000000;stroke-width:1.5;" x1="16" x2="147" y1="70.2395" y2="70.2395"/><text fill="#000000" font-family="sans-serif" font-size="14" font-weight="bold" lengthAdjust="spacing" textLength="118" x="20" y="62.9377">it.polimi.ingsw</text><!--MD5=[1254e979b773d7dd91b2a0f20daaeac0]
cluster it.polimi.ingsw.client--><polygon fill="#FFFFFF" filter="url(#fbfxdqpu3z02t)" points="40,90.9426,91,90.9426,98,113.2395,552,113.2395,552,787.9426,40,787.9426,40,90.9426" style="stroke:#000000;stroke-width:1.5;"/><line style="stroke:#000000;stroke-width:1.5;" x1="40" x2="98" y1="113.2395" y2="113.2395"/><text fill="#000000" font-family="sans-serif" font-size="14" font-weight="bold" lengthAdjust="spacing" textLength="45" x="44" y="105.9377">client</text><!--MD5=[0ebdcbcf3276cc12072e15e40929a817]
cluster it.polimi.ingsw.client.view--><polygon fill="#FFFFFF" filter="url(#fbfxdqpu3z02t)" points="71,860.9426,287,860.9426,294,883.2395,297,883.2395,297,959.9426,71,959.9426,71,860.9426" style="stroke:#000000;stroke-width:1.5;"/><line style="stroke:#000000;stroke-width:1.5;" x1="71" x2="294" y1="883.2395" y2="883.2395"/><text fill="#000000" font-family="sans-serif" font-size="14" font-weight="bold" lengthAdjust="spacing" textLength="210" x="75" y="875.9377">it.polimi.ingsw.client.view</text><!--MD5=[3457cf342f3cba7e38395c21d5f12fe7]
class it.polimi.ingsw.client.Client--><rect codeLine="6" fill="#FEFECE" filter="url(#fbfxdqpu3z02t)" height="176.0469" id="it.polimi.ingsw.client.Client" style="stroke:#A80036;stroke-width:1.5;" width="215" x="320.5" y="247.4426"/><ellipse cx="406.75" cy="263.4426" fill="#ADD1B2" rx="11" ry="11" style="stroke:#A80036;stroke-width:1.0;"/><path d="M409.2188,269.3176 Q408.6406,269.6301 408,269.7864 Q407.3594,269.9426 406.6563,269.9426 Q404.1406,269.9426 402.8281,268.2708 Q401.5156,266.5989 401.5156,263.4426 Q401.5156,260.2864 402.8281,258.6145 Q404.1406,256.9426 406.6563,256.9426 Q407.3594,256.9426 408,257.0989 Q408.6563,257.2551 409.2188,257.5676 L409.2188,260.3645 Q408.5781,259.7864 407.9844,259.5208 Q407.4063,259.2551 406.7656,259.2551 Q405.4219,259.2551 404.7344,260.3176 Q404.0625,261.3645 404.0625,263.4426 Q404.0625,265.5208 404.7344,266.5833 Q405.4219,267.6301 406.7656,267.6301 Q407.4063,267.6301 407.9844,267.3645 Q408.5781,267.0989 409.2188,266.5208 L409.2188,269.3176 Z " fill="#000000"/><text fill="#000000" font-family="sans-serif" font-size="12" lengthAdjust="spacing" textLength="34" x="427.25" y="267.5969">Client</text><line style="stroke:#A80036;stroke-width:1.5;" x1="321.5" x2="534.5" y1="279.4426" y2="279.4426"/><ellipse cx="331.5" cy="290.4426" rx="3" ry="3" style="stroke:#038048;stroke-width:1.0;fill:none;"/><text fill="#000000" font-family="sans-serif" font-size="11" lengthAdjust="spacing" text-decoration="underline" textLength="189" x="340.5" y="293.6531">WAIT_FOR_IP_AND_PORT : Object</text><ellipse cx="331.5" cy="303.2473" rx="3" ry="3" style="stroke:#038048;stroke-width:1.0;fill:none;"/><text fill="#000000" font-family="sans-serif" font-size="11" lengthAdjust="spacing" text-decoration="underline" textLength="149" x="340.5" y="306.4578">WAIT_FOR_RETRY : Object</text><rect fill="none" height="6" style="stroke:#C82930;stroke-width:1.0;" width="6" x="328.5" y="313.052"/><text fill="#000000" font-family="sans-serif" font-size="11" lengthAdjust="spacing" text-decoration="underline" textLength="96" x="340.5" y="319.2625">clientView : View</text><rect fill="none" height="6" style="stroke:#C82930;stroke-width:1.0;" width="6" x="328.5" y="325.8567"/><text fill="#000000" font-family="sans-serif" font-size="11" lengthAdjust="spacing" text-decoration="underline" textLength="101" x="340.5" y="332.0671">ipAddress : String</text><rect fill="none" height="6" style="stroke:#C82930;stroke-width:1.0;" width="6" x="328.5" y="338.6614"/><text fill="#000000" font-family="sans-serif" font-size="11" lengthAdjust="spacing" text-decoration="underline" textLength="94" x="340.5" y="344.8718">portNumber : int</text><rect fill="none" height="6" style="stroke:#C82930;stroke-width:1.0;" width="6" x="328.5" y="351.4661"/><text fill="#000000" font-family="sans-serif" font-size="11" lengthAdjust="spacing" text-decoration="underline" textLength="85" x="340.5" y="357.6765">retry : boolean</text><line style="stroke:#A80036;stroke-width:1.5;" x1="321.5" x2="534.5" y1="364.2708" y2="364.2708"/><ellipse cx="331.5" cy="375.2708" fill="#84BE84" rx="3" ry="3" style="stroke:#038048;stroke-width:1.0;"/><text fill="#000000" font-family="sans-serif" font-size="11" lengthAdjust="spacing" text-decoration="underline" textLength="36" x="340.5" y="378.4812">main()</text><ellipse cx="331.5" cy="388.0754" fill="#84BE84" rx="3" ry="3" style="stroke:#038048;stroke-width:1.0;"/><text fill="#000000" font-family="sans-serif" font-size="11" lengthAdjust="spacing" text-decoration="underline" textLength="81" x="340.5" y="391.2859">setIpAddress()</text><ellipse cx="331.5" cy="400.8801" fill="#84BE84" rx="3" ry="3" style="stroke:#038048;stroke-width:1.0;"/><text fill="#000000" font-family="sans-serif" font-size="11" lengthAdjust="spacing" text-decoration="underline" textLength="93" x="340.5" y="404.0906">setPortNumber()</text><ellipse cx="331.5" cy="413.6848" fill="#84BE84" rx="3" ry="3" style="stroke:#038048;stroke-width:1.0;"/><text fill="#000000" font-family="sans-serif" font-size="11" lengthAdjust="spacing" text-decoration="underline" textLength="56" x="340.5" y="416.8953">setRetry()</text><!--MD5=[8f0dcf2dc248e4386f0ed913b9d6ca89]
class it.polimi.ingsw.client.NetworkHandler--><rect codeLine="24" fill="#FEFECE" filter="url(#fbfxdqpu3z02t)" height="150.4375" id="it.polimi.ingsw.client.NetworkHandler" style="stroke:#A80036;stroke-width:1.5;" width="173" x="84.5" y="621.9426"/><ellipse cx="119.3" cy="637.9426" fill="#ADD1B2" rx="11" ry="11" style="stroke:#A80036;stroke-width:1.0;"/><path d="M121.7688,643.8176 Q121.1906,644.1301 120.55,644.2864 Q119.9094,644.4426 119.2063,644.4426 Q116.6906,644.4426 115.3781,642.7708 Q114.0656,641.0989 114.0656,637.9426 Q114.0656,634.7864 115.3781,633.1145 Q116.6906,631.4426 119.2063,631.4426 Q119.9094,631.4426 120.55,631.5989 Q121.2063,631.7551 121.7688,632.0676 L121.7688,634.8645 Q121.1281,634.2864 120.5344,634.0208 Q119.9563,633.7551 119.3156,633.7551 Q117.9719,633.7551 117.2844,634.8176 Q116.6125,635.8645 116.6125,637.9426 Q116.6125,640.0208 117.2844,641.0833 Q117.9719,642.1301 119.3156,642.1301 Q119.9563,642.1301 120.5344,641.8645 Q121.1281,641.5989 121.7688,641.0208 L121.7688,643.8176 Z " fill="#000000"/><text fill="#000000" font-family="sans-serif" font-size="12" lengthAdjust="spacing" textLength="97" x="137.7" y="642.0969">NetworkHandler</text><line style="stroke:#A80036;stroke-width:1.5;" x1="85.5" x2="256.5" y1="653.9426" y2="653.9426"/><polygon fill="none" points="95.5,660.9426,91.5,666.9426,99.5,666.9426" style="stroke:#1963A0;stroke-width:1.0;"/><text fill="#000000" font-family="sans-serif" font-size="11" lengthAdjust="spacing" textLength="133" x="104.5" y="668.1531">ois : ObjectInputStream</text><polygon fill="none" points="95.5,673.7473,91.5,679.7473,99.5,679.7473" style="stroke:#1963A0;stroke-width:1.0;"/><text fill="#000000" font-family="sans-serif" font-size="11" lengthAdjust="spacing" textLength="147" x="104.5" y="680.9578">oos : ObjectOutputStream</text><polygon fill="none" points="95.5,686.552,91.5,692.552,99.5,692.552" style="stroke:#1963A0;stroke-width:1.0;"/><text fill="#000000" font-family="sans-serif" font-size="11" lengthAdjust="spacing" textLength="86" x="104.5" y="693.7625">server : Socket</text><rect fill="none" height="6" style="stroke:#C82930;stroke-width:1.0;" width="6" x="92.5" y="700.3567"/><text fill="#000000" font-family="sans-serif" font-size="11" lengthAdjust="spacing" textLength="85" x="104.5" y="706.5671">open : boolean</text><line style="stroke:#A80036;stroke-width:1.5;" x1="85.5" x2="256.5" y1="713.1614" y2="713.1614"/><ellipse cx="95.5" cy="724.1614" fill="#84BE84" rx="3" ry="3" style="stroke:#038048;stroke-width:1.0;"/><text fill="#000000" font-family="sans-serif" font-size="11" lengthAdjust="spacing" textLength="98" x="104.5" y="727.3718">NetworkHandler()</text><ellipse cx="95.5" cy="736.9661" fill="#84BE84" rx="3" ry="3" style="stroke:#038048;stroke-width:1.0;"/><text fill="#000000" font-family="sans-serif" font-size="11" lengthAdjust="spacing" textLength="99" x="104.5" y="740.1765">receiveMessage()</text><ellipse cx="95.5" cy="749.7708" fill="#84BE84" rx="3" ry="3" style="stroke:#038048;stroke-width:1.0;"/><text fill="#000000" font-family="sans-serif" font-size="11" lengthAdjust="spacing" textLength="84" x="104.5" y="752.9812">sendMessage()</text><ellipse cx="95.5" cy="762.5754" fill="#84BE84" rx="3" ry="3" style="stroke:#038048;stroke-width:1.0;"/><text fill="#000000" font-family="sans-serif" font-size="11" lengthAdjust="spacing" textLength="55" x="104.5" y="765.7859">setOpen()</text><!--MD5=[320a55b0f77a8ac82b66a4ed3c3da181]
class it.polimi.ingsw.client.SendMessageToServer--><rect codeLine="40" fill="#FEFECE" filter="url(#fbfxdqpu3z02t)" height="419.3359" id="it.polimi.ingsw.client.SendMessageToServer" style="stroke:#A80036;stroke-width:1.5;" width="229" x="56.5" y="125.9426"/><ellipse cx="99.4" cy="141.9426" fill="#ADD1B2" rx="11" ry="11" style="stroke:#A80036;stroke-width:1.0;"/><path d="M101.8688,147.8176 Q101.2906,148.1301 100.65,148.2864 Q100.0094,148.4426 99.3063,148.4426 Q96.7906,148.4426 95.4781,146.7708 Q94.1656,145.0989 94.1656,141.9426 Q94.1656,138.7864 95.4781,137.1145 Q96.7906,135.4426 99.3063,135.4426 Q100.0094,135.4426 100.65,135.5989 Q101.3063,135.7551 101.8688,136.0676 L101.8688,138.8645 Q101.2281,138.2864 100.6344,138.0208 Q100.0563,137.7551 99.4156,137.7551 Q98.0719,137.7551 97.3844,138.8176 Q96.7125,139.8645 96.7125,141.9426 Q96.7125,144.0208 97.3844,145.0833 Q98.0719,146.1301 99.4156,146.1301 Q100.0563,146.1301 100.6344,145.8645 Q101.2281,145.5989 101.8688,145.0208 L101.8688,147.8176 Z " fill="#000000"/><text fill="#000000" font-family="sans-serif" font-size="12" lengthAdjust="spacing" textLength="135" x="119.6" y="146.0969">SendMessageToServer</text><line style="stroke:#A80036;stroke-width:1.5;" x1="57.5" x2="284.5" y1="157.9426" y2="157.9426"/><line style="stroke:#A80036;stroke-width:1.5;" x1="57.5" x2="284.5" y1="165.9426" y2="165.9426"/><ellipse cx="67.5" cy="176.9426" fill="#84BE84" rx="3" ry="3" style="stroke:#038048;stroke-width:1.0;"/><text fill="#000000" font-family="sans-serif" font-size="11" lengthAdjust="spacing" textLength="137" x="76.5" y="180.1531">SendMessageToServer()</text><ellipse cx="67.5" cy="189.7473" fill="#84BE84" rx="3" ry="3" style="stroke:#038048;stroke-width:1.0;"/><text fill="#000000" font-family="sans-serif" font-size="11" lengthAdjust="spacing" textLength="70" x="76.5" y="192.9578">abortInsert()</text><ellipse cx="67.5" cy="202.552" fill="#84BE84" rx="3" ry="3" style="stroke:#038048;stroke-width:1.0;"/><text fill="#000000" font-family="sans-serif" font-size="11" lengthAdjust="spacing" textLength="83" x="76.5" y="205.7625">confirmInsert()</text><ellipse cx="67.5" cy="215.3567" fill="#84BE84" rx="3" ry="3" style="stroke:#038048;stroke-width:1.0;"/><text fill="#000000" font-family="sans-serif" font-size="11" lengthAdjust="spacing" textLength="55" x="76.5" y="218.5671">endTurn()</text><ellipse cx="67.5" cy="228.1614" fill="#84BE84" rx="3" ry="3" style="stroke:#038048;stroke-width:1.0;"/><text fill="#000000" font-family="sans-serif" font-size="11" lengthAdjust="spacing" textLength="150" x="76.5" y="231.3718">insertObtainedResources()</text><ellipse cx="67.5" cy="240.9661" fill="#84BE84" rx="3" ry="3" style="stroke:#038048;stroke-width:1.0;"/><text fill="#000000" font-family="sans-serif" font-size="11" lengthAdjust="spacing" textLength="147" x="76.5" y="244.1765">sendActivateLeaderCard()</text><ellipse cx="67.5" cy="253.7708" fill="#84BE84" rx="3" ry="3" style="stroke:#038048;stroke-width:1.0;"/><text fill="#000000" font-family="sans-serif" font-size="11" lengthAdjust="spacing" textLength="146" x="76.5" y="256.9812">sendCardMarketRequest()</text><ellipse cx="67.5" cy="266.5754" fill="#84BE84" rx="3" ry="3" style="stroke:#038048;stroke-width:1.0;"/><text fill="#000000" font-family="sans-serif" font-size="11" lengthAdjust="spacing" textLength="104" x="76.5" y="269.7859">sendChosenCard()</text><ellipse cx="67.5" cy="279.3801" fill="#84BE84" rx="3" ry="3" style="stroke:#038048;stroke-width:1.0;"/><text fill="#000000" font-family="sans-serif" font-size="11" lengthAdjust="spacing" textLength="177" x="76.5" y="282.5906">sendChosenResourceLocation()</text><ellipse cx="67.5" cy="292.1848" fill="#84BE84" rx="3" ry="3" style="stroke:#038048;stroke-width:1.0;"/><text fill="#000000" font-family="sans-serif" font-size="11" lengthAdjust="spacing" textLength="129" x="76.5" y="295.3953">sendCloseConnection()</text><ellipse cx="67.5" cy="304.9895" fill="#84BE84" rx="3" ry="3" style="stroke:#038048;stroke-width:1.0;"/><text fill="#000000" font-family="sans-serif" font-size="11" lengthAdjust="spacing" textLength="143" x="76.5" y="308.2">sendDiscardLeaderCard()</text><ellipse cx="67.5" cy="317.7942" fill="#84BE84" rx="3" ry="3" style="stroke:#038048;stroke-width:1.0;"/><text fill="#000000" font-family="sans-serif" font-size="11" lengthAdjust="spacing" textLength="136" x="76.5" y="321.0046">sendDiscardResources()</text><ellipse cx="67.5" cy="330.5989" fill="#84BE84" rx="3" ry="3" style="stroke:#038048;stroke-width:1.0;"/><text fill="#000000" font-family="sans-serif" font-size="11" lengthAdjust="spacing" textLength="124" x="76.5" y="333.8093">sendInitialResources()</text><ellipse cx="67.5" cy="343.4036" fill="#84BE84" rx="3" ry="3" style="stroke:#038048;stroke-width:1.0;"/><text fill="#000000" font-family="sans-serif" font-size="11" lengthAdjust="spacing" textLength="111" x="76.5" y="346.614">sendJollyResource()</text><ellipse cx="67.5" cy="356.2083" fill="#84BE84" rx="3" ry="3" style="stroke:#038048;stroke-width:1.0;"/><text fill="#000000" font-family="sans-serif" font-size="11" lengthAdjust="spacing" textLength="79" x="76.5" y="359.4187">sendNPlayer()</text><ellipse cx="67.5" cy="369.0129" fill="#84BE84" rx="3" ry="3" style="stroke:#038048;stroke-width:1.0;"/><text fill="#000000" font-family="sans-serif" font-size="11" lengthAdjust="spacing" textLength="68" x="76.5" y="372.2234">sendName()</text><ellipse cx="67.5" cy="381.8176" fill="#84BE84" rx="3" ry="3" style="stroke:#038048;stroke-width:1.0;"/><text fill="#000000" font-family="sans-serif" font-size="11" lengthAdjust="spacing" textLength="138" x="76.5" y="385.0281">sendObtainLeaderCard()</text><ellipse cx="67.5" cy="394.6223" fill="#84BE84" rx="3" ry="3" style="stroke:#038048;stroke-width:1.0;"/><text fill="#000000" font-family="sans-serif" font-size="11" lengthAdjust="spacing" textLength="176" x="76.5" y="397.8328">sendProductionPowerRequest()</text><ellipse cx="67.5" cy="407.427" fill="#84BE84" rx="3" ry="3" style="stroke:#038048;stroke-width:1.0;"/><text fill="#000000" font-family="sans-serif" font-size="11" lengthAdjust="spacing" textLength="71" x="76.5" y="410.6375">sendReady()</text><ellipse cx="67.5" cy="420.2317" fill="#84BE84" rx="3" ry="3" style="stroke:#038048;stroke-width:1.0;"/><text fill="#000000" font-family="sans-serif" font-size="11" lengthAdjust="spacing" textLength="141" x="76.5" y="423.4421">sendReconnectedName()</text><ellipse cx="67.5" cy="433.0364" fill="#84BE84" rx="3" ry="3" style="stroke:#038048;stroke-width:1.0;"/><text fill="#000000" font-family="sans-serif" font-size="11" lengthAdjust="spacing" textLength="172" x="76.5" y="436.2468">sendResourceMarketRequest()</text><ellipse cx="67.5" cy="445.8411" fill="#84BE84" rx="3" ry="3" style="stroke:#038048;stroke-width:1.0;"/><text fill="#000000" font-family="sans-serif" font-size="11" lengthAdjust="spacing" textLength="177" x="76.5" y="449.0515">sendSelectedCardFromMarket()</text><ellipse cx="67.5" cy="458.6458" fill="#84BE84" rx="3" ry="3" style="stroke:#038048;stroke-width:1.0;"/><text fill="#000000" font-family="sans-serif" font-size="11" lengthAdjust="spacing" textLength="203" x="76.5" y="461.8562">sendSelectedResourceFromMarket()</text><ellipse cx="67.5" cy="471.4504" fill="#84BE84" rx="3" ry="3" style="stroke:#038048;stroke-width:1.0;"/><text fill="#000000" font-family="sans-serif" font-size="11" lengthAdjust="spacing" textLength="177" x="76.5" y="474.6609">sendSelectedSlotToInsertCard()</text><ellipse cx="67.5" cy="484.2551" fill="#84BE84" rx="3" ry="3" style="stroke:#038048;stroke-width:1.0;"/><text fill="#000000" font-family="sans-serif" font-size="11" lengthAdjust="spacing" textLength="150" x="76.5" y="487.4656">sendSwapDepotsRequest()</text><ellipse cx="67.5" cy="497.0598" fill="#84BE84" rx="3" ry="3" style="stroke:#038048;stroke-width:1.0;"/><text fill="#000000" font-family="sans-serif" font-size="11" lengthAdjust="spacing" textLength="86" x="76.5" y="500.2703">sendTryInsert()</text><ellipse cx="67.5" cy="509.8645" fill="#84BE84" rx="3" ry="3" style="stroke:#038048;stroke-width:1.0;"/><text fill="#000000" font-family="sans-serif" font-size="11" lengthAdjust="spacing" textLength="170" x="76.5" y="513.075">sendTryUseProductionPower()</text><ellipse cx="67.5" cy="522.6692" fill="#84BE84" rx="3" ry="3" style="stroke:#038048;stroke-width:1.0;"/><text fill="#000000" font-family="sans-serif" font-size="11" lengthAdjust="spacing" textLength="156" x="76.5" y="525.8796">sendWhiteMarbleSelection()</text><rect fill="#F24D5C" height="6" style="stroke:#C82930;stroke-width:1.0;" width="6" x="64.5" y="532.4739"/><text fill="#000000" font-family="sans-serif" font-size="11" lengthAdjust="spacing" textLength="35" x="76.5" y="538.6843">send()</text><!--MD5=[e18cfc2e5dcd6c7c75078dd0db74590c]
class it.polimi.ingsw.client.view.View--><rect fill="#FEFECE" filter="url(#fbfxdqpu3z02t)" height="48" id="it.polimi.ingsw.client.view.View" style="stroke:#A80036;stroke-width:1.5;" width="60" x="141" y="895.9426"/><ellipse cx="156" cy="911.9426" fill="#ADD1B2" rx="11" ry="11" style="stroke:#A80036;stroke-width:1.0;"/><path d="M158.4688,917.8176 Q157.8906,918.1301 157.25,918.2864 Q156.6094,918.4426 155.9063,918.4426 Q153.3906,918.4426 152.0781,916.7708 Q150.7656,915.0989 150.7656,911.9426 Q150.7656,908.7864 152.0781,907.1145 Q153.3906,905.4426 155.9063,905.4426 Q156.6094,905.4426 157.25,905.5989 Q157.9063,905.7551 158.4688,906.0676 L158.4688,908.8645 Q157.8281,908.2864 157.2344,908.0208 Q156.6563,907.7551 156.0156,907.7551 Q154.6719,907.7551 153.9844,908.8176 Q153.3125,909.8645 153.3125,911.9426 Q153.3125,914.0208 153.9844,915.0833 Q154.6719,916.1301 156.0156,916.1301 Q156.6563,916.1301 157.2344,915.8645 Q157.8281,915.5989 158.4688,915.0208 L158.4688,917.8176 Z " fill="#000000"/><text fill="#000000" font-family="sans-serif" font-size="12" lengthAdjust="spacing" textLength="28" x="170" y="916.0969">View</text><line style="stroke:#A80036;stroke-width:1.5;" x1="142" x2="200" y1="927.9426" y2="927.9426"/><line style="stroke:#A80036;stroke-width:1.5;" x1="142" x2="200" y1="935.9426" y2="935.9426"/><!--MD5=[d6d9231556ee196fffddb41ccc28b4e4]
reverse link it.polimi.ingsw.client.NetworkHandler to it.polimi.ingsw.client.view.View--><path codeLine="75" d="M171,785.2526 C171,825.3126 171,869.6226 171,895.8326 " fill="none" id="it.polimi.ingsw.client.NetworkHandler-backto-it.polimi.ingsw.client.view.View" style="stroke:#A80036;stroke-width:1.0;"/><polygon fill="#FFFFFF" points="171,772.1426,167,778.1426,171,784.1426,175,778.1426,171,772.1426" style="stroke:#A80036;stroke-width:1.0;"/><text fill="#000000" font-family="sans-serif" font-size="13" lengthAdjust="spacing" textLength="68" x="172" y="841.0095">clientView</text><!--MD5=[80ebff71fc30fa2fa7d3430c0be10f7d]
reverse link it.polimi.ingsw.client.SendMessageToServer to it.polimi.ingsw.client.NetworkHandler--><path codeLine="76" d="M171,558.1326 C171,580.8526 171,602.6226 171,621.8826 " fill="none" id="it.polimi.ingsw.client.SendMessageToServer-backto-it.polimi.ingsw.client.NetworkHandler" style="stroke:#A80036;stroke-width:1.0;"/><polygon fill="#FFFFFF" points="171,545.0426,167,551.0426,171,557.0426,175,551.0426,171,545.0426" style="stroke:#A80036;stroke-width:1.0;"/><text fill="#000000" font-family="sans-serif" font-size="13" lengthAdjust="spacing" textLength="21" x="172" y="588.0095">net</text><text fill="#888888" font-family="sans-serif" font-size="10" lengthAdjust="spacing" textLength="0" x="580" y="975.2249"/><text fill="#888888" font-family="sans-serif" font-size="10" lengthAdjust="spacing" textLength="0" x="580" y="986.8655"/><text fill="#888888" font-family="sans-serif" font-size="10" lengthAdjust="spacing" textLength="420" x="160" y="998.5061">PlantUML diagram generated by SketchIt! (https://bitbucket.org/pmesmeur/sketch.it)</text><text fill="#888888" font-family="sans-serif" font-size="10" lengthAdjust="spacing" textLength="414" x="166" y="1010.1467">For more information about this tool, please contact philippe.mesmeur@gmail.com</text><!--MD5=[5253faafbcdd7ec41d584ddc4f963b71]
@startuml

title __CLIENT's Class Diagram__\n

  namespace it.polimi.ingsw {
    namespace client {
      class it.polimi.ingsw.client.Client {
          {static} + WAIT_FOR_IP_AND_PORT : Object
          {static} + WAIT_FOR_RETRY : Object
          {static} - clientView : View
          {static} - ipAddress : String
          {static} - portNumber : int
          {static} - retry : boolean
          {static} + main()
          {static} + setIpAddress()
          {static} + setPortNumber()
          {static} + setRetry()
      }
    }
  }
  

  namespace it.polimi.ingsw {
    namespace client {
      class it.polimi.ingsw.client.NetworkHandler {
          ~ ois : ObjectInputStream
          ~ oos : ObjectOutputStream
          ~ server : Socket
          - open : boolean
          + NetworkHandler()
          + receiveMessage()
          + sendMessage()
          + setOpen()
      }
    }
  }
  

  namespace it.polimi.ingsw {
    namespace client {
      class it.polimi.ingsw.client.SendMessageToServer {
          + SendMessageToServer()
          + abortInsert()
          + confirmInsert()
          + endTurn()
          + insertObtainedResources()
          + sendActivateLeaderCard()
          + sendCardMarketRequest()
          + sendChosenCard()
          + sendChosenResourceLocation()
          + sendCloseConnection()
          + sendDiscardLeaderCard()
          + sendDiscardResources()
          + sendInitialResources()
          + sendJollyResource()
          + sendNPlayer()
          + sendName()
          + sendObtainLeaderCard()
          + sendProductionPowerRequest()
          + sendReady()
          + sendReconnectedName()
          + sendResourceMarketRequest()
          + sendSelectedCardFromMarket()
          + sendSelectedResourceFromMarket()
          + sendSelectedSlotToInsertCard()
          + sendSwapDepotsRequest()
          + sendTryInsert()
          + sendTryUseProductionPower()
          + sendWhiteMarbleSelection()
          - send()
      }
    }
  }
  

  it.polimi.ingsw.client.NetworkHandler o- - it.polimi.ingsw.client.view.View : clientView
  it.polimi.ingsw.client.SendMessageToServer o- - it.polimi.ingsw.client.NetworkHandler : net


right footer


PlantUML diagram generated by SketchIt! (https://bitbucket.org/pmesmeur/sketch.it)
For more information about this tool, please contact philippe.mesmeur@gmail.com
endfooter

@enduml

PlantUML version 1.2021.7(Sun May 23 14:40:07 CEST 2021)
(GPL source distribution)
Java Runtime: OpenJDK Runtime Environment
JVM: Dynamic Code Evolution 64-Bit Server VM
Default Encoding: UTF-8
Language: en
Country: US
--></g></svg>