<?xml version="1.0" encoding="UTF-8" standalone="no"?><svg xmlns="http://www.w3.org/2000/svg" xmlns:xlink="http://www.w3.org/1999/xlink" contentScriptType="application/ecmascript" contentStyleType="text/css" height="512px" preserveAspectRatio="none" style="width:2105px;height:512px;background:#FFFFFF;" version="1.1" viewBox="0 0 2105 512" width="2105px" zoomAndPan="magnify"><defs><filter height="300%" id="fatqrpqfspd9u" width="300%" x="-1" y="-1"><feGaussianBlur result="blurOut" stdDeviation="2.0"/><feColorMatrix in="blurOut" result="blurOut2" type="matrix" values="0 0 0 0 0 0 0 0 0 0 0 0 0 0 0 0 0 0 .4 0"/><feOffset dx="4.0" dy="4.0" in="blurOut2" result="blurOut3"/><feBlend in="SourceGraphic" in2="blurOut3" mode="normal"/></filter></defs><g><text fill="#000000" font-family="sans-serif" font-size="18" lengthAdjust="spacing" text-decoration="underline" textLength="262" x="915" y="16.7225">EXCEPTIONS's Class Diagram</text><text fill="#000000" font-family="sans-serif" font-size="18" lengthAdjust="spacing" textLength="0" x="1049" y="37.6938"/><!--MD5=[432dd831305d7709bed0fe1447e3cfc7]
cluster it.polimi.ingsw--><polygon fill="#FFFFFF" filter="url(#fatqrpqfspd9u)" points="16,47.9426,140,47.9426,147,70.2395,1494,70.2395,1494,453.9426,16,453.9426,16,47.9426" style="stroke:#000000;stroke-width:1.5;"/><line style="stroke:#000000;stroke-width:1.5;" x1="16" x2="147" y1="70.2395" y2="70.2395"/><text fill="#000000" font-family="sans-serif" font-size="14" font-weight="bold" lengthAdjust="spacing" textLength="118" x="20" y="62.9377">it.polimi.ingsw</text><!--MD5=[b74aaeb2acdd9727debe1fe0d1b17177]
cluster it.polimi.ingsw.exceptions--><polygon fill="#FFFFFF" filter="url(#fatqrpqfspd9u)" points="40,90.9426,133,90.9426,140,113.2395,1470,113.2395,1470,429.9426,40,429.9426,40,90.9426" style="stroke:#000000;stroke-width:1.5;"/><line style="stroke:#000000;stroke-width:1.5;" x1="40" x2="140" y1="113.2395" y2="113.2395"/><text fill="#000000" font-family="sans-serif" font-size="14" font-weight="bold" lengthAdjust="spacing" textLength="87" x="44" y="105.9377">exceptions</text><!--MD5=[48f7be51bd0005e6c97bce768131ca54]
cluster it.polimi.ingsw.server.Model.Enums--><polygon fill="#FFFFFF" filter="url(#fatqrpqfspd9u)" points="1786,305.4426,2078,305.4426,2085,327.7395,2088,327.7395,2088,404.4426,1786,404.4426,1786,305.4426" style="stroke:#000000;stroke-width:1.5;"/><line style="stroke:#000000;stroke-width:1.5;" x1="1786" x2="2085" y1="327.7395" y2="327.7395"/><text fill="#000000" font-family="sans-serif" font-size="14" font-weight="bold" lengthAdjust="spacing" textLength="286" x="1790" y="320.4377">it.polimi.ingsw.server.Model.Enums</text><!--MD5=[6644f379719c89a69245f782f93ed447]
cluster it.polimi.ingsw.server.Model--><polygon fill="#FFFFFF" filter="url(#fatqrpqfspd9u)" points="1518,305.4426,1752,305.4426,1759,327.7395,1762,327.7395,1762,404.4426,1518,404.4426,1518,305.4426" style="stroke:#000000;stroke-width:1.5;"/><line style="stroke:#000000;stroke-width:1.5;" x1="1518" x2="1759" y1="327.7395" y2="327.7395"/><text fill="#000000" font-family="sans-serif" font-size="14" font-weight="bold" lengthAdjust="spacing" textLength="228" x="1522" y="320.4377">it.polimi.ingsw.server.Model</text><!--MD5=[905b985a613d4882f73ecd329267569a]
class it.polimi.ingsw.exceptions.CannotActivateAbilityException--><rect codeLine="6" fill="#FEFECE" filter="url(#fatqrpqfspd9u)" height="99.2188" id="it.polimi.ingsw.exceptions.CannotActivateAbilityException" style="stroke:#A80036;stroke-width:1.5;" width="221" x="287.5" y="314.9426"/><ellipse cx="302.5" cy="330.9426" fill="#ADD1B2" rx="11" ry="11" style="stroke:#A80036;stroke-width:1.0;"/><path d="M304.9688,336.8176 Q304.3906,337.1301 303.75,337.2864 Q303.1094,337.4426 302.4063,337.4426 Q299.8906,337.4426 298.5781,335.7708 Q297.2656,334.0989 297.2656,330.9426 Q297.2656,327.7864 298.5781,326.1145 Q299.8906,324.4426 302.4063,324.4426 Q303.1094,324.4426 303.75,324.5989 Q304.4063,324.7551 304.9688,325.0676 L304.9688,327.8645 Q304.3281,327.2864 303.7344,327.0208 Q303.1563,326.7551 302.5156,326.7551 Q301.1719,326.7551 300.4844,327.8176 Q299.8125,328.8645 299.8125,330.9426 Q299.8125,333.0208 300.4844,334.0833 Q301.1719,335.1301 302.5156,335.1301 Q303.1563,335.1301 303.7344,334.8645 Q304.3281,334.5989 304.9688,334.0208 L304.9688,336.8176 Z " fill="#000000"/><text fill="#000000" font-family="sans-serif" font-size="12" lengthAdjust="spacing" textLength="189" x="316.5" y="335.0969">CannotActivateAbilityException</text><line style="stroke:#A80036;stroke-width:1.5;" x1="288.5" x2="507.5" y1="346.9426" y2="346.9426"/><polygon fill="none" points="298.5,353.9426,294.5,359.9426,302.5,359.9426" style="stroke:#1963A0;stroke-width:1.0;"/><text fill="#000000" font-family="sans-serif" font-size="11" lengthAdjust="spacing" textLength="153" x="307.5" y="361.1531">alreadyActivated : boolean</text><line style="stroke:#A80036;stroke-width:1.5;" x1="288.5" x2="507.5" y1="367.7473" y2="367.7473"/><ellipse cx="298.5" cy="378.7473" fill="#84BE84" rx="3" ry="3" style="stroke:#038048;stroke-width:1.0;"/><text fill="#000000" font-family="sans-serif" font-size="11" lengthAdjust="spacing" textLength="184" x="307.5" y="381.9578">CannotActivateAbilityException()</text><ellipse cx="298.5" cy="391.552" fill="#84BE84" rx="3" ry="3" style="stroke:#038048;stroke-width:1.0;"/><text fill="#000000" font-family="sans-serif" font-size="11" lengthAdjust="spacing" textLength="184" x="307.5" y="394.7625">CannotActivateAbilityException()</text><ellipse cx="298.5" cy="404.3567" fill="#84BE84" rx="3" ry="3" style="stroke:#038048;stroke-width:1.0;"/><text fill="#000000" font-family="sans-serif" font-size="11" lengthAdjust="spacing" textLength="114" x="307.5" y="407.5671">isAlreadyActivated()</text><!--MD5=[6efbac10eea0f99d52d12c5a0d349e91]
class it.polimi.ingsw.exceptions.CannotBuyException--><rect codeLine="18" fill="#FEFECE" filter="url(#fatqrpqfspd9u)" height="73.6094" id="it.polimi.ingsw.exceptions.CannotBuyException" style="stroke:#A80036;stroke-width:1.5;" width="158" x="56" y="144.9426"/><ellipse cx="71" cy="160.9426" fill="#ADD1B2" rx="11" ry="11" style="stroke:#A80036;stroke-width:1.0;"/><path d="M73.4688,166.8176 Q72.8906,167.1301 72.25,167.2864 Q71.6094,167.4426 70.9063,167.4426 Q68.3906,167.4426 67.0781,165.7708 Q65.7656,164.0989 65.7656,160.9426 Q65.7656,157.7864 67.0781,156.1145 Q68.3906,154.4426 70.9063,154.4426 Q71.6094,154.4426 72.25,154.5989 Q72.9063,154.7551 73.4688,155.0676 L73.4688,157.8645 Q72.8281,157.2864 72.2344,157.0208 Q71.6563,156.7551 71.0156,156.7551 Q69.6719,156.7551 68.9844,157.8176 Q68.3125,158.8645 68.3125,160.9426 Q68.3125,163.0208 68.9844,164.0833 Q69.6719,165.1301 71.0156,165.1301 Q71.6563,165.1301 72.2344,164.8645 Q72.8281,164.5989 73.4688,164.0208 L73.4688,166.8176 Z " fill="#000000"/><text fill="#000000" font-family="sans-serif" font-size="12" lengthAdjust="spacing" textLength="126" x="85" y="165.0969">CannotBuyException</text><line style="stroke:#A80036;stroke-width:1.5;" x1="57" x2="213" y1="176.9426" y2="176.9426"/><polygon fill="none" points="67,183.9426,63,189.9426,71,189.9426" style="stroke:#1963A0;stroke-width:1.0;"/><text fill="#000000" font-family="sans-serif" font-size="11" lengthAdjust="spacing" textLength="74" x="76" y="191.1531">e : Exception</text><line style="stroke:#A80036;stroke-width:1.5;" x1="57" x2="213" y1="197.7473" y2="197.7473"/><ellipse cx="67" cy="208.7473" fill="#84BE84" rx="3" ry="3" style="stroke:#038048;stroke-width:1.0;"/><text fill="#000000" font-family="sans-serif" font-size="11" lengthAdjust="spacing" textLength="125" x="76" y="211.9578">CannotBuyException()</text><!--MD5=[91c1f7ccc8c01902dac6362f5cb228c2]
class it.polimi.ingsw.exceptions.CannotInsertException--><rect codeLine="28" fill="#FEFECE" filter="url(#fatqrpqfspd9u)" height="99.2188" id="it.polimi.ingsw.exceptions.CannotInsertException" style="stroke:#A80036;stroke-width:1.5;" width="170" x="1001" y="132.4426"/><ellipse cx="1016" cy="148.4426" fill="#ADD1B2" rx="11" ry="11" style="stroke:#A80036;stroke-width:1.0;"/><path d="M1018.4688,154.3176 Q1017.8906,154.6301 1017.25,154.7864 Q1016.6094,154.9426 1015.9063,154.9426 Q1013.3906,154.9426 1012.0781,153.2708 Q1010.7656,151.5989 1010.7656,148.4426 Q1010.7656,145.2864 1012.0781,143.6145 Q1013.3906,141.9426 1015.9063,141.9426 Q1016.6094,141.9426 1017.25,142.0989 Q1017.9063,142.2551 1018.4688,142.5676 L1018.4688,145.3645 Q1017.8281,144.7864 1017.2344,144.5208 Q1016.6563,144.2551 1016.0156,144.2551 Q1014.6719,144.2551 1013.9844,145.3176 Q1013.3125,146.3645 1013.3125,148.4426 Q1013.3125,150.5208 1013.9844,151.5833 Q1014.6719,152.6301 1016.0156,152.6301 Q1016.6563,152.6301 1017.2344,152.3645 Q1017.8281,152.0989 1018.4688,151.5208 L1018.4688,154.3176 Z " fill="#000000"/><text fill="#000000" font-family="sans-serif" font-size="12" lengthAdjust="spacing" textLength="138" x="1030" y="152.5969">CannotInsertException</text><line style="stroke:#A80036;stroke-width:1.5;" x1="1002" x2="1170" y1="164.4426" y2="164.4426"/><polygon fill="none" points="1012,171.4426,1008,177.4426,1016,177.4426" style="stroke:#1963A0;stroke-width:1.0;"/><text fill="#000000" font-family="sans-serif" font-size="11" lengthAdjust="spacing" textLength="91" x="1021" y="178.6531">slotNumber : int</text><line style="stroke:#A80036;stroke-width:1.5;" x1="1002" x2="1170" y1="185.2473" y2="185.2473"/><ellipse cx="1012" cy="196.2473" fill="#84BE84" rx="3" ry="3" style="stroke:#038048;stroke-width:1.0;"/><text fill="#000000" font-family="sans-serif" font-size="11" lengthAdjust="spacing" textLength="135" x="1021" y="199.4578">CannotInsertException()</text><ellipse cx="1012" cy="209.052" fill="#84BE84" rx="3" ry="3" style="stroke:#038048;stroke-width:1.0;"/><text fill="#000000" font-family="sans-serif" font-size="11" lengthAdjust="spacing" textLength="107" x="1021" y="212.2625">getNewCardLevel()</text><ellipse cx="1012" cy="221.8567" fill="#84BE84" rx="3" ry="3" style="stroke:#038048;stroke-width:1.0;"/><text fill="#000000" font-family="sans-serif" font-size="11" lengthAdjust="spacing" textLength="92" x="1021" y="225.0671">getSlotNumber()</text><!--MD5=[1c531b4c6627089e1192bf3a56a56807]
class it.polimi.ingsw.exceptions.ConfirmDiscardResourceException--><rect codeLine="40" fill="#FEFECE" filter="url(#fatqrpqfspd9u)" height="86.4141" id="it.polimi.ingsw.exceptions.ConfirmDiscardResourceException" style="stroke:#A80036;stroke-width:1.5;" width="239" x="504.5" y="138.9426"/><ellipse cx="519.5" cy="154.9426" fill="#ADD1B2" rx="11" ry="11" style="stroke:#A80036;stroke-width:1.0;"/><path d="M521.9688,160.8176 Q521.3906,161.1301 520.75,161.2864 Q520.1094,161.4426 519.4063,161.4426 Q516.8906,161.4426 515.5781,159.7708 Q514.2656,158.0989 514.2656,154.9426 Q514.2656,151.7864 515.5781,150.1145 Q516.8906,148.4426 519.4063,148.4426 Q520.1094,148.4426 520.75,148.5989 Q521.4063,148.7551 521.9688,149.0676 L521.9688,151.8645 Q521.3281,151.2864 520.7344,151.0208 Q520.1563,150.7551 519.5156,150.7551 Q518.1719,150.7551 517.4844,151.8176 Q516.8125,152.8645 516.8125,154.9426 Q516.8125,157.0208 517.4844,158.0833 Q518.1719,159.1301 519.5156,159.1301 Q520.1563,159.1301 520.7344,158.8645 Q521.3281,158.5989 521.9688,158.0208 L521.9688,160.8176 Z " fill="#000000"/><text fill="#000000" font-family="sans-serif" font-size="12" lengthAdjust="spacing" textLength="207" x="533.5" y="159.0969">ConfirmDiscardResourceException</text><line style="stroke:#A80036;stroke-width:1.5;" x1="505.5" x2="742.5" y1="170.9426" y2="170.9426"/><polygon fill="none" points="515.5,177.9426,511.5,183.9426,519.5,183.9426" style="stroke:#1963A0;stroke-width:1.0;"/><text fill="#000000" font-family="sans-serif" font-size="11" lengthAdjust="spacing" textLength="96" x="524.5" y="185.1531">resourceQty : int</text><line style="stroke:#A80036;stroke-width:1.5;" x1="505.5" x2="742.5" y1="191.7473" y2="191.7473"/><ellipse cx="515.5" cy="202.7473" fill="#84BE84" rx="3" ry="3" style="stroke:#038048;stroke-width:1.0;"/><text fill="#000000" font-family="sans-serif" font-size="11" lengthAdjust="spacing" textLength="203" x="524.5" y="205.9578">ConfirmDiscardResourceException()</text><ellipse cx="515.5" cy="215.552" fill="#84BE84" rx="3" ry="3" style="stroke:#038048;stroke-width:1.0;"/><text fill="#000000" font-family="sans-serif" font-size="11" lengthAdjust="spacing" textLength="99" x="524.5" y="218.7625">getResourceQty()</text><!--MD5=[49b20eea116c0c1d5d53ba22e71e2665]
class it.polimi.ingsw.exceptions.DepotNotFoundException--><rect codeLine="51" fill="#FEFECE" filter="url(#fatqrpqfspd9u)" height="60.8047" id="it.polimi.ingsw.exceptions.DepotNotFoundException" style="stroke:#A80036;stroke-width:1.5;" width="187" x="778.5" y="151.4426"/><ellipse cx="793.5" cy="167.4426" fill="#ADD1B2" rx="11" ry="11" style="stroke:#A80036;stroke-width:1.0;"/><path d="M795.9688,173.3176 Q795.3906,173.6301 794.75,173.7864 Q794.1094,173.9426 793.4063,173.9426 Q790.8906,173.9426 789.5781,172.2708 Q788.2656,170.5989 788.2656,167.4426 Q788.2656,164.2864 789.5781,162.6145 Q790.8906,160.9426 793.4063,160.9426 Q794.1094,160.9426 794.75,161.0989 Q795.4063,161.2551 795.9688,161.5676 L795.9688,164.3645 Q795.3281,163.7864 794.7344,163.5208 Q794.1563,163.2551 793.5156,163.2551 Q792.1719,163.2551 791.4844,164.3176 Q790.8125,165.3645 790.8125,167.4426 Q790.8125,169.5208 791.4844,170.5833 Q792.1719,171.6301 793.5156,171.6301 Q794.1563,171.6301 794.7344,171.3645 Q795.3281,171.0989 795.9688,170.5208 L795.9688,173.3176 Z " fill="#000000"/><text fill="#000000" font-family="sans-serif" font-size="12" lengthAdjust="spacing" textLength="155" x="807.5" y="171.5969">DepotNotFoundException</text><line style="stroke:#A80036;stroke-width:1.5;" x1="779.5" x2="964.5" y1="183.4426" y2="183.4426"/><line style="stroke:#A80036;stroke-width:1.5;" x1="779.5" x2="964.5" y1="191.4426" y2="191.4426"/><ellipse cx="789.5" cy="202.4426" fill="#84BE84" rx="3" ry="3" style="stroke:#038048;stroke-width:1.0;"/><text fill="#000000" font-family="sans-serif" font-size="11" lengthAdjust="spacing" textLength="149" x="798.5" y="205.6531">DepotNotFoundException()</text><!--MD5=[a1279d6f8c325fa1c870c16a3a0045f4]
class it.polimi.ingsw.exceptions.IllegalDepotResourceTypeException--><rect codeLine="60" fill="#FEFECE" filter="url(#fatqrpqfspd9u)" height="112.0234" id="it.polimi.ingsw.exceptions.IllegalDepotResourceTypeException" style="stroke:#A80036;stroke-width:1.5;" width="247" x="1206.5" y="125.9426"/><ellipse cx="1221.5" cy="141.9426" fill="#ADD1B2" rx="11" ry="11" style="stroke:#A80036;stroke-width:1.0;"/><path d="M1223.9688,147.8176 Q1223.3906,148.1301 1222.75,148.2864 Q1222.1094,148.4426 1221.4063,148.4426 Q1218.8906,148.4426 1217.5781,146.7708 Q1216.2656,145.0989 1216.2656,141.9426 Q1216.2656,138.7864 1217.5781,137.1145 Q1218.8906,135.4426 1221.4063,135.4426 Q1222.1094,135.4426 1222.75,135.5989 Q1223.4063,135.7551 1223.9688,136.0676 L1223.9688,138.8645 Q1223.3281,138.2864 1222.7344,138.0208 Q1222.1563,137.7551 1221.5156,137.7551 Q1220.1719,137.7551 1219.4844,138.8176 Q1218.8125,139.8645 1218.8125,141.9426 Q1218.8125,144.0208 1219.4844,145.0833 Q1220.1719,146.1301 1221.5156,146.1301 Q1222.1563,146.1301 1222.7344,145.8645 Q1223.3281,145.5989 1223.9688,145.0208 L1223.9688,147.8176 Z " fill="#000000"/><text fill="#000000" font-family="sans-serif" font-size="12" lengthAdjust="spacing" textLength="215" x="1235.5" y="146.0969">IllegalDepotResourceTypeException</text><line style="stroke:#A80036;stroke-width:1.5;" x1="1207.5" x2="1452.5" y1="157.9426" y2="157.9426"/><rect fill="none" height="6" style="stroke:#C82930;stroke-width:1.0;" width="6" x="1214.5" y="165.9426"/><text fill="#000000" font-family="sans-serif" font-size="11" lengthAdjust="spacing" textLength="194" x="1226.5" y="172.1531">resourceAlreadyPresent : boolean</text><line style="stroke:#A80036;stroke-width:1.5;" x1="1207.5" x2="1452.5" y1="178.7473" y2="178.7473"/><ellipse cx="1217.5" cy="189.7473" fill="#84BE84" rx="3" ry="3" style="stroke:#038048;stroke-width:1.0;"/><text fill="#000000" font-family="sans-serif" font-size="11" lengthAdjust="spacing" textLength="210" x="1226.5" y="192.9578">IllegalDepotResourceTypeException()</text><ellipse cx="1217.5" cy="202.552" fill="#84BE84" rx="3" ry="3" style="stroke:#038048;stroke-width:1.0;"/><text fill="#000000" font-family="sans-serif" font-size="11" lengthAdjust="spacing" textLength="210" x="1226.5" y="205.7625">IllegalDepotResourceTypeException()</text><ellipse cx="1217.5" cy="215.3567" fill="#84BE84" rx="3" ry="3" style="stroke:#038048;stroke-width:1.0;"/><text fill="#000000" font-family="sans-serif" font-size="11" lengthAdjust="spacing" textLength="142" x="1226.5" y="218.5671">getActualResourceType()</text><ellipse cx="1217.5" cy="228.1614" fill="#84BE84" rx="3" ry="3" style="stroke:#038048;stroke-width:1.0;"/><text fill="#000000" font-family="sans-serif" font-size="11" lengthAdjust="spacing" textLength="157" x="1226.5" y="231.3718">isResourceAlreadyPresent()</text><!--MD5=[f97dab32d36ea02622b7789efb0aba71]
class it.polimi.ingsw.exceptions.IllegalDepotSwapException--><rect codeLine="73" fill="#FEFECE" filter="url(#fatqrpqfspd9u)" height="60.8047" id="it.polimi.ingsw.exceptions.IllegalDepotSwapException" style="stroke:#A80036;stroke-width:1.5;" width="196" x="56" y="333.9426"/><ellipse cx="71" cy="349.9426" fill="#ADD1B2" rx="11" ry="11" style="stroke:#A80036;stroke-width:1.0;"/><path d="M73.4688,355.8176 Q72.8906,356.1301 72.25,356.2864 Q71.6094,356.4426 70.9063,356.4426 Q68.3906,356.4426 67.0781,354.7708 Q65.7656,353.0989 65.7656,349.9426 Q65.7656,346.7864 67.0781,345.1145 Q68.3906,343.4426 70.9063,343.4426 Q71.6094,343.4426 72.25,343.5989 Q72.9063,343.7551 73.4688,344.0676 L73.4688,346.8645 Q72.8281,346.2864 72.2344,346.0208 Q71.6563,345.7551 71.0156,345.7551 Q69.6719,345.7551 68.9844,346.8176 Q68.3125,347.8645 68.3125,349.9426 Q68.3125,352.0208 68.9844,353.0833 Q69.6719,354.1301 71.0156,354.1301 Q71.6563,354.1301 72.2344,353.8645 Q72.8281,353.5989 73.4688,353.0208 L73.4688,355.8176 Z " fill="#000000"/><text fill="#000000" font-family="sans-serif" font-size="12" lengthAdjust="spacing" textLength="164" x="85" y="354.0969">IllegalDepotSwapException</text><line style="stroke:#A80036;stroke-width:1.5;" x1="57" x2="251" y1="365.9426" y2="365.9426"/><line style="stroke:#A80036;stroke-width:1.5;" x1="57" x2="251" y1="373.9426" y2="373.9426"/><ellipse cx="67" cy="384.9426" fill="#84BE84" rx="3" ry="3" style="stroke:#038048;stroke-width:1.0;"/><text fill="#000000" font-family="sans-serif" font-size="11" lengthAdjust="spacing" textLength="159" x="76" y="388.1531">IllegalDepotSwapException()</text><!--MD5=[f2b48bc2ebf73c8ee1fef1bb33f0f74a]
class it.polimi.ingsw.exceptions.MaxLeaderCardsException--><rect codeLine="82" fill="#FEFECE" filter="url(#fatqrpqfspd9u)" height="60.8047" id="it.polimi.ingsw.exceptions.MaxLeaderCardsException" style="stroke:#A80036;stroke-width:1.5;" width="191" x="543.5" y="333.9426"/><ellipse cx="558.5" cy="349.9426" fill="#ADD1B2" rx="11" ry="11" style="stroke:#A80036;stroke-width:1.0;"/><path d="M560.9688,355.8176 Q560.3906,356.1301 559.75,356.2864 Q559.1094,356.4426 558.4063,356.4426 Q555.8906,356.4426 554.5781,354.7708 Q553.2656,353.0989 553.2656,349.9426 Q553.2656,346.7864 554.5781,345.1145 Q555.8906,343.4426 558.4063,343.4426 Q559.1094,343.4426 559.75,343.5989 Q560.4063,343.7551 560.9688,344.0676 L560.9688,346.8645 Q560.3281,346.2864 559.7344,346.0208 Q559.1563,345.7551 558.5156,345.7551 Q557.1719,345.7551 556.4844,346.8176 Q555.8125,347.8645 555.8125,349.9426 Q555.8125,352.0208 556.4844,353.0833 Q557.1719,354.1301 558.5156,354.1301 Q559.1563,354.1301 559.7344,353.8645 Q560.3281,353.5989 560.9688,353.0208 L560.9688,355.8176 Z " fill="#000000"/><text fill="#000000" font-family="sans-serif" font-size="12" lengthAdjust="spacing" textLength="159" x="572.5" y="354.0969">MaxLeaderCardsException</text><line style="stroke:#A80036;stroke-width:1.5;" x1="544.5" x2="733.5" y1="365.9426" y2="365.9426"/><line style="stroke:#A80036;stroke-width:1.5;" x1="544.5" x2="733.5" y1="373.9426" y2="373.9426"/><ellipse cx="554.5" cy="384.9426" fill="#84BE84" rx="3" ry="3" style="stroke:#038048;stroke-width:1.0;"/><text fill="#000000" font-family="sans-serif" font-size="11" lengthAdjust="spacing" textLength="158" x="563.5" y="388.1531">MaxLeaderCardsException()</text><!--MD5=[14a97092ae50c49b71c2c3f2bfc9ac7f]
class it.polimi.ingsw.exceptions.MissingRequirementsException--><rect codeLine="91" fill="#FEFECE" filter="url(#fatqrpqfspd9u)" height="86.4141" id="it.polimi.ingsw.exceptions.MissingRequirementsException" style="stroke:#A80036;stroke-width:1.5;" width="220" x="249" y="138.9426"/><ellipse cx="264" cy="154.9426" fill="#ADD1B2" rx="11" ry="11" style="stroke:#A80036;stroke-width:1.0;"/><path d="M266.4688,160.8176 Q265.8906,161.1301 265.25,161.2864 Q264.6094,161.4426 263.9063,161.4426 Q261.3906,161.4426 260.0781,159.7708 Q258.7656,158.0989 258.7656,154.9426 Q258.7656,151.7864 260.0781,150.1145 Q261.3906,148.4426 263.9063,148.4426 Q264.6094,148.4426 265.25,148.5989 Q265.9063,148.7551 266.4688,149.0676 L266.4688,151.8645 Q265.8281,151.2864 265.2344,151.0208 Q264.6563,150.7551 264.0156,150.7551 Q262.6719,150.7551 261.9844,151.8176 Q261.3125,152.8645 261.3125,154.9426 Q261.3125,157.0208 261.9844,158.0833 Q262.6719,159.1301 264.0156,159.1301 Q264.6563,159.1301 265.2344,158.8645 Q265.8281,158.5989 266.4688,158.0208 L266.4688,160.8176 Z " fill="#000000"/><text fill="#000000" font-family="sans-serif" font-size="12" lengthAdjust="spacing" textLength="188" x="278" y="159.0969">MissingRequirementsException</text><line style="stroke:#A80036;stroke-width:1.5;" x1="250" x2="468" y1="170.9426" y2="170.9426"/><polygon fill="none" points="260,177.9426,256,183.9426,264,183.9426" style="stroke:#1963A0;stroke-width:1.0;"/><text fill="#000000" font-family="sans-serif" font-size="11" lengthAdjust="spacing" textLength="169" x="269" y="185.1531">requirements : Requirement[]</text><line style="stroke:#A80036;stroke-width:1.5;" x1="250" x2="468" y1="191.7473" y2="191.7473"/><ellipse cx="260" cy="202.7473" fill="#84BE84" rx="3" ry="3" style="stroke:#038048;stroke-width:1.0;"/><text fill="#000000" font-family="sans-serif" font-size="11" lengthAdjust="spacing" textLength="183" x="269" y="205.9578">MissingRequirementsException()</text><ellipse cx="260" cy="215.552" fill="#84BE84" rx="3" ry="3" style="stroke:#038048;stroke-width:1.0;"/><text fill="#000000" font-family="sans-serif" font-size="11" lengthAdjust="spacing" textLength="146" x="269" y="218.7625">getMissingRequirements()</text><!--MD5=[3c66836a88808b74e27364b16b908da8]
class it.polimi.ingsw.exceptions.ResourceNotAvailableException--><rect codeLine="102" fill="#FEFECE" filter="url(#fatqrpqfspd9u)" height="60.8047" id="it.polimi.ingsw.exceptions.ResourceNotAvailableException" style="stroke:#A80036;stroke-width:1.5;" width="221" x="769.5" y="333.9426"/><ellipse cx="784.5" cy="349.9426" fill="#ADD1B2" rx="11" ry="11" style="stroke:#A80036;stroke-width:1.0;"/><path d="M786.9688,355.8176 Q786.3906,356.1301 785.75,356.2864 Q785.1094,356.4426 784.4063,356.4426 Q781.8906,356.4426 780.5781,354.7708 Q779.2656,353.0989 779.2656,349.9426 Q779.2656,346.7864 780.5781,345.1145 Q781.8906,343.4426 784.4063,343.4426 Q785.1094,343.4426 785.75,343.5989 Q786.4063,343.7551 786.9688,344.0676 L786.9688,346.8645 Q786.3281,346.2864 785.7344,346.0208 Q785.1563,345.7551 784.5156,345.7551 Q783.1719,345.7551 782.4844,346.8176 Q781.8125,347.8645 781.8125,349.9426 Q781.8125,352.0208 782.4844,353.0833 Q783.1719,354.1301 784.5156,354.1301 Q785.1563,354.1301 785.7344,353.8645 Q786.3281,353.5989 786.9688,353.0208 L786.9688,355.8176 Z " fill="#000000"/><text fill="#000000" font-family="sans-serif" font-size="12" lengthAdjust="spacing" textLength="189" x="798.5" y="354.0969">ResourceNotAvailableException</text><line style="stroke:#A80036;stroke-width:1.5;" x1="770.5" x2="989.5" y1="365.9426" y2="365.9426"/><line style="stroke:#A80036;stroke-width:1.5;" x1="770.5" x2="989.5" y1="373.9426" y2="373.9426"/><ellipse cx="780.5" cy="384.9426" fill="#84BE84" rx="3" ry="3" style="stroke:#038048;stroke-width:1.0;"/><text fill="#000000" font-family="sans-serif" font-size="11" lengthAdjust="spacing" textLength="187" x="789.5" y="388.1531">ResourceNotAvailableException()</text><!--MD5=[9ddd7617f27c0fd785e7e2336786fa65]
class it.polimi.ingsw.server.Model.Enums.LevelEnum--><rect fill="#FEFECE" filter="url(#fatqrpqfspd9u)" height="48" id="it.polimi.ingsw.server.Model.Enums.LevelEnum" style="stroke:#A80036;stroke-width:1.5;" width="99" x="1802.5" y="340.4426"/><ellipse cx="1817.5" cy="356.4426" fill="#ADD1B2" rx="11" ry="11" style="stroke:#A80036;stroke-width:1.0;"/><path d="M1819.9688,362.3176 Q1819.3906,362.6301 1818.75,362.7864 Q1818.1094,362.9426 1817.4063,362.9426 Q1814.8906,362.9426 1813.5781,361.2708 Q1812.2656,359.5989 1812.2656,356.4426 Q1812.2656,353.2864 1813.5781,351.6145 Q1814.8906,349.9426 1817.4063,349.9426 Q1818.1094,349.9426 1818.75,350.0989 Q1819.4063,350.2551 1819.9688,350.5676 L1819.9688,353.3645 Q1819.3281,352.7864 1818.7344,352.5208 Q1818.1563,352.2551 1817.5156,352.2551 Q1816.1719,352.2551 1815.4844,353.3176 Q1814.8125,354.3645 1814.8125,356.4426 Q1814.8125,358.5208 1815.4844,359.5833 Q1816.1719,360.6301 1817.5156,360.6301 Q1818.1563,360.6301 1818.7344,360.3645 Q1819.3281,360.0989 1819.9688,359.5208 L1819.9688,362.3176 Z " fill="#000000"/><text fill="#000000" font-family="sans-serif" font-size="12" lengthAdjust="spacing" textLength="67" x="1831.5" y="360.5969">LevelEnum</text><line style="stroke:#A80036;stroke-width:1.5;" x1="1803.5" x2="1900.5" y1="372.4426" y2="372.4426"/><line style="stroke:#A80036;stroke-width:1.5;" x1="1803.5" x2="1900.5" y1="380.4426" y2="380.4426"/><!--MD5=[61e2b70fc86cd1fbbb8a31d82e121482]
class it.polimi.ingsw.server.Model.Enums.ResourceEnum--><rect fill="#FEFECE" filter="url(#fatqrpqfspd9u)" height="48" id="it.polimi.ingsw.server.Model.Enums.ResourceEnum" style="stroke:#A80036;stroke-width:1.5;" width="123" x="1936.5" y="340.4426"/><ellipse cx="1951.5" cy="356.4426" fill="#ADD1B2" rx="11" ry="11" style="stroke:#A80036;stroke-width:1.0;"/><path d="M1953.9688,362.3176 Q1953.3906,362.6301 1952.75,362.7864 Q1952.1094,362.9426 1951.4063,362.9426 Q1948.8906,362.9426 1947.5781,361.2708 Q1946.2656,359.5989 1946.2656,356.4426 Q1946.2656,353.2864 1947.5781,351.6145 Q1948.8906,349.9426 1951.4063,349.9426 Q1952.1094,349.9426 1952.75,350.0989 Q1953.4063,350.2551 1953.9688,350.5676 L1953.9688,353.3645 Q1953.3281,352.7864 1952.7344,352.5208 Q1952.1563,352.2551 1951.5156,352.2551 Q1950.1719,352.2551 1949.4844,353.3176 Q1948.8125,354.3645 1948.8125,356.4426 Q1948.8125,358.5208 1949.4844,359.5833 Q1950.1719,360.6301 1951.5156,360.6301 Q1952.1563,360.6301 1952.7344,360.3645 Q1953.3281,360.0989 1953.9688,359.5208 L1953.9688,362.3176 Z " fill="#000000"/><text fill="#000000" font-family="sans-serif" font-size="12" lengthAdjust="spacing" textLength="91" x="1965.5" y="360.5969">ResourceEnum</text><line style="stroke:#A80036;stroke-width:1.5;" x1="1937.5" x2="2058.5" y1="372.4426" y2="372.4426"/><line style="stroke:#A80036;stroke-width:1.5;" x1="1937.5" x2="2058.5" y1="380.4426" y2="380.4426"/><!--MD5=[92b9e669afa5db438fed6e28d7093e4a]
class it.polimi.ingsw.server.Model.Player--><rect fill="#FEFECE" filter="url(#fatqrpqfspd9u)" height="48" id="it.polimi.ingsw.server.Model.Player" style="stroke:#A80036;stroke-width:1.5;" width="68" x="1534" y="340.4426"/><ellipse cx="1549" cy="356.4426" fill="#ADD1B2" rx="11" ry="11" style="stroke:#A80036;stroke-width:1.0;"/><path d="M1551.4688,362.3176 Q1550.8906,362.6301 1550.25,362.7864 Q1549.6094,362.9426 1548.9063,362.9426 Q1546.3906,362.9426 1545.0781,361.2708 Q1543.7656,359.5989 1543.7656,356.4426 Q1543.7656,353.2864 1545.0781,351.6145 Q1546.3906,349.9426 1548.9063,349.9426 Q1549.6094,349.9426 1550.25,350.0989 Q1550.9063,350.2551 1551.4688,350.5676 L1551.4688,353.3645 Q1550.8281,352.7864 1550.2344,352.5208 Q1549.6563,352.2551 1549.0156,352.2551 Q1547.6719,352.2551 1546.9844,353.3176 Q1546.3125,354.3645 1546.3125,356.4426 Q1546.3125,358.5208 1546.9844,359.5833 Q1547.6719,360.6301 1549.0156,360.6301 Q1549.6563,360.6301 1550.2344,360.3645 Q1550.8281,360.0989 1551.4688,359.5208 L1551.4688,362.3176 Z " fill="#000000"/><text fill="#000000" font-family="sans-serif" font-size="12" lengthAdjust="spacing" textLength="36" x="1563" y="360.5969">Player</text><line style="stroke:#A80036;stroke-width:1.5;" x1="1535" x2="1601" y1="372.4426" y2="372.4426"/><line style="stroke:#A80036;stroke-width:1.5;" x1="1535" x2="1601" y1="380.4426" y2="380.4426"/><!--MD5=[0c2de782f74b4d60eba0e2e83578b1a3]
reverse link it.polimi.ingsw.exceptions.MissingRequirementsException to it.polimi.ingsw.exceptions.CannotActivateAbilityException--><path codeLine="109" d="M372.38,244.8626 C377.31,267.6826 382.82,293.1926 387.47,314.6826 " fill="none" id="it.polimi.ingsw.exceptions.MissingRequirementsException-backto-it.polimi.ingsw.exceptions.CannotActivateAbilityException" style="stroke:#A80036;stroke-width:1.0;"/><polygon fill="none" points="365.53,246.2926,368.14,225.2626,379.21,243.3326,365.53,246.2926" style="stroke:#A80036;stroke-width:1.0;"/><!--MD5=[f3c6ef04c4bf104413216f6d2d53340c]
reverse link it.polimi.ingsw.exceptions.CannotInsertException to it.polimi.ingsw.server.Model.Enums.LevelEnum--><path codeLine="110" d="M1183.47,236.0626 C1185.32,236.7126 1187.16,237.3426 1189,237.9426 C1372.07,297.4226 1429.59,258.0026 1618,297.4426 C1682.45,310.9326 1755.25,332.4926 1802.28,347.2726 " fill="none" id="it.polimi.ingsw.exceptions.CannotInsertException-backto-it.polimi.ingsw.server.Model.Enums.LevelEnum" style="stroke:#A80036;stroke-width:1.0;"/><polygon fill="#FFFFFF" points="1171.27,231.3426,1175.4253,237.2361,1182.4637,235.6672,1178.3083,229.7737,1171.27,231.3426" style="stroke:#A80036;stroke-width:1.0;"/><text fill="#000000" font-family="sans-serif" font-size="13" lengthAdjust="spacing" textLength="92" x="1537" y="281.0095">newCardLevel</text><!--MD5=[070f1a7f6fc756bc32c93c6e38bc8bd1]
reverse link it.polimi.ingsw.exceptions.IllegalDepotResourceTypeException to it.polimi.ingsw.server.Model.Enums.ResourceEnum--><path codeLine="111" d="M1466.98,190.1726 C1590.38,201.0926 1774.12,228.5226 1919,297.4426 C1940.95,307.8826 1961.87,325.8526 1976.67,340.4126 " fill="none" id="it.polimi.ingsw.exceptions.IllegalDepotResourceTypeException-backto-it.polimi.ingsw.server.Model.Enums.ResourceEnum" style="stroke:#A80036;stroke-width:1.0;"/><polygon fill="#FFFFFF" points="1453.73,189.0426,1459.3697,193.5364,1465.6869,190.0588,1460.0472,185.5651,1453.73,189.0426" style="stroke:#A80036;stroke-width:1.0;"/><text fill="#000000" font-family="sans-serif" font-size="13" lengthAdjust="spacing" textLength="56" x="1890" y="281.0095">resource</text><!--MD5=[8f57eb11b966e0f737d3afc42fbab58e]
reverse link it.polimi.ingsw.exceptions.MissingRequirementsException to it.polimi.ingsw.server.Model.Player--><path codeLine="112" d="M458.51,229.5626 C468,232.8326 477.59,235.7126 487,237.9426 C500.31,241.1026 1457.05,293.0526 1470,297.4426 C1497.01,306.5926 1523.58,325.2626 1542.22,340.4226 " fill="none" id="it.polimi.ingsw.exceptions.MissingRequirementsException-backto-it.polimi.ingsw.server.Model.Player" style="stroke:#A80036;stroke-width:1.0;"/><polygon fill="#FFFFFF" points="446.12,225.0726,450.3994,230.8766,457.4029,229.1587,453.1235,223.3547,446.12,225.0726" style="stroke:#A80036;stroke-width:1.0;"/><text fill="#000000" font-family="sans-serif" font-size="13" lengthAdjust="spacing" textLength="8" x="1279" y="281.0095">p</text><!--MD5=[f3ceb32bd1496a99eb7228487969b74f]
link it.polimi.ingsw.exceptions.CannotBuyException to it.polimi.ingsw.exceptions.ConfirmDiscardResourceException--><!--MD5=[e17c386a7815426eeb4db40d7321c9ab]
link it.polimi.ingsw.exceptions.ConfirmDiscardResourceException to it.polimi.ingsw.exceptions.DepotNotFoundException--><!--MD5=[0eeb6acb84e3b5ec778dc8394c960757]
link it.polimi.ingsw.exceptions.CannotBuyException to it.polimi.ingsw.exceptions.IllegalDepotSwapException--><!--MD5=[059ccca8203ee8cde9ab6045fd3794f8]
link it.polimi.ingsw.exceptions.IllegalDepotSwapException to it.polimi.ingsw.exceptions.MaxLeaderCardsException--><!--MD5=[4eb5a1c886a213793c7beb28907a30b2]
link it.polimi.ingsw.exceptions.MaxLeaderCardsException to it.polimi.ingsw.exceptions.ResourceNotAvailableException--><text fill="#888888" font-family="sans-serif" font-size="10" lengthAdjust="spacing" textLength="0" x="2092" y="469.2249"/><text fill="#888888" font-family="sans-serif" font-size="10" lengthAdjust="spacing" textLength="0" x="2092" y="480.8655"/><text fill="#888888" font-family="sans-serif" font-size="10" lengthAdjust="spacing" textLength="420" x="1672" y="492.5061">PlantUML diagram generated by SketchIt! (https://bitbucket.org/pmesmeur/sketch.it)</text><text fill="#888888" font-family="sans-serif" font-size="10" lengthAdjust="spacing" textLength="414" x="1678" y="504.1467">For more information about this tool, please contact philippe.mesmeur@gmail.com</text><!--MD5=[23e5804005aef16ac1ca7b52a96f5fee]
@startuml

title __EXCEPTIONS's Class Diagram__\n

  namespace it.polimi.ingsw {
    namespace exceptions {
      class it.polimi.ingsw.exceptions.CannotActivateAbilityException {
          ~ alreadyActivated : boolean
          + CannotActivateAbilityException()
          + CannotActivateAbilityException()
          + isAlreadyActivated()
      }
    }
  }
  

  namespace it.polimi.ingsw {
    namespace exceptions {
      class it.polimi.ingsw.exceptions.CannotBuyException {
          ~ e : Exception
          + CannotBuyException()
      }
    }
  }
  

  namespace it.polimi.ingsw {
    namespace exceptions {
      class it.polimi.ingsw.exceptions.CannotInsertException {
          ~ slotNumber : int
          + CannotInsertException()
          + getNewCardLevel()
          + getSlotNumber()
      }
    }
  }
  

  namespace it.polimi.ingsw {
    namespace exceptions {
      class it.polimi.ingsw.exceptions.ConfirmDiscardResourceException {
          ~ resourceQty : int
          + ConfirmDiscardResourceException()
          + getResourceQty()
      }
    }
  }
  

  namespace it.polimi.ingsw {
    namespace exceptions {
      class it.polimi.ingsw.exceptions.DepotNotFoundException {
          + DepotNotFoundException()
      }
    }
  }
  

  namespace it.polimi.ingsw {
    namespace exceptions {
      class it.polimi.ingsw.exceptions.IllegalDepotResourceTypeException {
          - resourceAlreadyPresent : boolean
          + IllegalDepotResourceTypeException()
          + IllegalDepotResourceTypeException()
          + getActualResourceType()
          + isResourceAlreadyPresent()
      }
    }
  }
  

  namespace it.polimi.ingsw {
    namespace exceptions {
      class it.polimi.ingsw.exceptions.IllegalDepotSwapException {
          + IllegalDepotSwapException()
      }
    }
  }
  

  namespace it.polimi.ingsw {
    namespace exceptions {
      class it.polimi.ingsw.exceptions.MaxLeaderCardsException {
          + MaxLeaderCardsException()
      }
    }
  }
  

  namespace it.polimi.ingsw {
    namespace exceptions {
      class it.polimi.ingsw.exceptions.MissingRequirementsException {
          ~ requirements : Requirement[]
          + MissingRequirementsException()
          + getMissingRequirements()
      }
    }
  }
  

  namespace it.polimi.ingsw {
    namespace exceptions {
      class it.polimi.ingsw.exceptions.ResourceNotAvailableException {
          + ResourceNotAvailableException()
      }
    }
  }
  

  it.polimi.ingsw.exceptions.CannotActivateAbilityException -up-|> it.polimi.ingsw.exceptions.MissingRequirementsException
  it.polimi.ingsw.exceptions.CannotInsertException o- - it.polimi.ingsw.server.Model.Enums.LevelEnum : newCardLevel
  it.polimi.ingsw.exceptions.IllegalDepotResourceTypeException o- - it.polimi.ingsw.server.Model.Enums.ResourceEnum : resource
  it.polimi.ingsw.exceptions.MissingRequirementsException o- - it.polimi.ingsw.server.Model.Player : p


right footer


PlantUML diagram generated by SketchIt! (https://bitbucket.org/pmesmeur/sketch.it)
For more information about this tool, please contact philippe.mesmeur@gmail.com
endfooter

@enduml

PlantUML version 1.2021.7(Sun May 23 14:40:07 CEST 2021)
(GPL source distribution)
Java Runtime: OpenJDK Runtime Environment
JVM: Dynamic Code Evolution 64-Bit Server VM
Default Encoding: UTF-8
Language: en
Country: US
--></g></svg>