<?xml version="1.0" encoding="UTF-8" standalone="no"?><svg xmlns="http://www.w3.org/2000/svg" xmlns:xlink="http://www.w3.org/1999/xlink" contentScriptType="application/ecmascript" contentStyleType="text/css" height="906px" preserveAspectRatio="none" style="width:791px;height:906px;background:#FFFFFF;" version="1.1" viewBox="0 0 791 906" width="791px" zoomAndPan="magnify"><defs><filter height="300%" id="fes9e9t3cdred" width="300%" x="-1" y="-1"><feGaussianBlur result="blurOut" stdDeviation="2.0"/><feColorMatrix in="blurOut" result="blurOut2" type="matrix" values="0 0 0 0 0 0 0 0 0 0 0 0 0 0 0 0 0 0 .4 0"/><feOffset dx="4.0" dy="4.0" in="blurOut2" result="blurOut3"/><feBlend in="SourceGraphic" in2="blurOut3" mode="normal"/></filter></defs><g><text fill="#000000" font-family="sans-serif" font-size="18" lengthAdjust="spacing" text-decoration="underline" textLength="263" x="257.5" y="16.7225">FAITHTRACK's Class Diagram</text><text fill="#000000" font-family="sans-serif" font-size="18" lengthAdjust="spacing" textLength="0" x="392" y="37.6938"/><!--MD5=[432dd831305d7709bed0fe1447e3cfc7]
cluster it.polimi.ingsw--><polygon fill="#FFFFFF" filter="url(#fes9e9t3cdred)" points="16,179.9426,140,179.9426,147,202.2395,774,202.2395,774,722.9426,16,722.9426,16,179.9426" style="stroke:#000000;stroke-width:1.5;"/><line style="stroke:#000000;stroke-width:1.5;" x1="16" x2="147" y1="202.2395" y2="202.2395"/><text fill="#000000" font-family="sans-serif" font-size="14" font-weight="bold" lengthAdjust="spacing" textLength="118" x="20" y="194.9377">it.polimi.ingsw</text><!--MD5=[6ff9cca172c9c23be7720fa07ee26538]
cluster it.polimi.ingsw.server--><polygon fill="#FFFFFF" filter="url(#fes9e9t3cdred)" points="40,222.9426,97,222.9426,104,245.2395,750,245.2395,750,698.9426,40,698.9426,40,222.9426" style="stroke:#000000;stroke-width:1.5;"/><line style="stroke:#000000;stroke-width:1.5;" x1="40" x2="104" y1="245.2395" y2="245.2395"/><text fill="#000000" font-family="sans-serif" font-size="14" font-weight="bold" lengthAdjust="spacing" textLength="51" x="44" y="237.9377">server</text><!--MD5=[6644f379719c89a69245f782f93ed447]
cluster it.polimi.ingsw.server.Model--><polygon fill="#FFFFFF" filter="url(#fes9e9t3cdred)" points="64,265.9426,119,265.9426,126,288.2395,726,288.2395,726,674.9426,64,674.9426,64,265.9426" style="stroke:#000000;stroke-width:1.5;"/><line style="stroke:#000000;stroke-width:1.5;" x1="64" x2="126" y1="288.2395" y2="288.2395"/><text fill="#000000" font-family="sans-serif" font-size="14" font-weight="bold" lengthAdjust="spacing" textLength="49" x="68" y="280.9377">Model</text><!--MD5=[fc26a0e73a225749daf71c012ccdbacc]
cluster it.polimi.ingsw.server.Model.FaithTrack--><polygon fill="#FFFFFF" filter="url(#fes9e9t3cdred)" points="88,308.9426,178,308.9426,185,331.2395,702,331.2395,702,650.9426,88,650.9426,88,308.9426" style="stroke:#000000;stroke-width:1.5;"/><line style="stroke:#000000;stroke-width:1.5;" x1="88" x2="185" y1="331.2395" y2="331.2395"/><text fill="#000000" font-family="sans-serif" font-size="14" font-weight="bold" lengthAdjust="spacing" textLength="84" x="92" y="323.9377">FaithTrack</text><!--MD5=[0d852700fdad35b7061d461d6907a324]
cluster java.io--><polygon fill="#FFFFFF" filter="url(#fes9e9t3cdred)" points="353,47.9426,411,47.9426,418,70.2395,485,70.2395,485,146.9426,353,146.9426,353,47.9426" style="stroke:#000000;stroke-width:1.5;"/><line style="stroke:#000000;stroke-width:1.5;" x1="353" x2="418" y1="70.2395" y2="70.2395"/><text fill="#000000" font-family="sans-serif" font-size="14" font-weight="bold" lengthAdjust="spacing" textLength="52" x="357" y="62.9377">java.io</text><!--MD5=[48f7be51bd0005e6c97bce768131ca54]
cluster it.polimi.ingsw.server.Model.Enums--><polygon fill="#FFFFFF" filter="url(#fes9e9t3cdred)" points="116,771.9426,408,771.9426,415,794.2395,622,794.2395,622,870.9426,116,870.9426,116,771.9426" style="stroke:#000000;stroke-width:1.5;"/><line style="stroke:#000000;stroke-width:1.5;" x1="116" x2="415" y1="794.2395" y2="794.2395"/><text fill="#000000" font-family="sans-serif" font-size="14" font-weight="bold" lengthAdjust="spacing" textLength="286" x="120" y="786.9377">it.polimi.ingsw.server.Model.Enums</text><!--MD5=[268d4a5f4c2b795208be79f60290cd7e]
class it.polimi.ingsw.server.Model.FaithTrack.Cell--><rect codeLine="8" fill="#FEFECE" filter="url(#fes9e9t3cdred)" height="214.4609" id="it.polimi.ingsw.server.Model.FaithTrack.Cell" style="stroke:#A80036;stroke-width:1.5;" width="173" x="104.5" y="382.4426"/><ellipse cx="176.25" cy="398.4426" fill="#ADD1B2" rx="11" ry="11" style="stroke:#A80036;stroke-width:1.0;"/><path d="M178.7188,404.3176 Q178.1406,404.6301 177.5,404.7864 Q176.8594,404.9426 176.1563,404.9426 Q173.6406,404.9426 172.3281,403.2708 Q171.0156,401.5989 171.0156,398.4426 Q171.0156,395.2864 172.3281,393.6145 Q173.6406,391.9426 176.1563,391.9426 Q176.8594,391.9426 177.5,392.0989 Q178.1563,392.2551 178.7188,392.5676 L178.7188,395.3645 Q178.0781,394.7864 177.4844,394.5208 Q176.9063,394.2551 176.2656,394.2551 Q174.9219,394.2551 174.2344,395.3176 Q173.5625,396.3645 173.5625,398.4426 Q173.5625,400.5208 174.2344,401.5833 Q174.9219,402.6301 176.2656,402.6301 Q176.9063,402.6301 177.4844,402.3645 Q178.0781,402.0989 178.7188,401.5208 L178.7188,404.3176 Z " fill="#000000"/><text fill="#000000" font-family="sans-serif" font-size="12" lengthAdjust="spacing" textLength="21" x="196.75" y="402.5969">Cell</text><line style="stroke:#A80036;stroke-width:1.5;" x1="105.5" x2="276.5" y1="414.4426" y2="414.4426"/><rect fill="none" height="6" style="stroke:#C82930;stroke-width:1.0;" width="6" x="112.5" y="422.4426"/><text fill="#000000" font-family="sans-serif" font-size="11" lengthAdjust="spacing" textLength="93" x="124.5" y="428.6531">crossAscii : char</text><rect fill="none" height="6" style="stroke:#C82930;stroke-width:1.0;" width="6" x="112.5" y="435.2473"/><text fill="#000000" font-family="sans-serif" font-size="11" lengthAdjust="spacing" textLength="119" x="124.5" y="441.4578">currentCell : boolean</text><rect fill="none" height="6" style="stroke:#C82930;stroke-width:1.0;" width="6" x="112.5" y="448.052"/><text fill="#000000" font-family="sans-serif" font-size="11" lengthAdjust="spacing" textLength="70" x="124.5" y="454.2625">number : int</text><rect fill="none" height="6" style="stroke:#C82930;stroke-width:1.0;" width="6" x="112.5" y="460.8567"/><text fill="#000000" font-family="sans-serif" font-size="11" lengthAdjust="spacing" textLength="60" x="124.5" y="467.0671">points : int</text><line style="stroke:#A80036;stroke-width:1.5;" x1="105.5" x2="276.5" y1="473.6614" y2="473.6614"/><ellipse cx="115.5" cy="484.6614" fill="#84BE84" rx="3" ry="3" style="stroke:#038048;stroke-width:1.0;"/><text fill="#000000" font-family="sans-serif" font-size="11" lengthAdjust="spacing" textLength="29" x="124.5" y="487.8718">Cell()</text><ellipse cx="115.5" cy="497.4661" fill="#84BE84" rx="3" ry="3" style="stroke:#038048;stroke-width:1.0;"/><text fill="#000000" font-family="sans-serif" font-size="11" lengthAdjust="spacing" textLength="75" x="124.5" y="500.6765">getCellType()</text><ellipse cx="115.5" cy="510.2708" fill="#84BE84" rx="3" ry="3" style="stroke:#038048;stroke-width:1.0;"/><text fill="#000000" font-family="sans-serif" font-size="11" lengthAdjust="spacing" textLength="71" x="124.5" y="513.4812">getNumber()</text><ellipse cx="115.5" cy="523.0754" fill="#84BE84" rx="3" ry="3" style="stroke:#038048;stroke-width:1.0;"/><text fill="#000000" font-family="sans-serif" font-size="11" lengthAdjust="spacing" textLength="60" x="124.5" y="526.2859">getPoints()</text><ellipse cx="115.5" cy="535.8801" fill="#84BE84" rx="3" ry="3" style="stroke:#038048;stroke-width:1.0;"/><text fill="#000000" font-family="sans-serif" font-size="11" lengthAdjust="spacing" textLength="147" x="124.5" y="539.0906">getVaticanReportSection()</text><ellipse cx="115.5" cy="548.6848" fill="#84BE84" rx="3" ry="3" style="stroke:#038048;stroke-width:1.0;"/><text fill="#000000" font-family="sans-serif" font-size="11" lengthAdjust="spacing" textLength="81" x="124.5" y="551.8953">isCurrentCell()</text><ellipse cx="115.5" cy="561.4895" fill="#84BE84" rx="3" ry="3" style="stroke:#038048;stroke-width:1.0;"/><text fill="#000000" font-family="sans-serif" font-size="11" lengthAdjust="spacing" textLength="83" x="124.5" y="564.7">setCrossAscii()</text><ellipse cx="115.5" cy="574.2942" fill="#84BE84" rx="3" ry="3" style="stroke:#038048;stroke-width:1.0;"/><text fill="#000000" font-family="sans-serif" font-size="11" lengthAdjust="spacing" textLength="89" x="124.5" y="577.5046">setCurrentCell()</text><ellipse cx="115.5" cy="587.0989" fill="#84BE84" rx="3" ry="3" style="stroke:#038048;stroke-width:1.0;"/><text fill="#000000" font-family="sans-serif" font-size="11" lengthAdjust="spacing" textLength="52" x="124.5" y="590.3093">toString()</text><!--MD5=[0897ae87dca80ce645ef56ca976b7eb6]
class it.polimi.ingsw.server.Model.FaithTrack.FaithTrack--><rect codeLine="33" fill="#FEFECE" filter="url(#fes9e9t3cdred)" height="291.2891" id="it.polimi.ingsw.server.Model.FaithTrack.FaithTrack" style="stroke:#A80036;stroke-width:1.5;" width="212" x="313" y="343.9426"/><ellipse cx="383.25" cy="359.9426" fill="#ADD1B2" rx="11" ry="11" style="stroke:#A80036;stroke-width:1.0;"/><path d="M385.7188,365.8176 Q385.1406,366.1301 384.5,366.2864 Q383.8594,366.4426 383.1563,366.4426 Q380.6406,366.4426 379.3281,364.7708 Q378.0156,363.0989 378.0156,359.9426 Q378.0156,356.7864 379.3281,355.1145 Q380.6406,353.4426 383.1563,353.4426 Q383.8594,353.4426 384.5,353.5989 Q385.1563,353.7551 385.7188,354.0676 L385.7188,356.8645 Q385.0781,356.2864 384.4844,356.0208 Q383.9063,355.7551 383.2656,355.7551 Q381.9219,355.7551 381.2344,356.8176 Q380.5625,357.8645 380.5625,359.9426 Q380.5625,362.0208 381.2344,363.0833 Q381.9219,364.1301 383.2656,364.1301 Q383.9063,364.1301 384.4844,363.8645 Q385.0781,363.5989 385.7188,363.0208 L385.7188,365.8176 Z " fill="#000000"/><text fill="#000000" font-family="sans-serif" font-size="12" lengthAdjust="spacing" textLength="63" x="403.75" y="364.0969">FaithTrack</text><line style="stroke:#A80036;stroke-width:1.5;" x1="314" x2="524" y1="375.9426" y2="375.9426"/><ellipse cx="324" cy="386.9426" rx="3" ry="3" style="stroke:#038048;stroke-width:1.0;fill:none;"/><text fill="#000000" font-family="sans-serif" font-size="11" lengthAdjust="spacing" text-decoration="underline" textLength="95" x="333" y="390.1531">TRACK_SIZE : int</text><rect fill="none" height="6" style="stroke:#C82930;stroke-width:1.0;" width="6" x="321" y="396.7473"/><text fill="#000000" font-family="sans-serif" font-size="11" lengthAdjust="spacing" text-decoration="underline" textLength="80" x="333" y="402.9578">TILE_SIZE : int</text><rect fill="none" height="6" style="stroke:#C82930;stroke-width:1.0;" width="6" x="321" y="409.552"/><text fill="#000000" font-family="sans-serif" font-size="11" lengthAdjust="spacing" textLength="99" x="333" y="415.7625">lorenzo : boolean</text><rect fill="none" height="6" style="stroke:#C82930;stroke-width:1.0;" width="6" x="321" y="422.3567"/><text fill="#000000" font-family="sans-serif" font-size="11" lengthAdjust="spacing" textLength="106" x="333" y="428.5671">playerPosition : int</text><rect fill="none" height="6" style="stroke:#C82930;stroke-width:1.0;" width="6" x="321" y="435.1614"/><text fill="#000000" font-family="sans-serif" font-size="11" lengthAdjust="spacing" textLength="136" x="333" y="441.3718">playerVictoryPoints : int</text><rect fill="none" height="6" style="stroke:#C82930;stroke-width:1.0;" width="6" x="321" y="447.9661"/><text fill="#000000" font-family="sans-serif" font-size="11" lengthAdjust="spacing" textLength="186" x="333" y="454.1765">popeFavorTiles : PopeFavorTile[]</text><rect fill="none" height="6" style="stroke:#C82930;stroke-width:1.0;" width="6" x="321" y="460.7708"/><text fill="#000000" font-family="sans-serif" font-size="11" lengthAdjust="spacing" textLength="69" x="333" y="466.9812">track : Cell[]</text><line style="stroke:#A80036;stroke-width:1.5;" x1="314" x2="524" y1="473.5754" y2="473.5754"/><ellipse cx="324" cy="484.5754" fill="#84BE84" rx="3" ry="3" style="stroke:#038048;stroke-width:1.0;"/><text fill="#000000" font-family="sans-serif" font-size="11" lengthAdjust="spacing" textLength="66" x="333" y="487.7859">FaithTrack()</text><ellipse cx="324" cy="497.3801" fill="#84BE84" rx="3" ry="3" style="stroke:#038048;stroke-width:1.0;"/><text fill="#000000" font-family="sans-serif" font-size="11" lengthAdjust="spacing" textLength="103" x="333" y="500.5906">addVictoryPoints()</text><ellipse cx="324" cy="510.1848" fill="#84BE84" rx="3" ry="3" style="stroke:#038048;stroke-width:1.0;"/><text fill="#000000" font-family="sans-serif" font-size="11" lengthAdjust="spacing" textLength="47" x="333" y="513.3953">getCell()</text><ellipse cx="324" cy="522.9895" fill="#84BE84" rx="3" ry="3" style="stroke:#038048;stroke-width:1.0;"/><text fill="#000000" font-family="sans-serif" font-size="11" lengthAdjust="spacing" textLength="106" x="333" y="526.2">getPlayerPosition()</text><ellipse cx="324" cy="535.7942" fill="#84BE84" rx="3" ry="3" style="stroke:#038048;stroke-width:1.0;"/><text fill="#000000" font-family="sans-serif" font-size="11" lengthAdjust="spacing" textLength="136" x="333" y="539.0046">getPlayerVictoryPoints()</text><ellipse cx="324" cy="548.5989" fill="#84BE84" rx="3" ry="3" style="stroke:#038048;stroke-width:1.0;"/><text fill="#000000" font-family="sans-serif" font-size="11" lengthAdjust="spacing" textLength="112" x="333" y="551.8093">getPopeFavorTiles()</text><ellipse cx="324" cy="561.4036" fill="#84BE84" rx="3" ry="3" style="stroke:#038048;stroke-width:1.0;"/><text fill="#000000" font-family="sans-serif" font-size="11" lengthAdjust="spacing" textLength="57" x="333" y="564.614">getTrack()</text><ellipse cx="324" cy="574.2083" fill="#84BE84" rx="3" ry="3" style="stroke:#038048;stroke-width:1.0;"/><text fill="#000000" font-family="sans-serif" font-size="11" lengthAdjust="spacing" textLength="145" x="333" y="577.4187">incrementPlayerPosition()</text><ellipse cx="324" cy="587.0129" fill="#84BE84" rx="3" ry="3" style="stroke:#038048;stroke-width:1.0;"/><text fill="#000000" font-family="sans-serif" font-size="11" lengthAdjust="spacing" textLength="52" x="333" y="590.2234">toString()</text><ellipse cx="324" cy="599.8176" fill="#84BE84" rx="3" ry="3" style="stroke:#038048;stroke-width:1.0;"/><text fill="#000000" font-family="sans-serif" font-size="11" lengthAdjust="spacing" textLength="87" x="333" y="603.0281">vaticanReport()</text><rect fill="#F24D5C" height="6" style="stroke:#C82930;stroke-width:1.0;" width="6" x="321" y="609.6223"/><text fill="#000000" font-family="sans-serif" font-size="11" lengthAdjust="spacing" textLength="55" x="333" y="615.8328">printCell()</text><rect fill="#F24D5C" height="6" style="stroke:#C82930;stroke-width:1.0;" width="6" x="321" y="622.427"/><text fill="#000000" font-family="sans-serif" font-size="11" lengthAdjust="spacing" textLength="65" x="333" y="628.6375">readTrack()</text><!--MD5=[faf36e4744dc3cc008d4d180f6a35ee2]
class it.polimi.ingsw.server.Model.FaithTrack.PopeFavorTile--><rect codeLine="64" fill="#FEFECE" filter="url(#fes9e9t3cdred)" height="124.8281" id="it.polimi.ingsw.server.Model.FaithTrack.PopeFavorTile" style="stroke:#A80036;stroke-width:1.5;" width="126" x="560" y="426.9426"/><ellipse cx="580.4" cy="442.9426" fill="#ADD1B2" rx="11" ry="11" style="stroke:#A80036;stroke-width:1.0;"/><path d="M582.8688,448.8176 Q582.2906,449.1301 581.65,449.2864 Q581.0094,449.4426 580.3063,449.4426 Q577.7906,449.4426 576.4781,447.7708 Q575.1656,446.0989 575.1656,442.9426 Q575.1656,439.7864 576.4781,438.1145 Q577.7906,436.4426 580.3063,436.4426 Q581.0094,436.4426 581.65,436.5989 Q582.3063,436.7551 582.8688,437.0676 L582.8688,439.8645 Q582.2281,439.2864 581.6344,439.0208 Q581.0563,438.7551 580.4156,438.7551 Q579.0719,438.7551 578.3844,439.8176 Q577.7125,440.8645 577.7125,442.9426 Q577.7125,445.0208 578.3844,446.0833 Q579.0719,447.1301 580.4156,447.1301 Q581.0563,447.1301 581.6344,446.8645 Q582.2281,446.5989 582.8688,446.0208 L582.8688,448.8176 Z " fill="#000000"/><text fill="#000000" font-family="sans-serif" font-size="12" lengthAdjust="spacing" textLength="82" x="595.6" y="447.0969">PopeFavorTile</text><line style="stroke:#A80036;stroke-width:1.5;" x1="561" x2="685" y1="458.9426" y2="458.9426"/><rect fill="none" height="6" style="stroke:#C82930;stroke-width:1.0;" width="6" x="568" y="466.9426"/><text fill="#000000" font-family="sans-serif" font-size="11" lengthAdjust="spacing" textLength="99" x="580" y="473.1531">victoryPoints : int</text><line style="stroke:#A80036;stroke-width:1.5;" x1="561" x2="685" y1="479.7473" y2="479.7473"/><ellipse cx="571" cy="490.7473" fill="#84BE84" rx="3" ry="3" style="stroke:#038048;stroke-width:1.0;"/><text fill="#000000" font-family="sans-serif" font-size="11" lengthAdjust="spacing" textLength="88" x="580" y="493.9578">PopeFavorTile()</text><ellipse cx="571" cy="503.552" fill="#84BE84" rx="3" ry="3" style="stroke:#038048;stroke-width:1.0;"/><text fill="#000000" font-family="sans-serif" font-size="11" lengthAdjust="spacing" textLength="61" x="580" y="506.7625">getStatus()</text><ellipse cx="571" cy="516.3567" fill="#84BE84" rx="3" ry="3" style="stroke:#038048;stroke-width:1.0;"/><text fill="#000000" font-family="sans-serif" font-size="11" lengthAdjust="spacing" textLength="100" x="580" y="519.5671">getVictoryPoints()</text><ellipse cx="571" cy="529.1614" fill="#84BE84" rx="3" ry="3" style="stroke:#038048;stroke-width:1.0;"/><text fill="#000000" font-family="sans-serif" font-size="11" lengthAdjust="spacing" textLength="60" x="580" y="532.3718">setStatus()</text><ellipse cx="571" cy="541.9661" fill="#84BE84" rx="3" ry="3" style="stroke:#038048;stroke-width:1.0;"/><text fill="#000000" font-family="sans-serif" font-size="11" lengthAdjust="spacing" textLength="52" x="580" y="545.1765">toString()</text><!--MD5=[5a5af9b0547913863cbe0ddf55a9ab5e]
class java.io.Serializable--><rect fill="#FEFECE" filter="url(#fes9e9t3cdred)" height="48" id="java.io.Serializable" style="stroke:#A80036;stroke-width:1.5;" width="99" x="369.5" y="82.9426"/><ellipse cx="384.5" cy="98.9426" fill="#ADD1B2" rx="11" ry="11" style="stroke:#A80036;stroke-width:1.0;"/><path d="M386.9688,104.8176 Q386.3906,105.1301 385.75,105.2864 Q385.1094,105.4426 384.4063,105.4426 Q381.8906,105.4426 380.5781,103.7708 Q379.2656,102.0989 379.2656,98.9426 Q379.2656,95.7864 380.5781,94.1145 Q381.8906,92.4426 384.4063,92.4426 Q385.1094,92.4426 385.75,92.5989 Q386.4063,92.7551 386.9688,93.0676 L386.9688,95.8645 Q386.3281,95.2864 385.7344,95.0208 Q385.1563,94.7551 384.5156,94.7551 Q383.1719,94.7551 382.4844,95.8176 Q381.8125,96.8645 381.8125,98.9426 Q381.8125,101.0208 382.4844,102.0833 Q383.1719,103.1301 384.5156,103.1301 Q385.1563,103.1301 385.7344,102.8645 Q386.3281,102.5989 386.9688,102.0208 L386.9688,104.8176 Z " fill="#000000"/><text fill="#000000" font-family="sans-serif" font-size="12" lengthAdjust="spacing" textLength="67" x="398.5" y="103.0969">Serializable</text><line style="stroke:#A80036;stroke-width:1.5;" x1="370.5" x2="467.5" y1="114.9426" y2="114.9426"/><line style="stroke:#A80036;stroke-width:1.5;" x1="370.5" x2="467.5" y1="122.9426" y2="122.9426"/><!--MD5=[aa87be0379cac53c198eb7f1c0c93d81]
class it.polimi.ingsw.server.Model.Enums.CellTypeEnum--><rect fill="#FEFECE" filter="url(#fes9e9t3cdred)" height="48" id="it.polimi.ingsw.server.Model.Enums.CellTypeEnum" style="stroke:#A80036;stroke-width:1.5;" width="118" x="132" y="806.9426"/><ellipse cx="147" cy="822.9426" fill="#ADD1B2" rx="11" ry="11" style="stroke:#A80036;stroke-width:1.0;"/><path d="M149.4688,828.8176 Q148.8906,829.1301 148.25,829.2864 Q147.6094,829.4426 146.9063,829.4426 Q144.3906,829.4426 143.0781,827.7708 Q141.7656,826.0989 141.7656,822.9426 Q141.7656,819.7864 143.0781,818.1145 Q144.3906,816.4426 146.9063,816.4426 Q147.6094,816.4426 148.25,816.5989 Q148.9063,816.7551 149.4688,817.0676 L149.4688,819.8645 Q148.8281,819.2864 148.2344,819.0208 Q147.6563,818.7551 147.0156,818.7551 Q145.6719,818.7551 144.9844,819.8176 Q144.3125,820.8645 144.3125,822.9426 Q144.3125,825.0208 144.9844,826.0833 Q145.6719,827.1301 147.0156,827.1301 Q147.6563,827.1301 148.2344,826.8645 Q148.8281,826.5989 149.4688,826.0208 L149.4688,828.8176 Z " fill="#000000"/><text fill="#000000" font-family="sans-serif" font-size="12" lengthAdjust="spacing" textLength="86" x="161" y="827.0969">CellTypeEnum</text><line style="stroke:#A80036;stroke-width:1.5;" x1="133" x2="249" y1="838.9426" y2="838.9426"/><line style="stroke:#A80036;stroke-width:1.5;" x1="133" x2="249" y1="846.9426" y2="846.9426"/><!--MD5=[7fc8756d465e47517241100e94f180fb]
class it.polimi.ingsw.server.Model.Enums.VaticanSectionEnum--><rect fill="#FEFECE" filter="url(#fes9e9t3cdred)" height="48" id="it.polimi.ingsw.server.Model.Enums.VaticanSectionEnum" style="stroke:#A80036;stroke-width:1.5;" width="158" x="285" y="806.9426"/><ellipse cx="300" cy="822.9426" fill="#ADD1B2" rx="11" ry="11" style="stroke:#A80036;stroke-width:1.0;"/><path d="M302.4688,828.8176 Q301.8906,829.1301 301.25,829.2864 Q300.6094,829.4426 299.9063,829.4426 Q297.3906,829.4426 296.0781,827.7708 Q294.7656,826.0989 294.7656,822.9426 Q294.7656,819.7864 296.0781,818.1145 Q297.3906,816.4426 299.9063,816.4426 Q300.6094,816.4426 301.25,816.5989 Q301.9063,816.7551 302.4688,817.0676 L302.4688,819.8645 Q301.8281,819.2864 301.2344,819.0208 Q300.6563,818.7551 300.0156,818.7551 Q298.6719,818.7551 297.9844,819.8176 Q297.3125,820.8645 297.3125,822.9426 Q297.3125,825.0208 297.9844,826.0833 Q298.6719,827.1301 300.0156,827.1301 Q300.6563,827.1301 301.2344,826.8645 Q301.8281,826.5989 302.4688,826.0208 L302.4688,828.8176 Z " fill="#000000"/><text fill="#000000" font-family="sans-serif" font-size="12" lengthAdjust="spacing" textLength="126" x="314" y="827.0969">VaticanSectionEnum</text><line style="stroke:#A80036;stroke-width:1.5;" x1="286" x2="442" y1="838.9426" y2="838.9426"/><line style="stroke:#A80036;stroke-width:1.5;" x1="286" x2="442" y1="846.9426" y2="846.9426"/><!--MD5=[bcf663533772fa1b077b2d25b776d201]
class it.polimi.ingsw.server.Model.Enums.TileStatusEnum--><rect fill="#FEFECE" filter="url(#fes9e9t3cdred)" height="48" id="it.polimi.ingsw.server.Model.Enums.TileStatusEnum" style="stroke:#A80036;stroke-width:1.5;" width="127" x="478.5" y="806.9426"/><ellipse cx="493.5" cy="822.9426" fill="#ADD1B2" rx="11" ry="11" style="stroke:#A80036;stroke-width:1.0;"/><path d="M495.9688,828.8176 Q495.3906,829.1301 494.75,829.2864 Q494.1094,829.4426 493.4063,829.4426 Q490.8906,829.4426 489.5781,827.7708 Q488.2656,826.0989 488.2656,822.9426 Q488.2656,819.7864 489.5781,818.1145 Q490.8906,816.4426 493.4063,816.4426 Q494.1094,816.4426 494.75,816.5989 Q495.4063,816.7551 495.9688,817.0676 L495.9688,819.8645 Q495.3281,819.2864 494.7344,819.0208 Q494.1563,818.7551 493.5156,818.7551 Q492.1719,818.7551 491.4844,819.8176 Q490.8125,820.8645 490.8125,822.9426 Q490.8125,825.0208 491.4844,826.0833 Q492.1719,827.1301 493.5156,827.1301 Q494.1563,827.1301 494.7344,826.8645 Q495.3281,826.5989 495.9688,826.0208 L495.9688,828.8176 Z " fill="#000000"/><text fill="#000000" font-family="sans-serif" font-size="12" lengthAdjust="spacing" textLength="95" x="507.5" y="827.0969">TileStatusEnum</text><line style="stroke:#A80036;stroke-width:1.5;" x1="479.5" x2="604.5" y1="838.9426" y2="838.9426"/><line style="stroke:#A80036;stroke-width:1.5;" x1="479.5" x2="604.5" y1="846.9426" y2="846.9426"/><!--MD5=[bc187d84645ba6bd88610da15ab621b2]
reverse link java.io.Serializable to it.polimi.ingsw.server.Model.FaithTrack.Cell--><path codeLine="78" d="M351,131.8026 C331.02,141.6026 310.63,154.7726 296,171.9426 C245.5,231.2126 219.08,315.5626 205.38,382.2926 " fill="none" id="java.io.Serializable-backto-it.polimi.ingsw.server.Model.FaithTrack.Cell" style="stroke:#A80036;stroke-width:1.0;stroke-dasharray:7.0,7.0;"/><polygon fill="none" points="348.33,125.3226,369.45,123.5626,354.04,138.1126,348.33,125.3226" style="stroke:#A80036;stroke-width:1.0;"/><!--MD5=[303dded292bdba7a9ca64b486eae8f58]
reverse link it.polimi.ingsw.server.Model.FaithTrack.Cell to it.polimi.ingsw.server.Model.Enums.CellTypeEnum--><path codeLine="79" d="M191,609.7126 C191,681.5526 191,766.6726 191,806.8026 " fill="none" id="it.polimi.ingsw.server.Model.FaithTrack.Cell-backto-it.polimi.ingsw.server.Model.Enums.CellTypeEnum" style="stroke:#A80036;stroke-width:1.0;"/><polygon fill="#FFFFFF" points="191,596.4626,187,602.4626,191,608.4626,195,602.4626,191,596.4626" style="stroke:#A80036;stroke-width:1.0;"/><text fill="#000000" font-family="sans-serif" font-size="13" lengthAdjust="spacing" textLength="55" x="192" y="752.0095">cellType</text><!--MD5=[d5f192f3fd750c14d96029fa503b36ac]
reverse link it.polimi.ingsw.server.Model.FaithTrack.Cell to it.polimi.ingsw.server.Model.Enums.VaticanSectionEnum--><path codeLine="80" d="M237.39,608.8426 C254.3,648.4426 274.56,692.3126 296,730.9426 C311.08,758.1026 331.64,787.1826 346.19,806.7526 " fill="none" id="it.polimi.ingsw.server.Model.FaithTrack.Cell-backto-it.polimi.ingsw.server.Model.Enums.VaticanSectionEnum" style="stroke:#A80036;stroke-width:1.0;"/><polygon fill="#FFFFFF" points="232.26,596.7026,230.9173,603.7876,236.9408,607.752,238.2836,600.6671,232.26,596.7026" style="stroke:#A80036;stroke-width:1.0;"/><text fill="#000000" font-family="sans-serif" font-size="13" lengthAdjust="spacing" textLength="139" x="310" y="752.0095">vaticanReportSection</text><!--MD5=[48fe4ca2500b2c8bae5b9bbc46c70361]
reverse link java.io.Serializable to it.polimi.ingsw.server.Model.FaithTrack.FaithTrack--><path codeLine="81" d="M419,151.2326 C419,197.9626 419,274.9426 419,343.5626 " fill="none" id="java.io.Serializable-backto-it.polimi.ingsw.server.Model.FaithTrack.FaithTrack" style="stroke:#A80036;stroke-width:1.0;stroke-dasharray:7.0,7.0;"/><polygon fill="none" points="412,151.1726,419,131.1726,426,151.1726,412,151.1726" style="stroke:#A80036;stroke-width:1.0;"/><!--MD5=[2c262ac16ac0ee31f29d74c04b52867b]
reverse link java.io.Serializable to it.polimi.ingsw.server.Model.FaithTrack.PopeFavorTile--><path codeLine="82" d="M487.26,130.5526 C507.79,140.3626 528.64,153.8526 543,171.9426 C601.76,245.9626 617.91,357.8426 622.03,426.8526 " fill="none" id="java.io.Serializable-backto-it.polimi.ingsw.server.Model.FaithTrack.PopeFavorTile" style="stroke:#A80036;stroke-width:1.0;stroke-dasharray:7.0,7.0;"/><polygon fill="none" points="484.29,136.9026,468.7,122.5526,489.84,124.0426,484.29,136.9026" style="stroke:#A80036;stroke-width:1.0;"/><!--MD5=[8505f7d46a5498c9bcb338cf740d1321]
reverse link it.polimi.ingsw.server.Model.FaithTrack.PopeFavorTile to it.polimi.ingsw.server.Model.Enums.TileStatusEnum--><path codeLine="83" d="M605.14,565.2926 C586.74,642.4226 559.15,758.0626 547.5,806.8826 " fill="none" id="it.polimi.ingsw.server.Model.FaithTrack.PopeFavorTile-backto-it.polimi.ingsw.server.Model.Enums.TileStatusEnum" style="stroke:#A80036;stroke-width:1.0;"/><polygon fill="#FFFFFF" points="608.24,552.3126,602.9536,557.2171,605.4475,563.9832,610.7339,559.0787,608.24,552.3126" style="stroke:#A80036;stroke-width:1.0;"/><text fill="#000000" font-family="sans-serif" font-size="13" lengthAdjust="spacing" textLength="40" x="562" y="752.0095">status</text><text fill="#888888" font-family="sans-serif" font-size="10" lengthAdjust="spacing" textLength="0" x="778" y="886.2249"/><text fill="#888888" font-family="sans-serif" font-size="10" lengthAdjust="spacing" textLength="0" x="778" y="897.8655"/><!--MD5=[439876994d0b9842a1bc9d3eaa247a04]
@startuml

title __FAITHTRACK's Class Diagram__\n

  namespace it.polimi.ingsw {
    namespace server {
      namespace Model {
        namespace FaithTrack {
          class it.polimi.ingsw.server.Model.FaithTrack.Cell {
              - crossAscii : char
              - currentCell : boolean
              - number : int
              - points : int
              + Cell()
              + getCellType()
              + getNumber()
              + getPoints()
              + getVaticanReportSection()
              + isCurrentCell()
              + setCrossAscii()
              + setCurrentCell()
              + toString()
          }
        }
      }
    }
  }
  

  namespace it.polimi.ingsw {
    namespace server {
      namespace Model {
        namespace FaithTrack {
          class it.polimi.ingsw.server.Model.FaithTrack.FaithTrack {
              {static} + TRACK_SIZE : int
              {static} - TILE_SIZE : int
              - lorenzo : boolean
              - playerPosition : int
              - playerVictoryPoints : int
              - popeFavorTiles : PopeFavorTile[]
              - track : Cell[]
              + FaithTrack()
              + addVictoryPoints()
              + getCell()
              + getPlayerPosition()
              + getPlayerVictoryPoints()
              + getPopeFavorTiles()
              + getTrack()
              + incrementPlayerPosition()
              + toString()
              + vaticanReport()
              - printCell()
              - readTrack()
          }
        }
      }
    }
  }
  

  namespace it.polimi.ingsw {
    namespace server {
      namespace Model {
        namespace FaithTrack {
          class it.polimi.ingsw.server.Model.FaithTrack.PopeFavorTile {
              - victoryPoints : int
              + PopeFavorTile()
              + getStatus()
              + getVictoryPoints()
              + setStatus()
              + toString()
          }
        }
      }
    }
  }
  

  it.polimi.ingsw.server.Model.FaithTrack.Cell .up.|> java.io.Serializable
  it.polimi.ingsw.server.Model.FaithTrack.Cell o- - it.polimi.ingsw.server.Model.Enums.CellTypeEnum : cellType
  it.polimi.ingsw.server.Model.FaithTrack.Cell o- - it.polimi.ingsw.server.Model.Enums.VaticanSectionEnum : vaticanReportSection
  it.polimi.ingsw.server.Model.FaithTrack.FaithTrack .up.|> java.io.Serializable
  it.polimi.ingsw.server.Model.FaithTrack.PopeFavorTile .up.|> java.io.Serializable
  it.polimi.ingsw.server.Model.FaithTrack.PopeFavorTile o- - it.polimi.ingsw.server.Model.Enums.TileStatusEnum : status


right footer


endfooter

@enduml

PlantUML version 1.2021.7(Sun May 23 14:40:07 CEST 2021)
(GPL source distribution)
Java Runtime: OpenJDK Runtime Environment
JVM: Dynamic Code Evolution 64-Bit Server VM
Default Encoding: UTF-8
Language: en
Country: US
--></g></svg>