<?xml version="1.0" encoding="UTF-8" standalone="no"?><svg xmlns="http://www.w3.org/2000/svg" xmlns:xlink="http://www.w3.org/1999/xlink" contentScriptType="application/ecmascript" contentStyleType="text/css" height="731px" preserveAspectRatio="none" style="width:885px;height:731px;background:#FFFFFF;" version="1.1" viewBox="0 0 885 731" width="885px" zoomAndPan="magnify"><defs><filter height="300%" id="f1alnvct15ldih" width="300%" x="-1" y="-1"><feGaussianBlur result="blurOut" stdDeviation="2.0"/><feColorMatrix in="blurOut" result="blurOut2" type="matrix" values="0 0 0 0 0 0 0 0 0 0 0 0 0 0 0 0 0 0 .4 0"/><feOffset dx="4.0" dy="4.0" in="blurOut2" result="blurOut3"/><feBlend in="SourceGraphic" in2="blurOut3" mode="normal"/></filter></defs><g><text fill="#000000" font-family="sans-serif" font-size="18" lengthAdjust="spacing" text-decoration="underline" textLength="303" x="284.5" y="16.7225">LEADERABILITIES's Class Diagram</text><text fill="#000000" font-family="sans-serif" font-size="18" lengthAdjust="spacing" textLength="0" x="439" y="37.6938"/><!--MD5=[432dd831305d7709bed0fe1447e3cfc7]
cluster it.polimi.ingsw--><polygon fill="#FFFFFF" filter="url(#f1alnvct15ldih)" points="16,47.9426,140,47.9426,147,70.2395,827,70.2395,827,559.9426,16,559.9426,16,47.9426" style="stroke:#000000;stroke-width:1.5;"/><line style="stroke:#000000;stroke-width:1.5;" x1="16" x2="147" y1="70.2395" y2="70.2395"/><text fill="#000000" font-family="sans-serif" font-size="14" font-weight="bold" lengthAdjust="spacing" textLength="118" x="20" y="62.9377">it.polimi.ingsw</text><!--MD5=[6ff9cca172c9c23be7720fa07ee26538]
cluster it.polimi.ingsw.server--><polygon fill="#FFFFFF" filter="url(#f1alnvct15ldih)" points="40,90.9426,97,90.9426,104,113.2395,803,113.2395,803,535.9426,40,535.9426,40,90.9426" style="stroke:#000000;stroke-width:1.5;"/><line style="stroke:#000000;stroke-width:1.5;" x1="40" x2="104" y1="113.2395" y2="113.2395"/><text fill="#000000" font-family="sans-serif" font-size="14" font-weight="bold" lengthAdjust="spacing" textLength="51" x="44" y="105.9377">server</text><!--MD5=[6644f379719c89a69245f782f93ed447]
cluster it.polimi.ingsw.server.Model--><polygon fill="#FFFFFF" filter="url(#f1alnvct15ldih)" points="64,133.9426,119,133.9426,126,156.2395,779,156.2395,779,511.9426,64,511.9426,64,133.9426" style="stroke:#000000;stroke-width:1.5;"/><line style="stroke:#000000;stroke-width:1.5;" x1="64" x2="126" y1="156.2395" y2="156.2395"/><text fill="#000000" font-family="sans-serif" font-size="14" font-weight="bold" lengthAdjust="spacing" textLength="49" x="68" y="148.9377">Model</text><!--MD5=[8db89a2eda5cae884eb8730cd929388d]
cluster it.polimi.ingsw.server.Model.LeaderAbilities--><polygon fill="#FFFFFF" filter="url(#f1alnvct15ldih)" points="88,176.9426,215,176.9426,222,199.2395,755,199.2395,755,487.9426,88,487.9426,88,176.9426" style="stroke:#000000;stroke-width:1.5;"/><line style="stroke:#000000;stroke-width:1.5;" x1="88" x2="222" y1="199.2395" y2="199.2395"/><text fill="#000000" font-family="sans-serif" font-size="14" font-weight="bold" lengthAdjust="spacing" textLength="121" x="92" y="191.9377">LeaderAbilities</text><!--MD5=[48f7be51bd0005e6c97bce768131ca54]
cluster it.polimi.ingsw.server.Model.Enums--><polygon fill="#FFFFFF" filter="url(#f1alnvct15ldih)" points="168,608.9426,460,608.9426,467,631.2395,470,631.2395,470,707.9426,168,707.9426,168,608.9426" style="stroke:#000000;stroke-width:1.5;"/><line style="stroke:#000000;stroke-width:1.5;" x1="168" x2="467" y1="631.2395" y2="631.2395"/><text fill="#000000" font-family="sans-serif" font-size="14" font-weight="bold" lengthAdjust="spacing" textLength="286" x="172" y="623.9377">it.polimi.ingsw.server.Model.Enums</text><!--MD5=[efca3317e8ccd9b942d9ee8c15ee7f01]
cluster it.polimi.ingsw.server.Model.Cards--><polygon fill="#FFFFFF" filter="url(#f1alnvct15ldih)" points="575,608.9426,858,608.9426,865,631.2395,868,631.2395,868,707.9426,575,707.9426,575,608.9426" style="stroke:#000000;stroke-width:1.5;"/><line style="stroke:#000000;stroke-width:1.5;" x1="575" x2="865" y1="631.2395" y2="631.2395"/><text fill="#000000" font-family="sans-serif" font-size="14" font-weight="bold" lengthAdjust="spacing" textLength="277" x="579" y="623.9377">it.polimi.ingsw.server.Model.Cards</text><!--MD5=[2be489ca085d5fb6354a7ab4ba8a83f1]
class it.polimi.ingsw.server.Model.LeaderAbilities.DiscountAbility--><rect codeLine="8" fill="#FEFECE" filter="url(#f1alnvct15ldih)" height="137.6328" id="it.polimi.ingsw.server.Model.LeaderAbilities.DiscountAbility" style="stroke:#A80036;stroke-width:1.5;" width="122" x="104" y="333.9426"/><ellipse cx="119" cy="349.9426" fill="#ADD1B2" rx="11" ry="11" style="stroke:#A80036;stroke-width:1.0;"/><path d="M121.4688,355.8176 Q120.8906,356.1301 120.25,356.2864 Q119.6094,356.4426 118.9063,356.4426 Q116.3906,356.4426 115.0781,354.7708 Q113.7656,353.0989 113.7656,349.9426 Q113.7656,346.7864 115.0781,345.1145 Q116.3906,343.4426 118.9063,343.4426 Q119.6094,343.4426 120.25,343.5989 Q120.9063,343.7551 121.4688,344.0676 L121.4688,346.8645 Q120.8281,346.2864 120.2344,346.0208 Q119.6563,345.7551 119.0156,345.7551 Q117.6719,345.7551 116.9844,346.8176 Q116.3125,347.8645 116.3125,349.9426 Q116.3125,352.0208 116.9844,353.0833 Q117.6719,354.1301 119.0156,354.1301 Q119.6563,354.1301 120.2344,353.8645 Q120.8281,353.5989 121.4688,353.0208 L121.4688,355.8176 Z " fill="#000000"/><text fill="#000000" font-family="sans-serif" font-size="12" lengthAdjust="spacing" textLength="90" x="133" y="354.0969">DiscountAbility</text><line style="stroke:#A80036;stroke-width:1.5;" x1="105" x2="225" y1="365.9426" y2="365.9426"/><rect fill="none" height="6" style="stroke:#C82930;stroke-width:1.0;" width="6" x="112" y="373.9426"/><text fill="#000000" font-family="sans-serif" font-size="11" lengthAdjust="spacing" textLength="72" x="124" y="380.1531">quantity : int</text><line style="stroke:#A80036;stroke-width:1.5;" x1="105" x2="225" y1="386.7473" y2="386.7473"/><ellipse cx="115" cy="397.7473" fill="#84BE84" rx="3" ry="3" style="stroke:#038048;stroke-width:1.0;"/><text fill="#000000" font-family="sans-serif" font-size="11" lengthAdjust="spacing" textLength="91" x="124" y="400.9578">DiscountAbility()</text><ellipse cx="115" cy="410.552" fill="#84BE84" rx="3" ry="3" style="stroke:#038048;stroke-width:1.0;"/><text fill="#000000" font-family="sans-serif" font-size="11" lengthAdjust="spacing" textLength="91" x="124" y="413.7625">DiscountAbility()</text><ellipse cx="115" cy="423.3567" fill="#84BE84" rx="3" ry="3" style="stroke:#038048;stroke-width:1.0;"/><text fill="#000000" font-family="sans-serif" font-size="11" lengthAdjust="spacing" textLength="88" x="124" y="426.5671">activateAbility()</text><ellipse cx="115" cy="436.1614" fill="#84BE84" rx="3" ry="3" style="stroke:#038048;stroke-width:1.0;"/><text fill="#000000" font-family="sans-serif" font-size="11" lengthAdjust="spacing" textLength="74" x="124" y="439.3718">getQuantity()</text><ellipse cx="115" cy="448.9661" fill="#84BE84" rx="3" ry="3" style="stroke:#038048;stroke-width:1.0;"/><text fill="#000000" font-family="sans-serif" font-size="11" lengthAdjust="spacing" textLength="79" x="124" y="452.1765">getResource()</text><ellipse cx="115" cy="461.7708" fill="#84BE84" rx="3" ry="3" style="stroke:#038048;stroke-width:1.0;"/><text fill="#000000" font-family="sans-serif" font-size="11" lengthAdjust="spacing" textLength="52" x="124" y="464.9812">toString()</text><!--MD5=[78631d30faee74491e029157fb7c3b8b]
class it.polimi.ingsw.server.Model.LeaderAbilities.ProductionAbility--><rect codeLine="27" fill="#FEFECE" filter="url(#f1alnvct15ldih)" height="99.2188" id="it.polimi.ingsw.server.Model.LeaderAbilities.ProductionAbility" style="stroke:#A80036;stroke-width:1.5;" width="147" x="591.5" y="353.4426"/><ellipse cx="612.35" cy="369.4426" fill="#ADD1B2" rx="11" ry="11" style="stroke:#A80036;stroke-width:1.0;"/><path d="M614.8188,375.3176 Q614.2406,375.6301 613.6,375.7864 Q612.9594,375.9426 612.2563,375.9426 Q609.7406,375.9426 608.4281,374.2708 Q607.1156,372.5989 607.1156,369.4426 Q607.1156,366.2864 608.4281,364.6145 Q609.7406,362.9426 612.2563,362.9426 Q612.9594,362.9426 613.6,363.0989 Q614.2563,363.2551 614.8188,363.5676 L614.8188,366.3645 Q614.1781,365.7864 613.5844,365.5208 Q613.0063,365.2551 612.3656,365.2551 Q611.0219,365.2551 610.3344,366.3176 Q609.6625,367.3645 609.6625,369.4426 Q609.6625,371.5208 610.3344,372.5833 Q611.0219,373.6301 612.3656,373.6301 Q613.0063,373.6301 613.5844,373.3645 Q614.1781,373.0989 614.8188,372.5208 L614.8188,375.3176 Z " fill="#000000"/><text fill="#000000" font-family="sans-serif" font-size="12" lengthAdjust="spacing" textLength="102" x="627.65" y="373.5969">ProductionAbility</text><line style="stroke:#A80036;stroke-width:1.5;" x1="592.5" x2="737.5" y1="385.4426" y2="385.4426"/><line style="stroke:#A80036;stroke-width:1.5;" x1="592.5" x2="737.5" y1="393.4426" y2="393.4426"/><ellipse cx="602.5" cy="404.4426" fill="#84BE84" rx="3" ry="3" style="stroke:#038048;stroke-width:1.0;"/><text fill="#000000" font-family="sans-serif" font-size="11" lengthAdjust="spacing" textLength="103" x="611.5" y="407.6531">ProductionAbility()</text><ellipse cx="602.5" cy="417.2473" fill="#84BE84" rx="3" ry="3" style="stroke:#038048;stroke-width:1.0;"/><text fill="#000000" font-family="sans-serif" font-size="11" lengthAdjust="spacing" textLength="88" x="611.5" y="420.4578">activateAbility()</text><ellipse cx="602.5" cy="430.052" fill="#84BE84" rx="3" ry="3" style="stroke:#038048;stroke-width:1.0;"/><text fill="#000000" font-family="sans-serif" font-size="11" lengthAdjust="spacing" textLength="121" x="611.5" y="433.2625">getProductionPower()</text><ellipse cx="602.5" cy="442.8567" fill="#84BE84" rx="3" ry="3" style="stroke:#038048;stroke-width:1.0;"/><text fill="#000000" font-family="sans-serif" font-size="11" lengthAdjust="spacing" textLength="52" x="611.5" y="446.0671">toString()</text><!--MD5=[352582cb052e2238dde8d63c2c592692]
class it.polimi.ingsw.server.Model.LeaderAbilities.SpecialAbility--><rect codeLine="43" fill="#FEFECE" filter="url(#f1alnvct15ldih)" height="60.8047" id="it.polimi.ingsw.server.Model.LeaderAbilities.SpecialAbility" style="stroke:#A80036;stroke-width:1.5;" width="114" x="344" y="211.9426"/><ellipse cx="359.9" cy="227.9426" fill="#B4A7E5" rx="11" ry="11" style="stroke:#A80036;stroke-width:1.0;"/><path d="M356.3219,223.7083 L356.3219,221.4426 L363.6969,221.4426 L363.6969,223.7083 L361.2438,223.7083 L361.2438,232.177 L363.6969,232.177 L363.6969,234.4426 L356.3219,234.4426 L356.3219,232.177 L358.7906,232.177 L358.7906,223.7083 L356.3219,223.7083 Z " fill="#000000"/><text fill="#000000" font-family="sans-serif" font-size="12" font-style="italic" lengthAdjust="spacing" textLength="80" x="374.1" y="232.0969">SpecialAbility</text><line style="stroke:#A80036;stroke-width:1.5;" x1="345" x2="457" y1="243.9426" y2="243.9426"/><line style="stroke:#A80036;stroke-width:1.5;" x1="345" x2="457" y1="251.9426" y2="251.9426"/><ellipse cx="355" cy="262.9426" fill="#84BE84" rx="3" ry="3" style="stroke:#038048;stroke-width:1.0;"/><text fill="#000000" font-family="sans-serif" font-size="11" font-style="italic" lengthAdjust="spacing" textLength="88" x="364" y="266.1531">activateAbility()</text><!--MD5=[62df5f2a1868e074e38b040ebe7c3be1]
class it.polimi.ingsw.server.Model.LeaderAbilities.StorageAbility--><rect codeLine="56" fill="#FEFECE" filter="url(#f1alnvct15ldih)" height="137.6328" id="it.polimi.ingsw.server.Model.LeaderAbilities.StorageAbility" style="stroke:#A80036;stroke-width:1.5;" width="116" x="261" y="333.9426"/><ellipse cx="276" cy="349.9426" fill="#ADD1B2" rx="11" ry="11" style="stroke:#A80036;stroke-width:1.0;"/><path d="M278.4688,355.8176 Q277.8906,356.1301 277.25,356.2864 Q276.6094,356.4426 275.9063,356.4426 Q273.3906,356.4426 272.0781,354.7708 Q270.7656,353.0989 270.7656,349.9426 Q270.7656,346.7864 272.0781,345.1145 Q273.3906,343.4426 275.9063,343.4426 Q276.6094,343.4426 277.25,343.5989 Q277.9063,343.7551 278.4688,344.0676 L278.4688,346.8645 Q277.8281,346.2864 277.2344,346.0208 Q276.6563,345.7551 276.0156,345.7551 Q274.6719,345.7551 273.9844,346.8176 Q273.3125,347.8645 273.3125,349.9426 Q273.3125,352.0208 273.9844,353.0833 Q274.6719,354.1301 276.0156,354.1301 Q276.6563,354.1301 277.2344,353.8645 Q277.8281,353.5989 278.4688,353.0208 L278.4688,355.8176 Z " fill="#000000"/><text fill="#000000" font-family="sans-serif" font-size="12" lengthAdjust="spacing" textLength="84" x="290" y="354.0969">StorageAbility</text><line style="stroke:#A80036;stroke-width:1.5;" x1="262" x2="376" y1="365.9426" y2="365.9426"/><rect fill="none" height="6" style="stroke:#C82930;stroke-width:1.0;" width="6" x="269" y="373.9426"/><text fill="#000000" font-family="sans-serif" font-size="11" lengthAdjust="spacing" textLength="48" x="281" y="380.1531">size : int</text><line style="stroke:#A80036;stroke-width:1.5;" x1="262" x2="376" y1="386.7473" y2="386.7473"/><ellipse cx="272" cy="397.7473" fill="#84BE84" rx="3" ry="3" style="stroke:#038048;stroke-width:1.0;"/><text fill="#000000" font-family="sans-serif" font-size="11" lengthAdjust="spacing" textLength="87" x="281" y="400.9578">StorageAbility()</text><ellipse cx="272" cy="410.552" fill="#84BE84" rx="3" ry="3" style="stroke:#038048;stroke-width:1.0;"/><text fill="#000000" font-family="sans-serif" font-size="11" lengthAdjust="spacing" textLength="87" x="281" y="413.7625">StorageAbility()</text><ellipse cx="272" cy="423.3567" fill="#84BE84" rx="3" ry="3" style="stroke:#038048;stroke-width:1.0;"/><text fill="#000000" font-family="sans-serif" font-size="11" lengthAdjust="spacing" textLength="88" x="281" y="426.5671">activateAbility()</text><ellipse cx="272" cy="436.1614" fill="#84BE84" rx="3" ry="3" style="stroke:#038048;stroke-width:1.0;"/><text fill="#000000" font-family="sans-serif" font-size="11" lengthAdjust="spacing" textLength="79" x="281" y="439.3718">getResource()</text><ellipse cx="272" cy="448.9661" fill="#84BE84" rx="3" ry="3" style="stroke:#038048;stroke-width:1.0;"/><text fill="#000000" font-family="sans-serif" font-size="11" lengthAdjust="spacing" textLength="49" x="281" y="452.1765">getSize()</text><ellipse cx="272" cy="461.7708" fill="#84BE84" rx="3" ry="3" style="stroke:#038048;stroke-width:1.0;"/><text fill="#000000" font-family="sans-serif" font-size="11" lengthAdjust="spacing" textLength="52" x="281" y="464.9812">toString()</text><!--MD5=[21bcd860ff5ade6b777b8ecaca283e5b]
class it.polimi.ingsw.server.Model.LeaderAbilities.WhiteMarbleAbility--><rect codeLine="75" fill="#FEFECE" filter="url(#f1alnvct15ldih)" height="112.0234" id="it.polimi.ingsw.server.Model.LeaderAbilities.WhiteMarbleAbility" style="stroke:#A80036;stroke-width:1.5;" width="144" x="412" y="346.9426"/><ellipse cx="427" cy="362.9426" fill="#ADD1B2" rx="11" ry="11" style="stroke:#A80036;stroke-width:1.0;"/><path d="M429.4688,368.8176 Q428.8906,369.1301 428.25,369.2864 Q427.6094,369.4426 426.9063,369.4426 Q424.3906,369.4426 423.0781,367.7708 Q421.7656,366.0989 421.7656,362.9426 Q421.7656,359.7864 423.0781,358.1145 Q424.3906,356.4426 426.9063,356.4426 Q427.6094,356.4426 428.25,356.5989 Q428.9063,356.7551 429.4688,357.0676 L429.4688,359.8645 Q428.8281,359.2864 428.2344,359.0208 Q427.6563,358.7551 427.0156,358.7551 Q425.6719,358.7551 424.9844,359.8176 Q424.3125,360.8645 424.3125,362.9426 Q424.3125,365.0208 424.9844,366.0833 Q425.6719,367.1301 427.0156,367.1301 Q427.6563,367.1301 428.2344,366.8645 Q428.8281,366.5989 429.4688,366.0208 L429.4688,368.8176 Z " fill="#000000"/><text fill="#000000" font-family="sans-serif" font-size="12" lengthAdjust="spacing" textLength="112" x="441" y="367.0969">WhiteMarbleAbility</text><line style="stroke:#A80036;stroke-width:1.5;" x1="413" x2="555" y1="378.9426" y2="378.9426"/><line style="stroke:#A80036;stroke-width:1.5;" x1="413" x2="555" y1="386.9426" y2="386.9426"/><ellipse cx="423" cy="397.9426" fill="#84BE84" rx="3" ry="3" style="stroke:#038048;stroke-width:1.0;"/><text fill="#000000" font-family="sans-serif" font-size="11" lengthAdjust="spacing" textLength="113" x="432" y="401.1531">WhiteMarbleAbility()</text><ellipse cx="423" cy="410.7473" fill="#84BE84" rx="3" ry="3" style="stroke:#038048;stroke-width:1.0;"/><text fill="#000000" font-family="sans-serif" font-size="11" lengthAdjust="spacing" textLength="113" x="432" y="413.9578">WhiteMarbleAbility()</text><ellipse cx="423" cy="423.552" fill="#84BE84" rx="3" ry="3" style="stroke:#038048;stroke-width:1.0;"/><text fill="#000000" font-family="sans-serif" font-size="11" lengthAdjust="spacing" textLength="88" x="432" y="426.7625">activateAbility()</text><ellipse cx="423" cy="436.3567" fill="#84BE84" rx="3" ry="3" style="stroke:#038048;stroke-width:1.0;"/><text fill="#000000" font-family="sans-serif" font-size="11" lengthAdjust="spacing" textLength="79" x="432" y="439.5671">getResource()</text><ellipse cx="423" cy="449.1614" fill="#84BE84" rx="3" ry="3" style="stroke:#038048;stroke-width:1.0;"/><text fill="#000000" font-family="sans-serif" font-size="11" lengthAdjust="spacing" textLength="52" x="432" y="452.3718">toString()</text><!--MD5=[61e2b70fc86cd1fbbb8a31d82e121482]
class it.polimi.ingsw.server.Model.Enums.ResourceEnum--><rect fill="#FEFECE" filter="url(#f1alnvct15ldih)" height="48" id="it.polimi.ingsw.server.Model.Enums.ResourceEnum" style="stroke:#A80036;stroke-width:1.5;" width="123" x="257.5" y="643.9426"/><ellipse cx="272.5" cy="659.9426" fill="#ADD1B2" rx="11" ry="11" style="stroke:#A80036;stroke-width:1.0;"/><path d="M274.9688,665.8176 Q274.3906,666.1301 273.75,666.2864 Q273.1094,666.4426 272.4063,666.4426 Q269.8906,666.4426 268.5781,664.7708 Q267.2656,663.0989 267.2656,659.9426 Q267.2656,656.7864 268.5781,655.1145 Q269.8906,653.4426 272.4063,653.4426 Q273.1094,653.4426 273.75,653.5989 Q274.4063,653.7551 274.9688,654.0676 L274.9688,656.8645 Q274.3281,656.2864 273.7344,656.0208 Q273.1563,655.7551 272.5156,655.7551 Q271.1719,655.7551 270.4844,656.8176 Q269.8125,657.8645 269.8125,659.9426 Q269.8125,662.0208 270.4844,663.0833 Q271.1719,664.1301 272.5156,664.1301 Q273.1563,664.1301 273.7344,663.8645 Q274.3281,663.5989 274.9688,663.0208 L274.9688,665.8176 Z " fill="#000000"/><text fill="#000000" font-family="sans-serif" font-size="12" lengthAdjust="spacing" textLength="91" x="286.5" y="664.0969">ResourceEnum</text><line style="stroke:#A80036;stroke-width:1.5;" x1="258.5" x2="379.5" y1="675.9426" y2="675.9426"/><line style="stroke:#A80036;stroke-width:1.5;" x1="258.5" x2="379.5" y1="683.9426" y2="683.9426"/><!--MD5=[20493a6e02bd0438cc042058fa3fce9f]
class it.polimi.ingsw.server.Model.Cards.ProductionPower--><rect fill="#FEFECE" filter="url(#f1alnvct15ldih)" height="48" id="it.polimi.ingsw.server.Model.Cards.ProductionPower" style="stroke:#A80036;stroke-width:1.5;" width="133" x="598.5" y="643.9426"/><ellipse cx="613.5" cy="659.9426" fill="#ADD1B2" rx="11" ry="11" style="stroke:#A80036;stroke-width:1.0;"/><path d="M615.9688,665.8176 Q615.3906,666.1301 614.75,666.2864 Q614.1094,666.4426 613.4063,666.4426 Q610.8906,666.4426 609.5781,664.7708 Q608.2656,663.0989 608.2656,659.9426 Q608.2656,656.7864 609.5781,655.1145 Q610.8906,653.4426 613.4063,653.4426 Q614.1094,653.4426 614.75,653.5989 Q615.4063,653.7551 615.9688,654.0676 L615.9688,656.8645 Q615.3281,656.2864 614.7344,656.0208 Q614.1563,655.7551 613.5156,655.7551 Q612.1719,655.7551 611.4844,656.8176 Q610.8125,657.8645 610.8125,659.9426 Q610.8125,662.0208 611.4844,663.0833 Q612.1719,664.1301 613.5156,664.1301 Q614.1563,664.1301 614.7344,663.8645 Q615.3281,663.5989 615.9688,663.0208 L615.9688,665.8176 Z " fill="#000000"/><text fill="#000000" font-family="sans-serif" font-size="12" lengthAdjust="spacing" textLength="101" x="627.5" y="664.0969">ProductionPower</text><line style="stroke:#A80036;stroke-width:1.5;" x1="599.5" x2="730.5" y1="675.9426" y2="675.9426"/><line style="stroke:#A80036;stroke-width:1.5;" x1="599.5" x2="730.5" y1="683.9426" y2="683.9426"/><!--MD5=[6e605beadd6a157e48a36f9e09c28ff6]
reverse link it.polimi.ingsw.server.Model.LeaderAbilities.SpecialAbility to it.polimi.ingsw.server.Model.LeaderAbilities.DiscountAbility--><path codeLine="88" d="M326.17,282.3326 C299.23,297.3526 269.07,315.3826 243,333.9426 C237.44,337.9026 231.81,342.1826 226.25,346.6026 " fill="none" id="it.polimi.ingsw.server.Model.LeaderAbilities.SpecialAbility-backto-it.polimi.ingsw.server.Model.LeaderAbilities.DiscountAbility" style="stroke:#A80036;stroke-width:1.0;stroke-dasharray:7.0,7.0;"/><polygon fill="none" points="322.87,276.1626,343.77,272.6826,329.6,288.4326,322.87,276.1626" style="stroke:#A80036;stroke-width:1.0;"/><!--MD5=[9148b6698259e9bd29adddcdc47a7282]
reverse link it.polimi.ingsw.server.Model.LeaderAbilities.DiscountAbility to it.polimi.ingsw.server.Model.Enums.ResourceEnum--><path codeLine="89" d="M196.13,484.0926 C211.15,518.8026 230.75,559.1326 253,592.9426 C265.11,611.3526 281.61,629.8526 295.08,643.7426 " fill="none" id="it.polimi.ingsw.server.Model.LeaderAbilities.DiscountAbility-backto-it.polimi.ingsw.server.Model.Enums.ResourceEnum" style="stroke:#A80036;stroke-width:1.0;"/><polygon fill="#FFFFFF" points="191.01,472.0726,189.6847,479.1609,195.7179,483.1105,197.0433,476.0223,191.01,472.0726" style="stroke:#A80036;stroke-width:1.0;"/><text fill="#000000" font-family="sans-serif" font-size="13" lengthAdjust="spacing" textLength="56" x="254" y="589.0095">resource</text><!--MD5=[25aa180fa02239d2d45e859a64bf4c38]
reverse link it.polimi.ingsw.server.Model.LeaderAbilities.SpecialAbility to it.polimi.ingsw.server.Model.LeaderAbilities.ProductionAbility--><path codeLine="90" d="M476.4,279.5826 C507.28,295.2226 542.97,314.4126 574,333.9426 C583.51,339.9326 593.3,346.6226 602.77,353.4126 " fill="none" id="it.polimi.ingsw.server.Model.LeaderAbilities.SpecialAbility-backto-it.polimi.ingsw.server.Model.LeaderAbilities.ProductionAbility" style="stroke:#A80036;stroke-width:1.0;stroke-dasharray:7.0,7.0;"/><polygon fill="none" points="473.13,285.7726,458.37,270.5726,479.39,273.2526,473.13,285.7726" style="stroke:#A80036;stroke-width:1.0;"/><!--MD5=[478bda0da3a18248ccf0b597f6c31297]
reverse link it.polimi.ingsw.server.Model.LeaderAbilities.ProductionAbility to it.polimi.ingsw.server.Model.Cards.ProductionPower--><path codeLine="91" d="M665,465.6926 C665,522.6926 665,604.3026 665,643.7826 " fill="none" id="it.polimi.ingsw.server.Model.LeaderAbilities.ProductionAbility-backto-it.polimi.ingsw.server.Model.Cards.ProductionPower" style="stroke:#A80036;stroke-width:1.0;"/><polygon fill="#FFFFFF" points="665,452.4826,661,458.4826,665,464.4826,669,458.4826,665,452.4826" style="stroke:#A80036;stroke-width:1.0;"/><text fill="#000000" font-family="sans-serif" font-size="13" lengthAdjust="spacing" textLength="109" x="666" y="589.0095">productionPower</text><!--MD5=[9c47326cdf2533857d92942cd851d533]
reverse link it.polimi.ingsw.server.Model.LeaderAbilities.SpecialAbility to it.polimi.ingsw.server.Model.LeaderAbilities.StorageAbility--><path codeLine="92" d="M376.35,291.0926 C369.4,304.5326 361.69,319.4226 354.24,333.8126 " fill="none" id="it.polimi.ingsw.server.Model.LeaderAbilities.SpecialAbility-backto-it.polimi.ingsw.server.Model.LeaderAbilities.StorageAbility" style="stroke:#A80036;stroke-width:1.0;stroke-dasharray:7.0,7.0;"/><polygon fill="none" points="370.17,287.8026,385.58,273.2526,382.6,294.2326,370.17,287.8026" style="stroke:#A80036;stroke-width:1.0;"/><!--MD5=[e0534f3f660384d0279f399884e5572c]
reverse link it.polimi.ingsw.server.Model.LeaderAbilities.StorageAbility to it.polimi.ingsw.server.Model.Enums.ResourceEnum--><path codeLine="93" d="M319,485.2826 C319,540.1726 319,608.7726 319,643.8926 " fill="none" id="it.polimi.ingsw.server.Model.LeaderAbilities.StorageAbility-backto-it.polimi.ingsw.server.Model.Enums.ResourceEnum" style="stroke:#A80036;stroke-width:1.0;"/><polygon fill="#FFFFFF" points="319,472.0126,315,478.0126,319,484.0126,323,478.0126,319,472.0126" style="stroke:#A80036;stroke-width:1.0;"/><text fill="#000000" font-family="sans-serif" font-size="13" lengthAdjust="spacing" textLength="56" x="320" y="589.0095">resource</text><!--MD5=[bb0271d632a699a4eb927f996af7dc4f]
reverse link it.polimi.ingsw.server.Model.LeaderAbilities.SpecialAbility to it.polimi.ingsw.server.Model.LeaderAbilities.WhiteMarbleAbility--><path codeLine="94" d="M425.98,291.1426 C435.18,308.7126 445.68,328.7626 455.19,346.9226 " fill="none" id="it.polimi.ingsw.server.Model.LeaderAbilities.SpecialAbility-backto-it.polimi.ingsw.server.Model.LeaderAbilities.WhiteMarbleAbility" style="stroke:#A80036;stroke-width:1.0;stroke-dasharray:7.0,7.0;"/><polygon fill="none" points="419.69,294.2226,416.61,273.2526,432.09,287.7226,419.69,294.2226" style="stroke:#A80036;stroke-width:1.0;"/><!--MD5=[15f1ed2761333b4f9f0b6071d525f3e0]
reverse link it.polimi.ingsw.server.Model.LeaderAbilities.WhiteMarbleAbility to it.polimi.ingsw.server.Model.Enums.ResourceEnum--><path codeLine="95" d="M453.6,471.5626 C435.7,508.6726 411.42,554.7726 385,592.9426 C372.36,611.2026 355.7,629.8526 342.28,643.8626 " fill="none" id="it.polimi.ingsw.server.Model.LeaderAbilities.WhiteMarbleAbility-backto-it.polimi.ingsw.server.Model.Enums.ResourceEnum" style="stroke:#A80036;stroke-width:1.0;"/><polygon fill="#FFFFFF" points="459.42,459.3426,453.2305,463.0427,454.2654,470.1791,460.4549,466.4791,459.42,459.3426" style="stroke:#A80036;stroke-width:1.0;"/><text fill="#000000" font-family="sans-serif" font-size="13" lengthAdjust="spacing" textLength="56" x="396" y="589.0095">resource</text><text fill="#888888" font-family="sans-serif" font-size="10" lengthAdjust="spacing" textLength="0" x="872" y="723.2249"/><!--MD5=[e3484c45c70849b56c0248a561d5fd22]
@startuml

title __LEADERABILITIES's Class Diagram__\n

  namespace it.polimi.ingsw {
    namespace server {
      namespace Model {
        namespace LeaderAbilities {
          class it.polimi.ingsw.server.Model.LeaderAbilities.DiscountAbility {
              - quantity : int
              + DiscountAbility()
              + DiscountAbility()
              + activateAbility()
              + getQuantity()
              + getResource()
              + toString()
          }
        }
      }
    }
  }
  

  namespace it.polimi.ingsw {
    namespace server {
      namespace Model {
        namespace LeaderAbilities {
          class it.polimi.ingsw.server.Model.LeaderAbilities.ProductionAbility {
              + ProductionAbility()
              + activateAbility()
              + getProductionPower()
              + toString()
          }
        }
      }
    }
  }
  

  namespace it.polimi.ingsw {
    namespace server {
      namespace Model {
        namespace LeaderAbilities {
          interface it.polimi.ingsw.server.Model.LeaderAbilities.SpecialAbility {
              {abstract} + activateAbility()
          }
        }
      }
    }
  }
  

  namespace it.polimi.ingsw {
    namespace server {
      namespace Model {
        namespace LeaderAbilities {
          class it.polimi.ingsw.server.Model.LeaderAbilities.StorageAbility {
              - size : int
              + StorageAbility()
              + StorageAbility()
              + activateAbility()
              + getResource()
              + getSize()
              + toString()
          }
        }
      }
    }
  }
  

  namespace it.polimi.ingsw {
    namespace server {
      namespace Model {
        namespace LeaderAbilities {
          class it.polimi.ingsw.server.Model.LeaderAbilities.WhiteMarbleAbility {
              + WhiteMarbleAbility()
              + WhiteMarbleAbility()
              + activateAbility()
              + getResource()
              + toString()
          }
        }
      }
    }
  }
  

  it.polimi.ingsw.server.Model.LeaderAbilities.DiscountAbility .up.|> it.polimi.ingsw.server.Model.LeaderAbilities.SpecialAbility
  it.polimi.ingsw.server.Model.LeaderAbilities.DiscountAbility o- - it.polimi.ingsw.server.Model.Enums.ResourceEnum : resource
  it.polimi.ingsw.server.Model.LeaderAbilities.ProductionAbility .up.|> it.polimi.ingsw.server.Model.LeaderAbilities.SpecialAbility
  it.polimi.ingsw.server.Model.LeaderAbilities.ProductionAbility o- - it.polimi.ingsw.server.Model.Cards.ProductionPower : productionPower
  it.polimi.ingsw.server.Model.LeaderAbilities.StorageAbility .up.|> it.polimi.ingsw.server.Model.LeaderAbilities.SpecialAbility
  it.polimi.ingsw.server.Model.LeaderAbilities.StorageAbility o- - it.polimi.ingsw.server.Model.Enums.ResourceEnum : resource
  it.polimi.ingsw.server.Model.LeaderAbilities.WhiteMarbleAbility .up.|> it.polimi.ingsw.server.Model.LeaderAbilities.SpecialAbility
  it.polimi.ingsw.server.Model.LeaderAbilities.WhiteMarbleAbility o- - it.polimi.ingsw.server.Model.Enums.ResourceEnum : resource


right footer

endfooter

@enduml

PlantUML version 1.2021.7(Sun May 23 14:40:07 CEST 2021)
(GPL source distribution)
Java Runtime: OpenJDK Runtime Environment
JVM: Dynamic Code Evolution 64-Bit Server VM
Default Encoding: UTF-8
Language: en
Country: US
--></g></svg>