<?xml version="1.0" encoding="UTF-8" standalone="no"?><svg xmlns="http://www.w3.org/2000/svg" xmlns:xlink="http://www.w3.org/1999/xlink" contentScriptType="application/ecmascript" contentStyleType="text/css" height="634px" preserveAspectRatio="none" style="width:852px;height:634px;background:#FFFFFF;" version="1.1" viewBox="0 0 852 634" width="852px" zoomAndPan="magnify"><defs><filter height="300%" id="f1o60mouw2r4ar" width="300%" x="-1" y="-1"><feGaussianBlur result="blurOut" stdDeviation="2.0"/><feColorMatrix in="blurOut" result="blurOut2" type="matrix" values="0 0 0 0 0 0 0 0 0 0 0 0 0 0 0 0 0 0 .4 0"/><feOffset dx="4.0" dy="4.0" in="blurOut2" result="blurOut3"/><feBlend in="SourceGraphic" in2="blurOut3" mode="normal"/></filter></defs><g><text fill="#000000" font-family="sans-serif" font-size="18" lengthAdjust="spacing" text-decoration="underline" textLength="310" x="264.5" y="16.7225">PERSONALBOARD's Class Diagram</text><text fill="#000000" font-family="sans-serif" font-size="18" lengthAdjust="spacing" textLength="0" x="422.5" y="37.6938"/><!--MD5=[432dd831305d7709bed0fe1447e3cfc7]
cluster it.polimi.ingsw--><polygon fill="#FFFFFF" filter="url(#f1o60mouw2r4ar)" points="16,170.9426,140,170.9426,147,193.2395,835,193.2395,835,598.9426,16,598.9426,16,170.9426" style="stroke:#000000;stroke-width:1.5;"/><line style="stroke:#000000;stroke-width:1.5;" x1="16" x2="147" y1="193.2395" y2="193.2395"/><text fill="#000000" font-family="sans-serif" font-size="14" font-weight="bold" lengthAdjust="spacing" textLength="118" x="20" y="185.9377">it.polimi.ingsw</text><!--MD5=[6ff9cca172c9c23be7720fa07ee26538]
cluster it.polimi.ingsw.server--><polygon fill="#FFFFFF" filter="url(#f1o60mouw2r4ar)" points="40,213.9426,97,213.9426,104,236.2395,811,236.2395,811,574.9426,40,574.9426,40,213.9426" style="stroke:#000000;stroke-width:1.5;"/><line style="stroke:#000000;stroke-width:1.5;" x1="40" x2="104" y1="236.2395" y2="236.2395"/><text fill="#000000" font-family="sans-serif" font-size="14" font-weight="bold" lengthAdjust="spacing" textLength="51" x="44" y="228.9377">server</text><!--MD5=[6644f379719c89a69245f782f93ed447]
cluster it.polimi.ingsw.server.Model--><polygon fill="#FFFFFF" filter="url(#f1o60mouw2r4ar)" points="64,256.9426,119,256.9426,126,279.2395,787,279.2395,787,550.9426,64,550.9426,64,256.9426" style="stroke:#000000;stroke-width:1.5;"/><line style="stroke:#000000;stroke-width:1.5;" x1="64" x2="126" y1="279.2395" y2="279.2395"/><text fill="#000000" font-family="sans-serif" font-size="14" font-weight="bold" lengthAdjust="spacing" textLength="49" x="68" y="271.9377">Model</text><!--MD5=[337df128b1a50173dc98f0e88cea32e3]
cluster it.polimi.ingsw.server.Model.PersonalBoard--><polygon fill="#FFFFFF" filter="url(#f1o60mouw2r4ar)" points="88,299.9426,210,299.9426,217,322.2395,763,322.2395,763,526.9426,88,526.9426,88,299.9426" style="stroke:#000000;stroke-width:1.5;"/><line style="stroke:#000000;stroke-width:1.5;" x1="88" x2="217" y1="322.2395" y2="322.2395"/><text fill="#000000" font-family="sans-serif" font-size="14" font-weight="bold" lengthAdjust="spacing" textLength="116" x="92" y="314.9377">PersonalBoard</text><!--MD5=[0d852700fdad35b7061d461d6907a324]
cluster java.io--><polygon fill="#FFFFFF" filter="url(#f1o60mouw2r4ar)" points="355,47.9426,413,47.9426,420,70.2395,487,70.2395,487,146.9426,355,146.9426,355,47.9426" style="stroke:#000000;stroke-width:1.5;"/><line style="stroke:#000000;stroke-width:1.5;" x1="355" x2="420" y1="70.2395" y2="70.2395"/><text fill="#000000" font-family="sans-serif" font-size="14" font-weight="bold" lengthAdjust="spacing" textLength="52" x="359" y="62.9377">java.io</text><!--MD5=[d880a01232e771bdb27b76b65856e7aa]
class it.polimi.ingsw.server.Model.PersonalBoard.DevelopmentSlots--><rect codeLine="8" fill="#FEFECE" filter="url(#f1o60mouw2r4ar)" height="176.0469" id="it.polimi.ingsw.server.Model.PersonalBoard.DevelopmentSlots" style="stroke:#A80036;stroke-width:1.5;" width="311" x="435.5" y="334.9426"/><ellipse cx="532.25" cy="350.9426" fill="#ADD1B2" rx="11" ry="11" style="stroke:#A80036;stroke-width:1.0;"/><path d="M534.7188,356.8176 Q534.1406,357.1301 533.5,357.2864 Q532.8594,357.4426 532.1563,357.4426 Q529.6406,357.4426 528.3281,355.7708 Q527.0156,354.0989 527.0156,350.9426 Q527.0156,347.7864 528.3281,346.1145 Q529.6406,344.4426 532.1563,344.4426 Q532.8594,344.4426 533.5,344.5989 Q534.1563,344.7551 534.7188,345.0676 L534.7188,347.8645 Q534.0781,347.2864 533.4844,347.0208 Q532.9063,346.7551 532.2656,346.7551 Q530.9219,346.7551 530.2344,347.8176 Q529.5625,348.8645 529.5625,350.9426 Q529.5625,353.0208 530.2344,354.0833 Q530.9219,355.1301 532.2656,355.1301 Q532.9063,355.1301 533.4844,354.8645 Q534.0781,354.5989 534.7188,354.0208 L534.7188,356.8176 Z " fill="#000000"/><text fill="#000000" font-family="sans-serif" font-size="12" lengthAdjust="spacing" textLength="109" x="552.75" y="355.0969">DevelopmentSlots</text><line style="stroke:#A80036;stroke-width:1.5;" x1="436.5" x2="745.5" y1="366.9426" y2="366.9426"/><ellipse cx="446.5" cy="377.9426" rx="3" ry="3" style="stroke:#038048;stroke-width:1.0;fill:none;"/><text fill="#000000" font-family="sans-serif" font-size="11" lengthAdjust="spacing" text-decoration="underline" textLength="74" x="455.5" y="381.1531">maxSize : int</text><rect fill="none" height="6" style="stroke:#C82930;stroke-width:1.0;" width="6" x="443.5" y="387.7473"/><text fill="#000000" font-family="sans-serif" font-size="11" lengthAdjust="spacing" textLength="285" x="455.5" y="393.9578">devSlots : ArrayList&lt;Deque&lt;DevelopmentCard&gt;&gt;</text><line style="stroke:#A80036;stroke-width:1.5;" x1="436.5" x2="745.5" y1="400.552" y2="400.552"/><ellipse cx="446.5" cy="411.552" fill="#84BE84" rx="3" ry="3" style="stroke:#038048;stroke-width:1.0;"/><text fill="#000000" font-family="sans-serif" font-size="11" lengthAdjust="spacing" textLength="110" x="455.5" y="414.7625">DevelopmentSlots()</text><ellipse cx="446.5" cy="424.3567" fill="#84BE84" rx="3" ry="3" style="stroke:#038048;stroke-width:1.0;"/><text fill="#000000" font-family="sans-serif" font-size="11" lengthAdjust="spacing" textLength="56" x="455.5" y="427.5671">addCard()</text><ellipse cx="446.5" cy="437.1614" fill="#84BE84" rx="3" ry="3" style="stroke:#038048;stroke-width:1.0;"/><text fill="#000000" font-family="sans-serif" font-size="11" lengthAdjust="spacing" textLength="60" x="455.5" y="440.3718">canInsert()</text><ellipse cx="446.5" cy="449.9661" fill="#84BE84" rx="3" ry="3" style="stroke:#038048;stroke-width:1.0;"/><text fill="#000000" font-family="sans-serif" font-size="11" lengthAdjust="spacing" textLength="120" x="455.5" y="453.1765">getCardTypesCount()</text><ellipse cx="446.5" cy="462.7708" fill="#84BE84" rx="3" ry="3" style="stroke:#038048;stroke-width:1.0;"/><text fill="#000000" font-family="sans-serif" font-size="11" lengthAdjust="spacing" textLength="59" x="455.5" y="465.9812">getCards()</text><ellipse cx="446.5" cy="475.5754" fill="#84BE84" rx="3" ry="3" style="stroke:#038048;stroke-width:1.0;"/><text fill="#000000" font-family="sans-serif" font-size="11" lengthAdjust="spacing" textLength="163" x="455.5" y="478.7859">getMaxLevelFromCardType()</text><ellipse cx="446.5" cy="488.3801" fill="#84BE84" rx="3" ry="3" style="stroke:#038048;stroke-width:1.0;"/><text fill="#000000" font-family="sans-serif" font-size="11" lengthAdjust="spacing" text-decoration="underline" textLength="72" x="455.5" y="491.5906">getMaxSize()</text><ellipse cx="446.5" cy="501.1848" fill="#84BE84" rx="3" ry="3" style="stroke:#038048;stroke-width:1.0;"/><text fill="#000000" font-family="sans-serif" font-size="11" lengthAdjust="spacing" textLength="47" x="455.5" y="504.3953">getSlot()</text><!--MD5=[0f1677c905c614d601d67477e1be75f2]
class it.polimi.ingsw.server.Model.PersonalBoard.Strongbox--><rect codeLine="30" fill="#FEFECE" filter="url(#f1o60mouw2r4ar)" height="124.8281" id="it.polimi.ingsw.server.Model.PersonalBoard.Strongbox" style="stroke:#A80036;stroke-width:1.5;" width="296" x="104" y="360.4426"/><ellipse cx="216.25" cy="376.4426" fill="#ADD1B2" rx="11" ry="11" style="stroke:#A80036;stroke-width:1.0;"/><path d="M218.7188,382.3176 Q218.1406,382.6301 217.5,382.7864 Q216.8594,382.9426 216.1563,382.9426 Q213.6406,382.9426 212.3281,381.2708 Q211.0156,379.5989 211.0156,376.4426 Q211.0156,373.2864 212.3281,371.6145 Q213.6406,369.9426 216.1563,369.9426 Q216.8594,369.9426 217.5,370.0989 Q218.1563,370.2551 218.7188,370.5676 L218.7188,373.3645 Q218.0781,372.7864 217.4844,372.5208 Q216.9063,372.2551 216.2656,372.2551 Q214.9219,372.2551 214.2344,373.3176 Q213.5625,374.3645 213.5625,376.4426 Q213.5625,378.5208 214.2344,379.5833 Q214.9219,380.6301 216.2656,380.6301 Q216.9063,380.6301 217.4844,380.3645 Q218.0781,380.0989 218.7188,379.5208 L218.7188,382.3176 Z " fill="#000000"/><text fill="#000000" font-family="sans-serif" font-size="12" lengthAdjust="spacing" textLength="63" x="236.75" y="380.5969">Strongbox</text><line style="stroke:#A80036;stroke-width:1.5;" x1="105" x2="399" y1="392.4426" y2="392.4426"/><rect fill="none" height="6" style="stroke:#C82930;stroke-width:1.0;" width="6" x="112" y="400.4426"/><text fill="#000000" font-family="sans-serif" font-size="11" lengthAdjust="spacing" textLength="270" x="124" y="406.6531">resources : HashMap&lt;ResourceEnum, Integer&gt;</text><line style="stroke:#A80036;stroke-width:1.5;" x1="105" x2="399" y1="413.2473" y2="413.2473"/><ellipse cx="115" cy="424.2473" fill="#84BE84" rx="3" ry="3" style="stroke:#038048;stroke-width:1.0;"/><text fill="#000000" font-family="sans-serif" font-size="11" lengthAdjust="spacing" textLength="66" x="124" y="427.4578">Strongbox()</text><ellipse cx="115" cy="437.052" fill="#84BE84" rx="3" ry="3" style="stroke:#038048;stroke-width:1.0;"/><text fill="#000000" font-family="sans-serif" font-size="11" lengthAdjust="spacing" textLength="112" x="124" y="440.2625">getResourceCount()</text><ellipse cx="115" cy="449.8567" fill="#84BE84" rx="3" ry="3" style="stroke:#038048;stroke-width:1.0;"/><text fill="#000000" font-family="sans-serif" font-size="11" lengthAdjust="spacing" textLength="146" x="124" y="453.0671">getTotalResourcesCount()</text><ellipse cx="115" cy="462.6614" fill="#84BE84" rx="3" ry="3" style="stroke:#038048;stroke-width:1.0;"/><text fill="#000000" font-family="sans-serif" font-size="11" lengthAdjust="spacing" textLength="93" x="124" y="465.8718">insertResource()</text><ellipse cx="115" cy="475.4661" fill="#84BE84" rx="3" ry="3" style="stroke:#038048;stroke-width:1.0;"/><text fill="#000000" font-family="sans-serif" font-size="11" lengthAdjust="spacing" textLength="52" x="124" y="478.6765">remove()</text><!--MD5=[5a5af9b0547913863cbe0ddf55a9ab5e]
class java.io.Serializable--><rect fill="#FEFECE" filter="url(#f1o60mouw2r4ar)" height="48" id="java.io.Serializable" style="stroke:#A80036;stroke-width:1.5;" width="99" x="371.5" y="82.9426"/><ellipse cx="386.5" cy="98.9426" fill="#ADD1B2" rx="11" ry="11" style="stroke:#A80036;stroke-width:1.0;"/><path d="M388.9688,104.8176 Q388.3906,105.1301 387.75,105.2864 Q387.1094,105.4426 386.4063,105.4426 Q383.8906,105.4426 382.5781,103.7708 Q381.2656,102.0989 381.2656,98.9426 Q381.2656,95.7864 382.5781,94.1145 Q383.8906,92.4426 386.4063,92.4426 Q387.1094,92.4426 387.75,92.5989 Q388.4063,92.7551 388.9688,93.0676 L388.9688,95.8645 Q388.3281,95.2864 387.7344,95.0208 Q387.1563,94.7551 386.5156,94.7551 Q385.1719,94.7551 384.4844,95.8176 Q383.8125,96.8645 383.8125,98.9426 Q383.8125,101.0208 384.4844,102.0833 Q385.1719,103.1301 386.5156,103.1301 Q387.1563,103.1301 387.7344,102.8645 Q388.3281,102.5989 388.9688,102.0208 L388.9688,104.8176 Z " fill="#000000"/><text fill="#000000" font-family="sans-serif" font-size="12" lengthAdjust="spacing" textLength="67" x="400.5" y="103.0969">Serializable</text><line style="stroke:#A80036;stroke-width:1.5;" x1="372.5" x2="469.5" y1="114.9426" y2="114.9426"/><line style="stroke:#A80036;stroke-width:1.5;" x1="372.5" x2="469.5" y1="122.9426" y2="122.9426"/><!--MD5=[e88e7921ba365104539f8e788a65ea8b]
reverse link java.io.Serializable to it.polimi.ingsw.server.Model.PersonalBoard.DevelopmentSlots--><path codeLine="44" d="M443.11,148.7926 C468.51,195.7026 510.91,274.0026 543.81,334.7726 " fill="none" id="java.io.Serializable-backto-it.polimi.ingsw.server.Model.PersonalBoard.DevelopmentSlots" style="stroke:#A80036;stroke-width:1.0;stroke-dasharray:7.0,7.0;"/><polygon fill="none" points="436.87,151.9526,433.5,131.0326,449.18,145.2826,436.87,151.9526" style="stroke:#A80036;stroke-width:1.0;"/><!--MD5=[5b7ac9bb61dcde158055419e3d9314d5]
reverse link java.io.Serializable to it.polimi.ingsw.server.Model.PersonalBoard.Strongbox--><path codeLine="45" d="M398.98,148.8526 C370.02,202.6626 318.87,297.7026 285.2,360.2626 " fill="none" id="java.io.Serializable-backto-it.polimi.ingsw.server.Model.PersonalBoard.Strongbox" style="stroke:#A80036;stroke-width:1.0;stroke-dasharray:7.0,7.0;"/><polygon fill="none" points="392.93,145.3226,408.57,131.0326,405.26,151.9626,392.93,145.3226" style="stroke:#A80036;stroke-width:1.0;"/><text fill="#888888" font-family="sans-serif" font-size="10" lengthAdjust="spacing" textLength="0" x="839" y="614.2249"/><text fill="#888888" font-family="sans-serif" font-size="10" lengthAdjust="spacing" textLength="0" x="839" y="625.8655"/><!--MD5=[809ae81e6895f541dfadc5aad5c684be]
@startuml

title __PERSONALBOARD's Class Diagram__\n

  namespace it.polimi.ingsw {
    namespace server {
      namespace Model {
        namespace PersonalBoard {
          class it.polimi.ingsw.server.Model.PersonalBoard.DevelopmentSlots {
              {static} + maxSize : int
              - devSlots : ArrayList<Deque<DevelopmentCard>>
              + DevelopmentSlots()
              + addCard()
              + canInsert()
              + getCardTypesCount()
              + getCards()
              + getMaxLevelFromCardType()
              {static} + getMaxSize()
              + getSlot()
          }
        }
      }
    }
  }
  

  namespace it.polimi.ingsw {
    namespace server {
      namespace Model {
        namespace PersonalBoard {
          class it.polimi.ingsw.server.Model.PersonalBoard.Strongbox {
              - resources : HashMap<ResourceEnum, Integer>
              + Strongbox()
              + getResourceCount()
              + getTotalResourcesCount()
              + insertResource()
              + remove()
          }
        }
      }
    }
  }
  

  it.polimi.ingsw.server.Model.PersonalBoard.DevelopmentSlots .up.|> java.io.Serializable
  it.polimi.ingsw.server.Model.PersonalBoard.Strongbox .up.|> java.io.Serializable


right footer


endfooter

@enduml

PlantUML version 1.2021.7(Sun May 23 14:40:07 CEST 2021)
(GPL source distribution)
Java Runtime: OpenJDK Runtime Environment
JVM: Dynamic Code Evolution 64-Bit Server VM
Default Encoding: UTF-8
Language: en
Country: US
--></g></svg>