<?xml version="1.0" encoding="UTF-8" standalone="no"?><svg xmlns="http://www.w3.org/2000/svg" xmlns:xlink="http://www.w3.org/1999/xlink" contentScriptType="application/ecmascript" contentStyleType="text/css" height="768px" preserveAspectRatio="none" style="width:549px;height:768px;background:#FFFFFF;" version="1.1" viewBox="0 0 549 768" width="549px" zoomAndPan="magnify"><defs><filter height="300%" id="f3nmu5w6fa8ll" width="300%" x="-1" y="-1"><feGaussianBlur result="blurOut" stdDeviation="2.0"/><feColorMatrix in="blurOut" result="blurOut2" type="matrix" values="0 0 0 0 0 0 0 0 0 0 0 0 0 0 0 0 0 0 .4 0"/><feOffset dx="4.0" dy="4.0" in="blurOut2" result="blurOut3"/><feBlend in="SourceGraphic" in2="blurOut3" mode="normal"/></filter></defs><g><text fill="#000000" font-family="sans-serif" font-size="18" lengthAdjust="spacing" text-decoration="underline" textLength="292" x="122" y="16.7225">REQUIREMENTS's Class Diagram</text><text fill="#000000" font-family="sans-serif" font-size="18" lengthAdjust="spacing" textLength="0" x="271" y="37.6938"/><!--MD5=[432dd831305d7709bed0fe1447e3cfc7]
cluster it.polimi.ingsw--><polygon fill="#FFFFFF" filter="url(#f3nmu5w6fa8ll)" points="16,47.9426,140,47.9426,147,70.2395,532,70.2395,532,584.9426,16,584.9426,16,47.9426" style="stroke:#000000;stroke-width:1.5;"/><line style="stroke:#000000;stroke-width:1.5;" x1="16" x2="147" y1="70.2395" y2="70.2395"/><text fill="#000000" font-family="sans-serif" font-size="14" font-weight="bold" lengthAdjust="spacing" textLength="118" x="20" y="62.9377">it.polimi.ingsw</text><!--MD5=[6ff9cca172c9c23be7720fa07ee26538]
cluster it.polimi.ingsw.server--><polygon fill="#FFFFFF" filter="url(#f3nmu5w6fa8ll)" points="40,90.9426,97,90.9426,104,113.2395,508,113.2395,508,560.9426,40,560.9426,40,90.9426" style="stroke:#000000;stroke-width:1.5;"/><line style="stroke:#000000;stroke-width:1.5;" x1="40" x2="104" y1="113.2395" y2="113.2395"/><text fill="#000000" font-family="sans-serif" font-size="14" font-weight="bold" lengthAdjust="spacing" textLength="51" x="44" y="105.9377">server</text><!--MD5=[6644f379719c89a69245f782f93ed447]
cluster it.polimi.ingsw.server.Model--><polygon fill="#FFFFFF" filter="url(#f3nmu5w6fa8ll)" points="64,133.9426,119,133.9426,126,156.2395,484,156.2395,484,536.9426,64,536.9426,64,133.9426" style="stroke:#000000;stroke-width:1.5;"/><line style="stroke:#000000;stroke-width:1.5;" x1="64" x2="126" y1="156.2395" y2="156.2395"/><text fill="#000000" font-family="sans-serif" font-size="14" font-weight="bold" lengthAdjust="spacing" textLength="49" x="68" y="148.9377">Model</text><!--MD5=[a16f7804b9e6330eff7694ac009f2e48]
cluster it.polimi.ingsw.server.Model.Requirements--><polygon fill="#FFFFFF" filter="url(#f3nmu5w6fa8ll)" points="88,176.9426,207,176.9426,214,199.2395,460,199.2395,460,512.9426,88,512.9426,88,176.9426" style="stroke:#000000;stroke-width:1.5;"/><line style="stroke:#000000;stroke-width:1.5;" x1="88" x2="214" y1="199.2395" y2="199.2395"/><text fill="#000000" font-family="sans-serif" font-size="14" font-weight="bold" lengthAdjust="spacing" textLength="113" x="92" y="191.9377">Requirements</text><!--MD5=[48f7be51bd0005e6c97bce768131ca54]
cluster it.polimi.ingsw.server.Model.Enums--><polygon fill="#FFFFFF" filter="url(#f3nmu5w6fa8ll)" points="17,633.9426,309,633.9426,316,656.2395,439,656.2395,439,732.9426,17,732.9426,17,633.9426" style="stroke:#000000;stroke-width:1.5;"/><line style="stroke:#000000;stroke-width:1.5;" x1="17" x2="316" y1="656.2395" y2="656.2395"/><text fill="#000000" font-family="sans-serif" font-size="14" font-weight="bold" lengthAdjust="spacing" textLength="286" x="21" y="648.9377">it.polimi.ingsw.server.Model.Enums</text><!--MD5=[7098f0ef207fda95a02d2213b8db7db1]
class it.polimi.ingsw.server.Model.Requirements.CardRequirement--><rect codeLine="8" fill="#FEFECE" filter="url(#f3nmu5w6fa8ll)" height="150.4375" id="it.polimi.ingsw.server.Model.Requirements.CardRequirement" style="stroke:#A80036;stroke-width:1.5;" width="139" x="104.5" y="340.4426"/><ellipse cx="119.95" cy="356.4426" fill="#ADD1B2" rx="11" ry="11" style="stroke:#A80036;stroke-width:1.0;"/><path d="M122.4188,362.3176 Q121.8406,362.6301 121.2,362.7864 Q120.5594,362.9426 119.8563,362.9426 Q117.3406,362.9426 116.0281,361.2708 Q114.7156,359.5989 114.7156,356.4426 Q114.7156,353.2864 116.0281,351.6145 Q117.3406,349.9426 119.8563,349.9426 Q120.5594,349.9426 121.2,350.0989 Q121.8563,350.2551 122.4188,350.5676 L122.4188,353.3645 Q121.7781,352.7864 121.1844,352.5208 Q120.6063,352.2551 119.9656,352.2551 Q118.6219,352.2551 117.9344,353.3176 Q117.2625,354.3645 117.2625,356.4426 Q117.2625,358.5208 117.9344,359.5833 Q118.6219,360.6301 119.9656,360.6301 Q120.6063,360.6301 121.1844,360.3645 Q121.7781,360.0989 122.4188,359.5208 L122.4188,362.3176 Z " fill="#000000"/><text fill="#000000" font-family="sans-serif" font-size="12" lengthAdjust="spacing" textLength="106" x="134.05" y="360.5969">CardRequirement</text><line style="stroke:#A80036;stroke-width:1.5;" x1="105.5" x2="242.5" y1="372.4426" y2="372.4426"/><rect fill="none" height="6" style="stroke:#C82930;stroke-width:1.0;" width="6" x="112.5" y="380.4426"/><text fill="#000000" font-family="sans-serif" font-size="11" lengthAdjust="spacing" textLength="72" x="124.5" y="386.6531">quantity : int</text><line style="stroke:#A80036;stroke-width:1.5;" x1="105.5" x2="242.5" y1="393.2473" y2="393.2473"/><ellipse cx="115.5" cy="404.2473" fill="#84BE84" rx="3" ry="3" style="stroke:#038048;stroke-width:1.0;"/><text fill="#000000" font-family="sans-serif" font-size="11" lengthAdjust="spacing" textLength="108" x="124.5" y="407.4578">CardRequirement()</text><ellipse cx="115.5" cy="417.052" fill="#84BE84" rx="3" ry="3" style="stroke:#038048;stroke-width:1.0;"/><text fill="#000000" font-family="sans-serif" font-size="11" lengthAdjust="spacing" textLength="108" x="124.5" y="420.2625">CardRequirement()</text><ellipse cx="115.5" cy="429.8567" fill="#84BE84" rx="3" ry="3" style="stroke:#038048;stroke-width:1.0;"/><text fill="#000000" font-family="sans-serif" font-size="11" lengthAdjust="spacing" textLength="113" x="124.5" y="433.0671">checkRequirement()</text><ellipse cx="115.5" cy="442.6614" fill="#84BE84" rx="3" ry="3" style="stroke:#038048;stroke-width:1.0;"/><text fill="#000000" font-family="sans-serif" font-size="11" lengthAdjust="spacing" textLength="81" x="124.5" y="445.8718">getCardType()</text><ellipse cx="115.5" cy="455.4661" fill="#84BE84" rx="3" ry="3" style="stroke:#038048;stroke-width:1.0;"/><text fill="#000000" font-family="sans-serif" font-size="11" lengthAdjust="spacing" textLength="56" x="124.5" y="458.6765">getLevel()</text><ellipse cx="115.5" cy="468.2708" fill="#84BE84" rx="3" ry="3" style="stroke:#038048;stroke-width:1.0;"/><text fill="#000000" font-family="sans-serif" font-size="11" lengthAdjust="spacing" textLength="74" x="124.5" y="471.4812">getQuantity()</text><ellipse cx="115.5" cy="481.0754" fill="#84BE84" rx="3" ry="3" style="stroke:#038048;stroke-width:1.0;"/><text fill="#000000" font-family="sans-serif" font-size="11" lengthAdjust="spacing" textLength="52" x="124.5" y="484.2859">toString()</text><!--MD5=[99016e6274a9a8c727498034275ed5d5]
class it.polimi.ingsw.server.Model.Requirements.Requirement--><rect codeLine="28" fill="#FEFECE" filter="url(#f3nmu5w6fa8ll)" height="60.8047" id="it.polimi.ingsw.server.Model.Requirements.Requirement" style="stroke:#A80036;stroke-width:1.5;" width="139" x="198.5" y="211.9426"/><ellipse cx="226.55" cy="227.9426" fill="#B4A7E5" rx="11" ry="11" style="stroke:#A80036;stroke-width:1.0;"/><path d="M222.9719,223.7083 L222.9719,221.4426 L230.3469,221.4426 L230.3469,223.7083 L227.8938,223.7083 L227.8938,232.177 L230.3469,232.177 L230.3469,234.4426 L222.9719,234.4426 L222.9719,232.177 L225.4406,232.177 L225.4406,223.7083 L222.9719,223.7083 Z " fill="#000000"/><text fill="#000000" font-family="sans-serif" font-size="12" font-style="italic" lengthAdjust="spacing" textLength="78" x="243.45" y="232.0969">Requirement</text><line style="stroke:#A80036;stroke-width:1.5;" x1="199.5" x2="336.5" y1="243.9426" y2="243.9426"/><line style="stroke:#A80036;stroke-width:1.5;" x1="199.5" x2="336.5" y1="251.9426" y2="251.9426"/><ellipse cx="209.5" cy="262.9426" fill="#84BE84" rx="3" ry="3" style="stroke:#038048;stroke-width:1.0;"/><text fill="#000000" font-family="sans-serif" font-size="11" font-style="italic" lengthAdjust="spacing" textLength="113" x="218.5" y="266.1531">checkRequirement()</text><!--MD5=[d25b02c27bb5842881594f8214b96126]
class it.polimi.ingsw.server.Model.Requirements.ResourceRequirement--><rect codeLine="41" fill="#FEFECE" filter="url(#f3nmu5w6fa8ll)" height="163.2422" id="it.polimi.ingsw.server.Model.Requirements.ResourceRequirement" style="stroke:#A80036;stroke-width:1.5;" width="165" x="278.5" y="333.9426"/><ellipse cx="293.5" cy="349.9426" fill="#ADD1B2" rx="11" ry="11" style="stroke:#A80036;stroke-width:1.0;"/><path d="M295.9688,355.8176 Q295.3906,356.1301 294.75,356.2864 Q294.1094,356.4426 293.4063,356.4426 Q290.8906,356.4426 289.5781,354.7708 Q288.2656,353.0989 288.2656,349.9426 Q288.2656,346.7864 289.5781,345.1145 Q290.8906,343.4426 293.4063,343.4426 Q294.1094,343.4426 294.75,343.5989 Q295.4063,343.7551 295.9688,344.0676 L295.9688,346.8645 Q295.3281,346.2864 294.7344,346.0208 Q294.1563,345.7551 293.5156,345.7551 Q292.1719,345.7551 291.4844,346.8176 Q290.8125,347.8645 290.8125,349.9426 Q290.8125,352.0208 291.4844,353.0833 Q292.1719,354.1301 293.5156,354.1301 Q294.1563,354.1301 294.7344,353.8645 Q295.3281,353.5989 295.9688,353.0208 L295.9688,355.8176 Z " fill="#000000"/><text fill="#000000" font-family="sans-serif" font-size="12" lengthAdjust="spacing" textLength="133" x="307.5" y="354.0969">ResourceRequirement</text><line style="stroke:#A80036;stroke-width:1.5;" x1="279.5" x2="442.5" y1="365.9426" y2="365.9426"/><rect fill="none" height="6" style="stroke:#C82930;stroke-width:1.0;" width="6" x="286.5" y="373.9426"/><text fill="#000000" font-family="sans-serif" font-size="11" lengthAdjust="spacing" textLength="72" x="298.5" y="380.1531">quantity : int</text><line style="stroke:#A80036;stroke-width:1.5;" x1="279.5" x2="442.5" y1="386.7473" y2="386.7473"/><ellipse cx="289.5" cy="397.7473" fill="#84BE84" rx="3" ry="3" style="stroke:#038048;stroke-width:1.0;"/><text fill="#000000" font-family="sans-serif" font-size="11" lengthAdjust="spacing" textLength="134" x="298.5" y="400.9578">ResourceRequirement()</text><ellipse cx="289.5" cy="410.552" fill="#84BE84" rx="3" ry="3" style="stroke:#038048;stroke-width:1.0;"/><text fill="#000000" font-family="sans-serif" font-size="11" lengthAdjust="spacing" textLength="134" x="298.5" y="413.7625">ResourceRequirement()</text><ellipse cx="289.5" cy="423.3567" fill="#84BE84" rx="3" ry="3" style="stroke:#038048;stroke-width:1.0;"/><text fill="#000000" font-family="sans-serif" font-size="11" lengthAdjust="spacing" textLength="87" x="298.5" y="426.5671">applyDiscount()</text><ellipse cx="289.5" cy="436.1614" fill="#84BE84" rx="3" ry="3" style="stroke:#038048;stroke-width:1.0;"/><text fill="#000000" font-family="sans-serif" font-size="11" lengthAdjust="spacing" textLength="113" x="298.5" y="439.3718">checkRequirement()</text><ellipse cx="289.5" cy="448.9661" fill="#84BE84" rx="3" ry="3" style="stroke:#038048;stroke-width:1.0;"/><text fill="#000000" font-family="sans-serif" font-size="11" lengthAdjust="spacing" textLength="45" x="298.5" y="452.1765">equals()</text><ellipse cx="289.5" cy="461.7708" fill="#84BE84" rx="3" ry="3" style="stroke:#038048;stroke-width:1.0;"/><text fill="#000000" font-family="sans-serif" font-size="11" lengthAdjust="spacing" textLength="74" x="298.5" y="464.9812">getQuantity()</text><ellipse cx="289.5" cy="474.5754" fill="#84BE84" rx="3" ry="3" style="stroke:#038048;stroke-width:1.0;"/><text fill="#000000" font-family="sans-serif" font-size="11" lengthAdjust="spacing" textLength="107" x="298.5" y="477.7859">getResourceType()</text><ellipse cx="289.5" cy="487.3801" fill="#84BE84" rx="3" ry="3" style="stroke:#038048;stroke-width:1.0;"/><text fill="#000000" font-family="sans-serif" font-size="11" lengthAdjust="spacing" textLength="52" x="298.5" y="490.5906">toString()</text><!--MD5=[9ddd7617f27c0fd785e7e2336786fa65]
class it.polimi.ingsw.server.Model.Enums.LevelEnum--><rect fill="#FEFECE" filter="url(#f3nmu5w6fa8ll)" height="48" id="it.polimi.ingsw.server.Model.Enums.LevelEnum" style="stroke:#A80036;stroke-width:1.5;" width="99" x="33.5" y="668.9426"/><ellipse cx="48.5" cy="684.9426" fill="#ADD1B2" rx="11" ry="11" style="stroke:#A80036;stroke-width:1.0;"/><path d="M50.9688,690.8176 Q50.3906,691.1301 49.75,691.2864 Q49.1094,691.4426 48.4063,691.4426 Q45.8906,691.4426 44.5781,689.7708 Q43.2656,688.0989 43.2656,684.9426 Q43.2656,681.7864 44.5781,680.1145 Q45.8906,678.4426 48.4063,678.4426 Q49.1094,678.4426 49.75,678.5989 Q50.4063,678.7551 50.9688,679.0676 L50.9688,681.8645 Q50.3281,681.2864 49.7344,681.0208 Q49.1563,680.7551 48.5156,680.7551 Q47.1719,680.7551 46.4844,681.8176 Q45.8125,682.8645 45.8125,684.9426 Q45.8125,687.0208 46.4844,688.0833 Q47.1719,689.1301 48.5156,689.1301 Q49.1563,689.1301 49.7344,688.8645 Q50.3281,688.5989 50.9688,688.0208 L50.9688,690.8176 Z " fill="#000000"/><text fill="#000000" font-family="sans-serif" font-size="12" lengthAdjust="spacing" textLength="67" x="62.5" y="689.0969">LevelEnum</text><line style="stroke:#A80036;stroke-width:1.5;" x1="34.5" x2="131.5" y1="700.9426" y2="700.9426"/><line style="stroke:#A80036;stroke-width:1.5;" x1="34.5" x2="131.5" y1="708.9426" y2="708.9426"/><!--MD5=[12648000a58003ca1c2150b0afcfeea0]
class it.polimi.ingsw.server.Model.Enums.TypeEnum--><rect fill="#FEFECE" filter="url(#f3nmu5w6fa8ll)" height="48" id="it.polimi.ingsw.server.Model.Enums.TypeEnum" style="stroke:#A80036;stroke-width:1.5;" width="97" x="167.5" y="668.9426"/><ellipse cx="182.5" cy="684.9426" fill="#ADD1B2" rx="11" ry="11" style="stroke:#A80036;stroke-width:1.0;"/><path d="M184.9688,690.8176 Q184.3906,691.1301 183.75,691.2864 Q183.1094,691.4426 182.4063,691.4426 Q179.8906,691.4426 178.5781,689.7708 Q177.2656,688.0989 177.2656,684.9426 Q177.2656,681.7864 178.5781,680.1145 Q179.8906,678.4426 182.4063,678.4426 Q183.1094,678.4426 183.75,678.5989 Q184.4063,678.7551 184.9688,679.0676 L184.9688,681.8645 Q184.3281,681.2864 183.7344,681.0208 Q183.1563,680.7551 182.5156,680.7551 Q181.1719,680.7551 180.4844,681.8176 Q179.8125,682.8645 179.8125,684.9426 Q179.8125,687.0208 180.4844,688.0833 Q181.1719,689.1301 182.5156,689.1301 Q183.1563,689.1301 183.7344,688.8645 Q184.3281,688.5989 184.9688,688.0208 L184.9688,690.8176 Z " fill="#000000"/><text fill="#000000" font-family="sans-serif" font-size="12" lengthAdjust="spacing" textLength="65" x="196.5" y="689.0969">TypeEnum</text><line style="stroke:#A80036;stroke-width:1.5;" x1="168.5" x2="263.5" y1="700.9426" y2="700.9426"/><line style="stroke:#A80036;stroke-width:1.5;" x1="168.5" x2="263.5" y1="708.9426" y2="708.9426"/><!--MD5=[61e2b70fc86cd1fbbb8a31d82e121482]
class it.polimi.ingsw.server.Model.Enums.ResourceEnum--><rect fill="#FEFECE" filter="url(#f3nmu5w6fa8ll)" height="48" id="it.polimi.ingsw.server.Model.Enums.ResourceEnum" style="stroke:#A80036;stroke-width:1.5;" width="123" x="299.5" y="668.9426"/><ellipse cx="314.5" cy="684.9426" fill="#ADD1B2" rx="11" ry="11" style="stroke:#A80036;stroke-width:1.0;"/><path d="M316.9688,690.8176 Q316.3906,691.1301 315.75,691.2864 Q315.1094,691.4426 314.4063,691.4426 Q311.8906,691.4426 310.5781,689.7708 Q309.2656,688.0989 309.2656,684.9426 Q309.2656,681.7864 310.5781,680.1145 Q311.8906,678.4426 314.4063,678.4426 Q315.1094,678.4426 315.75,678.5989 Q316.4063,678.7551 316.9688,679.0676 L316.9688,681.8645 Q316.3281,681.2864 315.7344,681.0208 Q315.1563,680.7551 314.5156,680.7551 Q313.1719,680.7551 312.4844,681.8176 Q311.8125,682.8645 311.8125,684.9426 Q311.8125,687.0208 312.4844,688.0833 Q313.1719,689.1301 314.5156,689.1301 Q315.1563,689.1301 315.7344,688.8645 Q316.3281,688.5989 316.9688,688.0208 L316.9688,690.8176 Z " fill="#000000"/><text fill="#000000" font-family="sans-serif" font-size="12" lengthAdjust="spacing" textLength="91" x="328.5" y="689.0969">ResourceEnum</text><line style="stroke:#A80036;stroke-width:1.5;" x1="300.5" x2="421.5" y1="700.9426" y2="700.9426"/><line style="stroke:#A80036;stroke-width:1.5;" x1="300.5" x2="421.5" y1="708.9426" y2="708.9426"/><!--MD5=[8bbec685b2a85a45af9dee1bb928a5e8]
reverse link it.polimi.ingsw.server.Model.Requirements.Requirement to it.polimi.ingsw.server.Model.Requirements.CardRequirement--><path codeLine="58" d="M241.88,290.9526 C233.5,306.2026 224,323.4826 214.83,340.1726 " fill="none" id="it.polimi.ingsw.server.Model.Requirements.Requirement-backto-it.polimi.ingsw.server.Model.Requirements.CardRequirement" style="stroke:#A80036;stroke-width:1.0;stroke-dasharray:7.0,7.0;"/><polygon fill="none" points="235.86,287.3826,251.63,273.2326,248.13,294.1226,235.86,287.3826" style="stroke:#A80036;stroke-width:1.0;"/><!--MD5=[30c8bfe0cdf407c2438ed60e8410cb22]
reverse link it.polimi.ingsw.server.Model.Requirements.CardRequirement to it.polimi.ingsw.server.Model.Enums.LevelEnum--><path codeLine="59" d="M145.38,503.0926 C126.32,560.7826 102.66,632.4126 90.7,668.6326 " fill="none" id="it.polimi.ingsw.server.Model.Requirements.CardRequirement-backto-it.polimi.ingsw.server.Model.Enums.LevelEnum" style="stroke:#A80036;stroke-width:1.0;"/><polygon fill="#FFFFFF" points="149.49,490.6326,143.8118,495.0776,145.7309,502.0286,151.4091,497.5837,149.49,490.6326" style="stroke:#A80036;stroke-width:1.0;"/><text fill="#000000" font-family="sans-serif" font-size="13" lengthAdjust="spacing" textLength="63" x="114" y="614.0095">cardLevel</text><!--MD5=[4079f9e61bad4ce183a110733a16e88f]
reverse link it.polimi.ingsw.server.Model.Requirements.CardRequirement to it.polimi.ingsw.server.Model.Enums.TypeEnum--><path codeLine="60" d="M187.32,503.8126 C196.1,561.3826 206.95,632.5626 212.45,668.6326 " fill="none" id="it.polimi.ingsw.server.Model.Requirements.CardRequirement-backto-it.polimi.ingsw.server.Model.Enums.TypeEnum" style="stroke:#A80036;stroke-width:1.0;"/><polygon fill="#FFFFFF" points="185.31,490.6326,182.2585,497.1663,187.1159,502.496,190.1674,495.9623,185.31,490.6326" style="stroke:#A80036;stroke-width:1.0;"/><text fill="#000000" font-family="sans-serif" font-size="13" lengthAdjust="spacing" textLength="60" x="205" y="614.0095">cardType</text><!--MD5=[610b7390d118c205d8420b5d0f2a3453]
reverse link it.polimi.ingsw.server.Model.Requirements.Requirement to it.polimi.ingsw.server.Model.Requirements.ResourceRequirement--><path codeLine="61" d="M293.82,290.9126 C301.09,304.2826 309.21,319.2126 317.22,333.9426 " fill="none" id="it.polimi.ingsw.server.Model.Requirements.Requirement-backto-it.polimi.ingsw.server.Model.Requirements.ResourceRequirement" style="stroke:#A80036;stroke-width:1.0;stroke-dasharray:7.0,7.0;"/><polygon fill="none" points="287.61,294.1426,284.2,273.2326,299.9,287.4526,287.61,294.1426" style="stroke:#A80036;stroke-width:1.0;"/><!--MD5=[e94cfd88dc5cf3dacb9574c206087b0c]
reverse link it.polimi.ingsw.server.Model.Requirements.ResourceRequirement to it.polimi.ingsw.server.Model.Enums.ResourceEnum--><path codeLine="62" d="M361,510.5726 C361,566.9826 361,634.2826 361,668.8726 " fill="none" id="it.polimi.ingsw.server.Model.Requirements.ResourceRequirement-backto-it.polimi.ingsw.server.Model.Enums.ResourceEnum" style="stroke:#A80036;stroke-width:1.0;"/><polygon fill="#FFFFFF" points="361,497.2426,357,503.2426,361,509.2426,365,503.2426,361,497.2426" style="stroke:#A80036;stroke-width:1.0;"/><text fill="#000000" font-family="sans-serif" font-size="13" lengthAdjust="spacing" textLength="88" x="362" y="614.0095">resourceType</text><text fill="#888888" font-family="sans-serif" font-size="10" lengthAdjust="spacing" textLength="0" x="536" y="748.2249"/><text fill="#888888" font-family="sans-serif" font-size="10" lengthAdjust="spacing" textLength="0" x="536" y="759.8655"/><!--MD5=[4754f36496db71f48c128091bd58b98c]
@startuml

title __REQUIREMENTS's Class Diagram__\n

  namespace it.polimi.ingsw {
    namespace server {
      namespace Model {
        namespace Requirements {
          class it.polimi.ingsw.server.Model.Requirements.CardRequirement {
              - quantity : int
              + CardRequirement()
              + CardRequirement()
              + checkRequirement()
              + getCardType()
              + getLevel()
              + getQuantity()
              + toString()
          }
        }
      }
    }
  }
  

  namespace it.polimi.ingsw {
    namespace server {
      namespace Model {
        namespace Requirements {
          interface it.polimi.ingsw.server.Model.Requirements.Requirement {
              {abstract} + checkRequirement()
          }
        }
      }
    }
  }
  

  namespace it.polimi.ingsw {
    namespace server {
      namespace Model {
        namespace Requirements {
          class it.polimi.ingsw.server.Model.Requirements.ResourceRequirement {
              - quantity : int
              + ResourceRequirement()
              + ResourceRequirement()
              + applyDiscount()
              + checkRequirement()
              + equals()
              + getQuantity()
              + getResourceType()
              + toString()
          }
        }
      }
    }
  }
  

  it.polimi.ingsw.server.Model.Requirements.CardRequirement .up.|> it.polimi.ingsw.server.Model.Requirements.Requirement
  it.polimi.ingsw.server.Model.Requirements.CardRequirement o- - it.polimi.ingsw.server.Model.Enums.LevelEnum : cardLevel
  it.polimi.ingsw.server.Model.Requirements.CardRequirement o- - it.polimi.ingsw.server.Model.Enums.TypeEnum : cardType
  it.polimi.ingsw.server.Model.Requirements.ResourceRequirement .up.|> it.polimi.ingsw.server.Model.Requirements.Requirement
  it.polimi.ingsw.server.Model.Requirements.ResourceRequirement o- - it.polimi.ingsw.server.Model.Enums.ResourceEnum : resourceType


right footer


endfooter

@enduml

PlantUML version 1.2021.7(Sun May 23 14:40:07 CEST 2021)
(GPL source distribution)
Java Runtime: OpenJDK Runtime Environment
JVM: Dynamic Code Evolution 64-Bit Server VM
Default Encoding: UTF-8
Language: en
Country: US
--></g></svg>