<?xml version="1.0" encoding="UTF-8" standalone="no"?><svg xmlns="http://www.w3.org/2000/svg" xmlns:xlink="http://www.w3.org/1999/xlink" contentScriptType="application/ecmascript" contentStyleType="text/css" height="1889px" preserveAspectRatio="none" style="width:1023px;height:1889px;background:#FFFFFF;" version="1.1" viewBox="0 0 1023 1889" width="1023px" zoomAndPan="magnify"><defs><filter height="300%" id="f1k49qsfb3wehp" width="300%" x="-1" y="-1"><feGaussianBlur result="blurOut" stdDeviation="2.0"/><feColorMatrix in="blurOut" result="blurOut2" type="matrix" values="0 0 0 0 0 0 0 0 0 0 0 0 0 0 0 0 0 0 .4 0"/><feOffset dx="4.0" dy="4.0" in="blurOut2" result="blurOut3"/><feBlend in="SourceGraphic" in2="blurOut3" mode="normal"/></filter></defs><g><text fill="#000000" font-family="sans-serif" font-size="18" lengthAdjust="spacing" text-decoration="underline" textLength="221" x="394.5" y="16.7225">SERVER's Class Diagram</text><text fill="#000000" font-family="sans-serif" font-size="18" lengthAdjust="spacing" textLength="0" x="508" y="37.6938"/><!--MD5=[432dd831305d7709bed0fe1447e3cfc7]
cluster it.polimi.ingsw--><polygon fill="#FFFFFF" filter="url(#f1k49qsfb3wehp)" points="16,47.9426,140,47.9426,147,70.2395,438,70.2395,438,1830.9426,16,1830.9426,16,47.9426" style="stroke:#000000;stroke-width:1.5;"/><line style="stroke:#000000;stroke-width:1.5;" x1="16" x2="147" y1="70.2395" y2="70.2395"/><text fill="#000000" font-family="sans-serif" font-size="14" font-weight="bold" lengthAdjust="spacing" textLength="118" x="20" y="62.9377">it.polimi.ingsw</text><!--MD5=[6ff9cca172c9c23be7720fa07ee26538]
cluster it.polimi.ingsw.server--><polygon fill="#FFFFFF" filter="url(#f1k49qsfb3wehp)" points="40,90.9426,97,90.9426,104,113.2395,414,113.2395,414,1806.9426,40,1806.9426,40,90.9426" style="stroke:#000000;stroke-width:1.5;"/><line style="stroke:#000000;stroke-width:1.5;" x1="40" x2="104" y1="113.2395" y2="113.2395"/><text fill="#000000" font-family="sans-serif" font-size="14" font-weight="bold" lengthAdjust="spacing" textLength="51" x="44" y="105.9377">server</text><!--MD5=[e71a63635fd684f543db9fddf7b7ffa0]
cluster it.polimi.ingsw.server.Controller--><polygon fill="#FFFFFF" filter="url(#f1k49qsfb3wehp)" points="462,1115.4426,728,1115.4426,735,1137.7395,738,1137.7395,738,1214.4426,462,1214.4426,462,1115.4426" style="stroke:#000000;stroke-width:1.5;"/><line style="stroke:#000000;stroke-width:1.5;" x1="462" x2="735" y1="1137.7395" y2="1137.7395"/><text fill="#000000" font-family="sans-serif" font-size="14" font-weight="bold" lengthAdjust="spacing" textLength="260" x="466" y="1130.4377">it.polimi.ingsw.server.Controller</text><!--MD5=[6644f379719c89a69245f782f93ed447]
cluster it.polimi.ingsw.server.Model--><polygon fill="#FFFFFF" filter="url(#f1k49qsfb3wehp)" points="762,1115.4426,996,1115.4426,1003,1137.7395,1006,1137.7395,1006,1214.4426,762,1214.4426,762,1115.4426" style="stroke:#000000;stroke-width:1.5;"/><line style="stroke:#000000;stroke-width:1.5;" x1="762" x2="1003" y1="1137.7395" y2="1137.7395"/><text fill="#000000" font-family="sans-serif" font-size="14" font-weight="bold" lengthAdjust="spacing" textLength="228" x="766" y="1130.4377">it.polimi.ingsw.server.Model</text><!--MD5=[79755ec2476f5a64d590efad664d2d5a]
class it.polimi.ingsw.server.ClientConnectionHandler--><rect codeLine="6" fill="#FEFECE" filter="url(#f1k49qsfb3wehp)" height="252.875" id="it.polimi.ingsw.server.ClientConnectionHandler" style="stroke:#A80036;stroke-width:1.5;" width="181" x="96.5" y="125.9426"/><ellipse cx="111.5" cy="141.9426" fill="#ADD1B2" rx="11" ry="11" style="stroke:#A80036;stroke-width:1.0;"/><path d="M113.9688,147.8176 Q113.3906,148.1301 112.75,148.2864 Q112.1094,148.4426 111.4063,148.4426 Q108.8906,148.4426 107.5781,146.7708 Q106.2656,145.0989 106.2656,141.9426 Q106.2656,138.7864 107.5781,137.1145 Q108.8906,135.4426 111.4063,135.4426 Q112.1094,135.4426 112.75,135.5989 Q113.4063,135.7551 113.9688,136.0676 L113.9688,138.8645 Q113.3281,138.2864 112.7344,138.0208 Q112.1563,137.7551 111.5156,137.7551 Q110.1719,137.7551 109.4844,138.8176 Q108.8125,139.8645 108.8125,141.9426 Q108.8125,144.0208 109.4844,145.0833 Q110.1719,146.1301 111.5156,146.1301 Q112.1563,146.1301 112.7344,145.8645 Q113.3281,145.5989 113.9688,145.0208 L113.9688,147.8176 Z " fill="#000000"/><text fill="#000000" font-family="sans-serif" font-size="12" lengthAdjust="spacing" textLength="149" x="125.5" y="146.0969">ClientConnectionHandler</text><line style="stroke:#A80036;stroke-width:1.5;" x1="97.5" x2="276.5" y1="157.9426" y2="157.9426"/><rect fill="none" height="6" style="stroke:#C82930;stroke-width:1.0;" width="6" x="104.5" y="165.9426"/><text fill="#000000" font-family="sans-serif" font-size="11" lengthAdjust="spacing" textLength="79" x="116.5" y="172.1531">client : Socket</text><rect fill="none" height="6" style="stroke:#C82930;stroke-width:1.0;" width="6" x="104.5" y="178.7473"/><text fill="#000000" font-family="sans-serif" font-size="11" lengthAdjust="spacing" textLength="151" x="116.5" y="184.9578">connectedPlayerIndex : int</text><rect fill="none" height="6" style="stroke:#C82930;stroke-width:1.0;" width="6" x="104.5" y="191.552"/><text fill="#000000" font-family="sans-serif" font-size="11" lengthAdjust="spacing" textLength="112" x="116.5" y="197.7625">keepAlive : boolean</text><rect fill="none" height="6" style="stroke:#C82930;stroke-width:1.0;" width="6" x="104.5" y="204.3567"/><text fill="#000000" font-family="sans-serif" font-size="11" lengthAdjust="spacing" textLength="133" x="116.5" y="210.5671">ois : ObjectInputStream</text><rect fill="none" height="6" style="stroke:#C82930;stroke-width:1.0;" width="6" x="104.5" y="217.1614"/><text fill="#000000" font-family="sans-serif" font-size="11" lengthAdjust="spacing" textLength="147" x="116.5" y="223.3718">oos : ObjectOutputStream</text><rect fill="none" height="6" style="stroke:#C82930;stroke-width:1.0;" width="6" x="104.5" y="229.9661"/><text fill="#000000" font-family="sans-serif" font-size="11" lengthAdjust="spacing" textLength="133" x="116.5" y="236.1765">waitingPlayerIndex : int</text><line style="stroke:#A80036;stroke-width:1.5;" x1="97.5" x2="276.5" y1="242.7708" y2="242.7708"/><ellipse cx="107.5" cy="253.7708" fill="#84BE84" rx="3" ry="3" style="stroke:#038048;stroke-width:1.0;"/><text fill="#000000" font-family="sans-serif" font-size="11" lengthAdjust="spacing" textLength="147" x="116.5" y="256.9812">ClientConnectionHandler()</text><ellipse cx="107.5" cy="266.5754" fill="#84BE84" rx="3" ry="3" style="stroke:#038048;stroke-width:1.0;"/><text fill="#000000" font-family="sans-serif" font-size="11" lengthAdjust="spacing" textLength="37" x="116.5" y="269.7859">close()</text><ellipse cx="107.5" cy="279.3801" fill="#84BE84" rx="3" ry="3" style="stroke:#038048;stroke-width:1.0;"/><text fill="#000000" font-family="sans-serif" font-size="11" lengthAdjust="spacing" textLength="124" x="116.5" y="282.5906">handleDisconnection()</text><ellipse cx="107.5" cy="292.1848" fill="#84BE84" rx="3" ry="3" style="stroke:#038048;stroke-width:1.0;"/><text fill="#000000" font-family="sans-serif" font-size="11" lengthAdjust="spacing" textLength="65" x="116.5" y="295.3953">isStillAlive()</text><ellipse cx="107.5" cy="304.9895" fill="#84BE84" rx="3" ry="3" style="stroke:#038048;stroke-width:1.0;"/><text fill="#000000" font-family="sans-serif" font-size="11" lengthAdjust="spacing" textLength="27" x="116.5" y="308.2">run()</text><ellipse cx="107.5" cy="317.7942" fill="#84BE84" rx="3" ry="3" style="stroke:#038048;stroke-width:1.0;"/><text fill="#000000" font-family="sans-serif" font-size="11" lengthAdjust="spacing" textLength="84" x="116.5" y="321.0046">sendMessage()</text><ellipse cx="107.5" cy="330.5989" fill="#84BE84" rx="3" ry="3" style="stroke:#038048;stroke-width:1.0;"/><text fill="#000000" font-family="sans-serif" font-size="11" lengthAdjust="spacing" textLength="152" x="116.5" y="333.8093">setConnectedPlayerIndex()</text><ellipse cx="107.5" cy="343.4036" fill="#84BE84" rx="3" ry="3" style="stroke:#038048;stroke-width:1.0;"/><text fill="#000000" font-family="sans-serif" font-size="11" lengthAdjust="spacing" textLength="81" x="116.5" y="346.614">setKeepAlive()</text><ellipse cx="107.5" cy="356.2083" fill="#84BE84" rx="3" ry="3" style="stroke:#038048;stroke-width:1.0;"/><text fill="#000000" font-family="sans-serif" font-size="11" lengthAdjust="spacing" textLength="134" x="116.5" y="359.4187">setWaitingPlayerIndex()</text><ellipse cx="107.5" cy="369.0129" fill="#84BE84" rx="3" ry="3" style="stroke:#038048;stroke-width:1.0;"/><text fill="#000000" font-family="sans-serif" font-size="11" lengthAdjust="spacing" textLength="84" x="116.5" y="372.2234">startListening()</text><!--MD5=[6a2f3f18100bc117bf4b9f5f685b8c3b]
class it.polimi.ingsw.server.SendMessageToClient--><rect codeLine="30" fill="#FEFECE" filter="url(#f1k49qsfb3wehp)" height="291.2891" id="it.polimi.ingsw.server.SendMessageToClient" style="stroke:#A80036;stroke-width:1.5;" width="232" x="166" y="1028.9426"/><ellipse cx="212.75" cy="1044.9426" fill="#ADD1B2" rx="11" ry="11" style="stroke:#A80036;stroke-width:1.0;"/><path d="M215.2188,1050.8176 Q214.6406,1051.1301 214,1051.2864 Q213.3594,1051.4426 212.6563,1051.4426 Q210.1406,1051.4426 208.8281,1049.7708 Q207.5156,1048.0989 207.5156,1044.9426 Q207.5156,1041.7864 208.8281,1040.1145 Q210.1406,1038.4426 212.6563,1038.4426 Q213.3594,1038.4426 214,1038.5989 Q214.6563,1038.7551 215.2188,1039.0676 L215.2188,1041.8645 Q214.5781,1041.2864 213.9844,1041.0208 Q213.4063,1040.7551 212.7656,1040.7551 Q211.4219,1040.7551 210.7344,1041.8176 Q210.0625,1042.8645 210.0625,1044.9426 Q210.0625,1047.0208 210.7344,1048.0833 Q211.4219,1049.1301 212.7656,1049.1301 Q213.4063,1049.1301 213.9844,1048.8645 Q214.5781,1048.5989 215.2188,1048.0208 L215.2188,1050.8176 Z " fill="#000000"/><text fill="#000000" font-family="sans-serif" font-size="12" lengthAdjust="spacing" textLength="130" x="233.25" y="1049.0969">SendMessageToClient</text><line style="stroke:#A80036;stroke-width:1.5;" x1="167" x2="397" y1="1060.9426" y2="1060.9426"/><rect fill="none" height="6" style="stroke:#C82930;stroke-width:1.0;" width="6" x="174" y="1068.9426"/><text fill="#000000" font-family="sans-serif" font-size="11" lengthAdjust="spacing" textLength="171" x="186" y="1075.1531">lobbyCompleteOnce : boolean</text><line style="stroke:#A80036;stroke-width:1.5;" x1="167" x2="397" y1="1081.7473" y2="1081.7473"/><ellipse cx="177" cy="1092.7473" fill="#84BE84" rx="3" ry="3" style="stroke:#038048;stroke-width:1.0;"/><text fill="#000000" font-family="sans-serif" font-size="11" lengthAdjust="spacing" textLength="131" x="186" y="1095.9578">SendMessageToClient()</text><ellipse cx="177" cy="1105.552" fill="#84BE84" rx="3" ry="3" style="stroke:#038048;stroke-width:1.0;"/><text fill="#000000" font-family="sans-serif" font-size="11" lengthAdjust="spacing" textLength="71" x="186" y="1108.7625">askNPlayer()</text><ellipse cx="177" cy="1118.3567" fill="#84BE84" rx="3" ry="3" style="stroke:#038048;stroke-width:1.0;"/><text fill="#000000" font-family="sans-serif" font-size="11" lengthAdjust="spacing" textLength="60" x="186" y="1121.5671">askName()</text><ellipse cx="177" cy="1131.1614" fill="#84BE84" rx="3" ry="3" style="stroke:#038048;stroke-width:1.0;"/><text fill="#000000" font-family="sans-serif" font-size="11" lengthAdjust="spacing" textLength="60" x="186" y="1134.3718">askName()</text><ellipse cx="177" cy="1143.9661" fill="#84BE84" rx="3" ry="3" style="stroke:#038048;stroke-width:1.0;"/><text fill="#000000" font-family="sans-serif" font-size="11" lengthAdjust="spacing" textLength="60" x="186" y="1147.1765">askName()</text><ellipse cx="177" cy="1156.7708" fill="#84BE84" rx="3" ry="3" style="stroke:#038048;stroke-width:1.0;"/><text fill="#000000" font-family="sans-serif" font-size="11" lengthAdjust="spacing" textLength="206" x="186" y="1159.9812">completelyRemoveFromConnected()</text><ellipse cx="177" cy="1169.5754" fill="#84BE84" rx="3" ry="3" style="stroke:#038048;stroke-width:1.0;"/><text fill="#000000" font-family="sans-serif" font-size="11" lengthAdjust="spacing" textLength="64" x="186" y="1172.7859">getServer()</text><ellipse cx="177" cy="1182.3801" fill="#84BE84" rx="3" ry="3" style="stroke:#038048;stroke-width:1.0;"/><text fill="#000000" font-family="sans-serif" font-size="11" lengthAdjust="spacing" textLength="134" x="186" y="1185.5906">isLobbyCompleteOnce()</text><ellipse cx="177" cy="1195.1848" fill="#84BE84" rx="3" ry="3" style="stroke:#038048;stroke-width:1.0;"/><text fill="#000000" font-family="sans-serif" font-size="11" lengthAdjust="spacing" textLength="98" x="186" y="1198.3953">sendAlreadyFull()</text><ellipse cx="177" cy="1207.9895" fill="#84BE84" rx="3" ry="3" style="stroke:#038048;stroke-width:1.0;"/><text fill="#000000" font-family="sans-serif" font-size="11" lengthAdjust="spacing" textLength="98" x="186" y="1211.2">sendAlreadyFull()</text><ellipse cx="177" cy="1220.7942" fill="#84BE84" rx="3" ry="3" style="stroke:#038048;stroke-width:1.0;"/><text fill="#000000" font-family="sans-serif" font-size="11" lengthAdjust="spacing" textLength="141" x="186" y="1224.0046">sendBroadcastMessage()</text><ellipse cx="177" cy="1233.5989" fill="#84BE84" rx="3" ry="3" style="stroke:#038048;stroke-width:1.0;"/><text fill="#000000" font-family="sans-serif" font-size="11" lengthAdjust="spacing" textLength="95" x="186" y="1236.8093">sendConnected()</text><ellipse cx="177" cy="1246.4036" fill="#84BE84" rx="3" ry="3" style="stroke:#038048;stroke-width:1.0;"/><text fill="#000000" font-family="sans-serif" font-size="11" lengthAdjust="spacing" textLength="84" x="186" y="1249.614">sendMessage()</text><ellipse cx="177" cy="1259.2083" fill="#84BE84" rx="3" ry="3" style="stroke:#038048;stroke-width:1.0;"/><text fill="#000000" font-family="sans-serif" font-size="11" lengthAdjust="spacing" textLength="73" x="186" y="1262.4187">sendToFirst()</text><ellipse cx="177" cy="1272.0129" fill="#84BE84" rx="3" ry="3" style="stroke:#038048;stroke-width:1.0;"/><text fill="#000000" font-family="sans-serif" font-size="11" lengthAdjust="spacing" textLength="81" x="186" y="1275.2234">sendToOther()</text><ellipse cx="177" cy="1284.8176" fill="#84BE84" rx="3" ry="3" style="stroke:#038048;stroke-width:1.0;"/><text fill="#000000" font-family="sans-serif" font-size="11" lengthAdjust="spacing" textLength="60" x="186" y="1288.0281">sendWait()</text><ellipse cx="177" cy="1297.6223" fill="#84BE84" rx="3" ry="3" style="stroke:#038048;stroke-width:1.0;"/><text fill="#000000" font-family="sans-serif" font-size="11" lengthAdjust="spacing" textLength="60" x="186" y="1300.8328">sendWait()</text><ellipse cx="177" cy="1310.427" fill="#84BE84" rx="3" ry="3" style="stroke:#038048;stroke-width:1.0;"/><text fill="#000000" font-family="sans-serif" font-size="11" lengthAdjust="spacing" textLength="116" x="186" y="1313.6375">setNullInConnected()</text><!--MD5=[2671b9329ad746abfef6116a5640822e]
class it.polimi.ingsw.server.Server--><rect codeLine="57" fill="#FEFECE" filter="url(#f1k49qsfb3wehp)" height="393.7266" id="it.polimi.ingsw.server.Server" style="stroke:#A80036;stroke-width:1.5;" width="342" x="56" y="1396.9426"/><ellipse cx="203.25" cy="1412.9426" fill="#ADD1B2" rx="11" ry="11" style="stroke:#A80036;stroke-width:1.0;"/><path d="M205.7188,1418.8176 Q205.1406,1419.1301 204.5,1419.2864 Q203.8594,1419.4426 203.1563,1419.4426 Q200.6406,1419.4426 199.3281,1417.7708 Q198.0156,1416.0989 198.0156,1412.9426 Q198.0156,1409.7864 199.3281,1408.1145 Q200.6406,1406.4426 203.1563,1406.4426 Q203.8594,1406.4426 204.5,1406.5989 Q205.1563,1406.7551 205.7188,1407.0676 L205.7188,1409.8645 Q205.0781,1409.2864 204.4844,1409.0208 Q203.9063,1408.7551 203.2656,1408.7551 Q201.9219,1408.7551 201.2344,1409.8176 Q200.5625,1410.8645 200.5625,1412.9426 Q200.5625,1415.0208 201.2344,1416.0833 Q201.9219,1417.1301 203.2656,1417.1301 Q203.9063,1417.1301 204.4844,1416.8645 Q205.0781,1416.5989 205.7188,1416.0208 L205.7188,1418.8176 Z " fill="#000000"/><text fill="#000000" font-family="sans-serif" font-size="12" lengthAdjust="spacing" textLength="39" x="223.75" y="1417.0969">Server</text><line style="stroke:#A80036;stroke-width:1.5;" x1="57" x2="397" y1="1428.9426" y2="1428.9426"/><rect fill="none" height="6" style="stroke:#C82930;stroke-width:1.0;" width="6" x="64" y="1436.9426"/><text fill="#000000" font-family="sans-serif" font-size="11" lengthAdjust="spacing" text-decoration="underline" textLength="167" x="76" y="1443.1531">DEFAULT_PORT_NUMBER : int</text><rect fill="none" height="6" style="stroke:#C82930;stroke-width:1.0;" width="6" x="64" y="1449.7473"/><text fill="#000000" font-family="sans-serif" font-size="11" lengthAdjust="spacing" text-decoration="underline" textLength="142" x="76" y="1455.9578">MAX_PORT_NUMBER : int</text><rect fill="none" height="6" style="stroke:#C82930;stroke-width:1.0;" width="6" x="64" y="1462.552"/><text fill="#000000" font-family="sans-serif" font-size="11" lengthAdjust="spacing" text-decoration="underline" textLength="137" x="76" y="1468.7625">MIN_PORT_NUMBER : int</text><rect fill="none" height="6" style="stroke:#C82930;stroke-width:1.0;" width="6" x="64" y="1475.3567"/><text fill="#000000" font-family="sans-serif" font-size="11" lengthAdjust="spacing" textLength="316" x="76" y="1481.5671">connectedClients : ArrayList&lt;ClientConnectionHandler&gt;</text><rect fill="none" height="6" style="stroke:#C82930;stroke-width:1.0;" width="6" x="64" y="1488.1614"/><text fill="#000000" font-family="sans-serif" font-size="11" lengthAdjust="spacing" textLength="311" x="76" y="1494.3718">connectedNicknameSolver : HashMap&lt;String, Integer&gt;</text><rect fill="none" height="6" style="stroke:#C82930;stroke-width:1.0;" width="6" x="64" y="1500.9661"/><text fill="#000000" font-family="sans-serif" font-size="11" lengthAdjust="spacing" text-decoration="underline" textLength="124" x="76" y="1507.1765">kbdScanner : Scanner</text><rect fill="none" height="6" style="stroke:#C82930;stroke-width:1.0;" width="6" x="64" y="1513.7708"/><text fill="#000000" font-family="sans-serif" font-size="11" lengthAdjust="spacing" text-decoration="underline" textLength="94" x="76" y="1519.9812">portNumber : int</text><rect fill="none" height="6" style="stroke:#C82930;stroke-width:1.0;" width="6" x="64" y="1526.5754"/><text fill="#000000" font-family="sans-serif" font-size="11" lengthAdjust="spacing" textLength="298" x="76" y="1532.7859">waitingClients : ArrayList&lt;ClientConnectionHandler&gt;</text><line style="stroke:#A80036;stroke-width:1.5;" x1="57" x2="397" y1="1539.3801" y2="1539.3801"/><ellipse cx="67" cy="1550.3801" fill="#84BE84" rx="3" ry="3" style="stroke:#038048;stroke-width:1.0;"/><text fill="#000000" font-family="sans-serif" font-size="11" lengthAdjust="spacing" textLength="46" x="76" y="1553.5906">Server()</text><ellipse cx="67" cy="1563.1848" fill="#84BE84" rx="3" ry="3" style="stroke:#038048;stroke-width:1.0;"/><text fill="#000000" font-family="sans-serif" font-size="11" lengthAdjust="spacing" textLength="125" x="76" y="1566.3953">acceptWaitingClients()</text><ellipse cx="67" cy="1575.9895" fill="#84BE84" rx="3" ry="3" style="stroke:#038048;stroke-width:1.0;"/><text fill="#000000" font-family="sans-serif" font-size="11" lengthAdjust="spacing" textLength="133" x="76" y="1579.2">adjustConnectedIndex()</text><ellipse cx="67" cy="1588.7942" fill="#84BE84" rx="3" ry="3" style="stroke:#038048;stroke-width:1.0;"/><text fill="#000000" font-family="sans-serif" font-size="11" lengthAdjust="spacing" textLength="162" x="76" y="1592.0046">broadcastConnectedClients()</text><ellipse cx="67" cy="1601.5989" fill="#84BE84" rx="3" ry="3" style="stroke:#038048;stroke-width:1.0;"/><text fill="#000000" font-family="sans-serif" font-size="11" lengthAdjust="spacing" textLength="206" x="76" y="1604.8093">completelyRemoveFromConnected()</text><ellipse cx="67" cy="1614.4036" fill="#84BE84" rx="3" ry="3" style="stroke:#038048;stroke-width:1.0;"/><text fill="#000000" font-family="sans-serif" font-size="11" lengthAdjust="spacing" textLength="151" x="76" y="1617.614">fromWaitingToConnected()</text><ellipse cx="67" cy="1627.2083" fill="#84BE84" rx="3" ry="3" style="stroke:#038048;stroke-width:1.0;"/><text fill="#000000" font-family="sans-serif" font-size="11" lengthAdjust="spacing" textLength="124" x="76" y="1630.4187">getConnectedClients()</text><ellipse cx="67" cy="1640.0129" fill="#84BE84" rx="3" ry="3" style="stroke:#038048;stroke-width:1.0;"/><text fill="#000000" font-family="sans-serif" font-size="11" lengthAdjust="spacing" textLength="177" x="76" y="1643.2234">getConnectedNicknameSolver()</text><ellipse cx="67" cy="1652.8176" fill="#84BE84" rx="3" ry="3" style="stroke:#038048;stroke-width:1.0;"/><text fill="#000000" font-family="sans-serif" font-size="11" lengthAdjust="spacing" textLength="94" x="76" y="1656.0281">getPortNumber()</text><ellipse cx="67" cy="1665.6223" fill="#84BE84" rx="3" ry="3" style="stroke:#038048;stroke-width:1.0;"/><text fill="#000000" font-family="sans-serif" font-size="11" lengthAdjust="spacing" textLength="106" x="76" y="1668.8328">getWaitingClients()</text><ellipse cx="67" cy="1678.427" fill="#84BE84" rx="3" ry="3" style="stroke:#038048;stroke-width:1.0;"/><text fill="#000000" font-family="sans-serif" font-size="11" lengthAdjust="spacing" text-decoration="underline" textLength="36" x="76" y="1681.6375">main()</text><ellipse cx="67" cy="1691.2317" fill="#84BE84" rx="3" ry="3" style="stroke:#038048;stroke-width:1.0;"/><text fill="#000000" font-family="sans-serif" font-size="11" lengthAdjust="spacing" textLength="141" x="76" y="1694.4421">sendToConnectedClient()</text><ellipse cx="67" cy="1704.0364" fill="#84BE84" rx="3" ry="3" style="stroke:#038048;stroke-width:1.0;"/><text fill="#000000" font-family="sans-serif" font-size="11" lengthAdjust="spacing" textLength="123" x="76" y="1707.2468">sendToWaitingClient()</text><ellipse cx="67" cy="1716.8411" fill="#84BE84" rx="3" ry="3" style="stroke:#038048;stroke-width:1.0;"/><text fill="#000000" font-family="sans-serif" font-size="11" lengthAdjust="spacing" textLength="140" x="76" y="1720.0515">setConnectedNickname()</text><ellipse cx="67" cy="1729.6458" fill="#84BE84" rx="3" ry="3" style="stroke:#038048;stroke-width:1.0;"/><text fill="#000000" font-family="sans-serif" font-size="11" lengthAdjust="spacing" textLength="116" x="76" y="1732.8562">setNullInConnected()</text><ellipse cx="67" cy="1742.4504" fill="#84BE84" rx="3" ry="3" style="stroke:#038048;stroke-width:1.0;"/><text fill="#000000" font-family="sans-serif" font-size="11" lengthAdjust="spacing" textLength="170" x="76" y="1745.6609">updateConnectedClientIndex()</text><ellipse cx="67" cy="1755.2551" fill="#84BE84" rx="3" ry="3" style="stroke:#038048;stroke-width:1.0;"/><text fill="#000000" font-family="sans-serif" font-size="11" lengthAdjust="spacing" textLength="152" x="76" y="1758.4656">updateWaitingClientIndex()</text><rect fill="#F24D5C" height="6" style="stroke:#C82930;stroke-width:1.0;" width="6" x="64" y="1765.0598"/><text fill="#000000" font-family="sans-serif" font-size="11" lengthAdjust="spacing" textLength="125" x="76" y="1771.2703">closeServerHandlers()</text><rect fill="#F24D5C" height="6" style="stroke:#C82930;stroke-width:1.0;" width="6" x="64" y="1777.8645"/><text fill="#000000" font-family="sans-serif" font-size="11" lengthAdjust="spacing" text-decoration="underline" textLength="93" x="76" y="1784.075">setPortNumber()</text><!--MD5=[642f7780d08dde8720f6c6d98ee0c02d]
class it.polimi.ingsw.server.VirtualView--><rect codeLine="92" fill="#FEFECE" filter="url(#f1k49qsfb3wehp)" height="496.1641" id="it.polimi.ingsw.server.VirtualView" style="stroke:#A80036;stroke-width:1.5;" width="183" x="208.5" y="455.9426"/><ellipse cx="262.25" cy="471.9426" fill="#ADD1B2" rx="11" ry="11" style="stroke:#A80036;stroke-width:1.0;"/><path d="M264.7188,477.8176 Q264.1406,478.1301 263.5,478.2864 Q262.8594,478.4426 262.1563,478.4426 Q259.6406,478.4426 258.3281,476.7708 Q257.0156,475.0989 257.0156,471.9426 Q257.0156,468.7864 258.3281,467.1145 Q259.6406,465.4426 262.1563,465.4426 Q262.8594,465.4426 263.5,465.5989 Q264.1563,465.7551 264.7188,466.0676 L264.7188,468.8645 Q264.0781,468.2864 263.4844,468.0208 Q262.9063,467.7551 262.2656,467.7551 Q260.9219,467.7551 260.2344,468.8176 Q259.5625,469.8645 259.5625,471.9426 Q259.5625,474.0208 260.2344,475.0833 Q260.9219,476.1301 262.2656,476.1301 Q262.9063,476.1301 263.4844,475.8645 Q264.0781,475.5989 264.7188,475.0208 L264.7188,477.8176 Z " fill="#000000"/><text fill="#000000" font-family="sans-serif" font-size="12" lengthAdjust="spacing" textLength="67" x="282.75" y="476.0969">VirtualView</text><line style="stroke:#A80036;stroke-width:1.5;" x1="209.5" x2="390.5" y1="487.9426" y2="487.9426"/><line style="stroke:#A80036;stroke-width:1.5;" x1="209.5" x2="390.5" y1="495.9426" y2="495.9426"/><ellipse cx="219.5" cy="506.9426" fill="#84BE84" rx="3" ry="3" style="stroke:#038048;stroke-width:1.0;"/><text fill="#000000" font-family="sans-serif" font-size="11" lengthAdjust="spacing" textLength="72" x="228.5" y="510.1531">VirtualView()</text><ellipse cx="219.5" cy="519.7473" fill="#84BE84" rx="3" ry="3" style="stroke:#038048;stroke-width:1.0;"/><text fill="#000000" font-family="sans-serif" font-size="11" lengthAdjust="spacing" textLength="157" x="228.5" y="522.9578">handleDisconnectedPlayer()</text><ellipse cx="219.5" cy="532.552" fill="#84BE84" rx="3" ry="3" style="stroke:#038048;stroke-width:1.0;"/><text fill="#000000" font-family="sans-serif" font-size="11" lengthAdjust="spacing" textLength="118" x="228.5" y="535.7625">nameAlreadyTaken()</text><ellipse cx="219.5" cy="545.3567" fill="#84BE84" rx="3" ry="3" style="stroke:#038048;stroke-width:1.0;"/><text fill="#000000" font-family="sans-serif" font-size="11" lengthAdjust="spacing" textLength="67" x="228.5" y="548.5671">newPlayer()</text><ellipse cx="219.5" cy="558.1614" fill="#84BE84" rx="3" ry="3" style="stroke:#038048;stroke-width:1.0;"/><text fill="#000000" font-family="sans-serif" font-size="11" lengthAdjust="spacing" textLength="93" x="228.5" y="561.3718">notifyObserver()</text><ellipse cx="219.5" cy="570.9661" fill="#84BE84" rx="3" ry="3" style="stroke:#038048;stroke-width:1.0;"/><text fill="#000000" font-family="sans-serif" font-size="11" lengthAdjust="spacing" textLength="93" x="228.5" y="574.1765">notifyObserver()</text><ellipse cx="219.5" cy="583.7708" fill="#84BE84" rx="3" ry="3" style="stroke:#038048;stroke-width:1.0;"/><text fill="#000000" font-family="sans-serif" font-size="11" lengthAdjust="spacing" textLength="93" x="228.5" y="586.9812">notifyObserver()</text><ellipse cx="219.5" cy="596.5754" fill="#84BE84" rx="3" ry="3" style="stroke:#038048;stroke-width:1.0;"/><text fill="#000000" font-family="sans-serif" font-size="11" lengthAdjust="spacing" textLength="93" x="228.5" y="599.7859">notifyObserver()</text><ellipse cx="219.5" cy="609.3801" fill="#84BE84" rx="3" ry="3" style="stroke:#038048;stroke-width:1.0;"/><text fill="#000000" font-family="sans-serif" font-size="11" lengthAdjust="spacing" textLength="93" x="228.5" y="612.5906">notifyObserver()</text><ellipse cx="219.5" cy="622.1848" fill="#84BE84" rx="3" ry="3" style="stroke:#038048;stroke-width:1.0;"/><text fill="#000000" font-family="sans-serif" font-size="11" lengthAdjust="spacing" textLength="93" x="228.5" y="625.3953">notifyObserver()</text><ellipse cx="219.5" cy="634.9895" fill="#84BE84" rx="3" ry="3" style="stroke:#038048;stroke-width:1.0;"/><text fill="#000000" font-family="sans-serif" font-size="11" lengthAdjust="spacing" textLength="93" x="228.5" y="638.2">notifyObserver()</text><ellipse cx="219.5" cy="647.7942" fill="#84BE84" rx="3" ry="3" style="stroke:#038048;stroke-width:1.0;"/><text fill="#000000" font-family="sans-serif" font-size="11" lengthAdjust="spacing" textLength="93" x="228.5" y="651.0046">notifyObserver()</text><ellipse cx="219.5" cy="660.5989" fill="#84BE84" rx="3" ry="3" style="stroke:#038048;stroke-width:1.0;"/><text fill="#000000" font-family="sans-serif" font-size="11" lengthAdjust="spacing" textLength="93" x="228.5" y="663.8093">notifyObserver()</text><ellipse cx="219.5" cy="673.4036" fill="#84BE84" rx="3" ry="3" style="stroke:#038048;stroke-width:1.0;"/><text fill="#000000" font-family="sans-serif" font-size="11" lengthAdjust="spacing" textLength="93" x="228.5" y="676.614">notifyObserver()</text><ellipse cx="219.5" cy="686.2083" fill="#84BE84" rx="3" ry="3" style="stroke:#038048;stroke-width:1.0;"/><text fill="#000000" font-family="sans-serif" font-size="11" lengthAdjust="spacing" textLength="93" x="228.5" y="689.4187">notifyObserver()</text><ellipse cx="219.5" cy="699.0129" fill="#84BE84" rx="3" ry="3" style="stroke:#038048;stroke-width:1.0;"/><text fill="#000000" font-family="sans-serif" font-size="11" lengthAdjust="spacing" textLength="93" x="228.5" y="702.2234">notifyObserver()</text><ellipse cx="219.5" cy="711.8176" fill="#84BE84" rx="3" ry="3" style="stroke:#038048;stroke-width:1.0;"/><text fill="#000000" font-family="sans-serif" font-size="11" lengthAdjust="spacing" textLength="93" x="228.5" y="715.0281">notifyObserver()</text><ellipse cx="219.5" cy="724.6223" fill="#84BE84" rx="3" ry="3" style="stroke:#038048;stroke-width:1.0;"/><text fill="#000000" font-family="sans-serif" font-size="11" lengthAdjust="spacing" textLength="93" x="228.5" y="727.8328">notifyObserver()</text><ellipse cx="219.5" cy="737.427" fill="#84BE84" rx="3" ry="3" style="stroke:#038048;stroke-width:1.0;"/><text fill="#000000" font-family="sans-serif" font-size="11" lengthAdjust="spacing" textLength="93" x="228.5" y="740.6375">notifyObserver()</text><ellipse cx="219.5" cy="750.2317" fill="#84BE84" rx="3" ry="3" style="stroke:#038048;stroke-width:1.0;"/><text fill="#000000" font-family="sans-serif" font-size="11" lengthAdjust="spacing" textLength="93" x="228.5" y="753.4421">notifyObserver()</text><ellipse cx="219.5" cy="763.0364" fill="#84BE84" rx="3" ry="3" style="stroke:#038048;stroke-width:1.0;"/><text fill="#000000" font-family="sans-serif" font-size="11" lengthAdjust="spacing" textLength="93" x="228.5" y="766.2468">notifyObserver()</text><ellipse cx="219.5" cy="775.8411" fill="#84BE84" rx="3" ry="3" style="stroke:#038048;stroke-width:1.0;"/><text fill="#000000" font-family="sans-serif" font-size="11" lengthAdjust="spacing" textLength="93" x="228.5" y="779.0515">notifyObserver()</text><ellipse cx="219.5" cy="788.6458" fill="#84BE84" rx="3" ry="3" style="stroke:#038048;stroke-width:1.0;"/><text fill="#000000" font-family="sans-serif" font-size="11" lengthAdjust="spacing" textLength="93" x="228.5" y="791.8562">notifyObserver()</text><ellipse cx="219.5" cy="801.4504" fill="#84BE84" rx="3" ry="3" style="stroke:#038048;stroke-width:1.0;"/><text fill="#000000" font-family="sans-serif" font-size="11" lengthAdjust="spacing" textLength="93" x="228.5" y="804.6609">notifyObserver()</text><ellipse cx="219.5" cy="814.2551" fill="#84BE84" rx="3" ry="3" style="stroke:#038048;stroke-width:1.0;"/><text fill="#000000" font-family="sans-serif" font-size="11" lengthAdjust="spacing" textLength="93" x="228.5" y="817.4656">notifyObserver()</text><ellipse cx="219.5" cy="827.0598" fill="#84BE84" rx="3" ry="3" style="stroke:#038048;stroke-width:1.0;"/><text fill="#000000" font-family="sans-serif" font-size="11" lengthAdjust="spacing" textLength="93" x="228.5" y="830.2703">notifyObserver()</text><ellipse cx="219.5" cy="839.8645" fill="#84BE84" rx="3" ry="3" style="stroke:#038048;stroke-width:1.0;"/><text fill="#000000" font-family="sans-serif" font-size="11" lengthAdjust="spacing" textLength="93" x="228.5" y="843.075">notifyObserver()</text><ellipse cx="219.5" cy="852.6692" fill="#84BE84" rx="3" ry="3" style="stroke:#038048;stroke-width:1.0;"/><text fill="#000000" font-family="sans-serif" font-size="11" lengthAdjust="spacing" textLength="93" x="228.5" y="855.8796">notifyObserver()</text><ellipse cx="219.5" cy="865.4739" fill="#84BE84" rx="3" ry="3" style="stroke:#038048;stroke-width:1.0;"/><text fill="#000000" font-family="sans-serif" font-size="11" lengthAdjust="spacing" textLength="93" x="228.5" y="868.6843">notifyObserver()</text><ellipse cx="219.5" cy="878.2786" fill="#84BE84" rx="3" ry="3" style="stroke:#038048;stroke-width:1.0;"/><text fill="#000000" font-family="sans-serif" font-size="11" lengthAdjust="spacing" textLength="93" x="228.5" y="881.489">notifyObserver()</text><ellipse cx="219.5" cy="891.0833" fill="#84BE84" rx="3" ry="3" style="stroke:#038048;stroke-width:1.0;"/><text fill="#000000" font-family="sans-serif" font-size="11" lengthAdjust="spacing" textLength="59" x="228.5" y="894.2937">setGame()</text><ellipse cx="219.5" cy="903.8879" fill="#84BE84" rx="3" ry="3" style="stroke:#038048;stroke-width:1.0;"/><text fill="#000000" font-family="sans-serif" font-size="11" lengthAdjust="spacing" textLength="47" x="228.5" y="907.0984">update()</text><ellipse cx="219.5" cy="916.6926" fill="#84BE84" rx="3" ry="3" style="stroke:#038048;stroke-width:1.0;"/><text fill="#000000" font-family="sans-serif" font-size="11" lengthAdjust="spacing" textLength="47" x="228.5" y="919.9031">update()</text><ellipse cx="219.5" cy="929.4973" fill="#84BE84" rx="3" ry="3" style="stroke:#038048;stroke-width:1.0;"/><text fill="#000000" font-family="sans-serif" font-size="11" lengthAdjust="spacing" textLength="47" x="228.5" y="932.7078">update()</text><ellipse cx="219.5" cy="942.302" fill="#84BE84" rx="3" ry="3" style="stroke:#038048;stroke-width:1.0;"/><text fill="#000000" font-family="sans-serif" font-size="11" lengthAdjust="spacing" textLength="47" x="228.5" y="945.5125">update()</text><!--MD5=[815837106091b2c9eec451ae65356e3e]
class it.polimi.ingsw.server.Controller.Controller--><rect fill="#FEFECE" filter="url(#f1k49qsfb3wehp)" height="48" id="it.polimi.ingsw.server.Controller.Controller" style="stroke:#A80036;stroke-width:1.5;" width="90" x="478" y="1150.4426"/><ellipse cx="493" cy="1166.4426" fill="#ADD1B2" rx="11" ry="11" style="stroke:#A80036;stroke-width:1.0;"/><path d="M495.4688,1172.3176 Q494.8906,1172.6301 494.25,1172.7864 Q493.6094,1172.9426 492.9063,1172.9426 Q490.3906,1172.9426 489.0781,1171.2708 Q487.7656,1169.5989 487.7656,1166.4426 Q487.7656,1163.2864 489.0781,1161.6145 Q490.3906,1159.9426 492.9063,1159.9426 Q493.6094,1159.9426 494.25,1160.0989 Q494.9063,1160.2551 495.4688,1160.5676 L495.4688,1163.3645 Q494.8281,1162.7864 494.2344,1162.5208 Q493.6563,1162.2551 493.0156,1162.2551 Q491.6719,1162.2551 490.9844,1163.3176 Q490.3125,1164.3645 490.3125,1166.4426 Q490.3125,1168.5208 490.9844,1169.5833 Q491.6719,1170.6301 493.0156,1170.6301 Q493.6563,1170.6301 494.2344,1170.3645 Q494.8281,1170.0989 495.4688,1169.5208 L495.4688,1172.3176 Z " fill="#000000"/><text fill="#000000" font-family="sans-serif" font-size="12" lengthAdjust="spacing" textLength="58" x="507" y="1170.5969">Controller</text><line style="stroke:#A80036;stroke-width:1.5;" x1="479" x2="567" y1="1182.4426" y2="1182.4426"/><line style="stroke:#A80036;stroke-width:1.5;" x1="479" x2="567" y1="1190.4426" y2="1190.4426"/><!--MD5=[c15ebbe9cd6f0eb477e14499853c7b6d]
class it.polimi.ingsw.server.Model.Game--><rect fill="#FEFECE" filter="url(#f1k49qsfb3wehp)" height="48" id="it.polimi.ingsw.server.Model.Game" style="stroke:#A80036;stroke-width:1.5;" width="67" x="778.5" y="1150.4426"/><ellipse cx="793.5" cy="1166.4426" fill="#ADD1B2" rx="11" ry="11" style="stroke:#A80036;stroke-width:1.0;"/><path d="M795.9688,1172.3176 Q795.3906,1172.6301 794.75,1172.7864 Q794.1094,1172.9426 793.4063,1172.9426 Q790.8906,1172.9426 789.5781,1171.2708 Q788.2656,1169.5989 788.2656,1166.4426 Q788.2656,1163.2864 789.5781,1161.6145 Q790.8906,1159.9426 793.4063,1159.9426 Q794.1094,1159.9426 794.75,1160.0989 Q795.4063,1160.2551 795.9688,1160.5676 L795.9688,1163.3645 Q795.3281,1162.7864 794.7344,1162.5208 Q794.1563,1162.2551 793.5156,1162.2551 Q792.1719,1162.2551 791.4844,1163.3176 Q790.8125,1164.3645 790.8125,1166.4426 Q790.8125,1168.5208 791.4844,1169.5833 Q792.1719,1170.6301 793.5156,1170.6301 Q794.1563,1170.6301 794.7344,1170.3645 Q795.3281,1170.0989 795.9688,1169.5208 L795.9688,1172.3176 Z " fill="#000000"/><text fill="#000000" font-family="sans-serif" font-size="12" lengthAdjust="spacing" textLength="35" x="807.5" y="1170.5969">Game</text><line style="stroke:#A80036;stroke-width:1.5;" x1="779.5" x2="844.5" y1="1182.4426" y2="1182.4426"/><line style="stroke:#A80036;stroke-width:1.5;" x1="779.5" x2="844.5" y1="1190.4426" y2="1190.4426"/><!--MD5=[4fa97b1f7f4dbf29a2412d40fff24b3a]
reverse link it.polimi.ingsw.server.ClientConnectionHandler to it.polimi.ingsw.server.Server--><path codeLine="133" d="M166.37,392.1526 C139.5,596.4226 101.17,989.6526 148,1319.9426 C151.57,1345.1026 156.9,1371.1826 163.13,1396.8026 " fill="none" id="it.polimi.ingsw.server.ClientConnectionHandler-backto-it.polimi.ingsw.server.Server" style="stroke:#A80036;stroke-width:1.0;"/><polygon fill="#FFFFFF" points="168.12,378.9726,163.3637,384.3927,166.5375,390.8678,171.2938,385.4477,168.12,378.9726" style="stroke:#A80036;stroke-width:1.0;"/><text fill="#000000" font-family="sans-serif" font-size="13" lengthAdjust="spacing" textLength="41" x="128" y="995.0095">server</text><!--MD5=[f4091af9bde7f00c213c5dcd2d199766]
reverse link it.polimi.ingsw.server.ClientConnectionHandler to it.polimi.ingsw.server.VirtualView--><path codeLine="134" d="M221.72,391.5726 C226.88,412.0826 232.32,433.7326 237.84,455.6726 " fill="none" id="it.polimi.ingsw.server.ClientConnectionHandler-backto-it.polimi.ingsw.server.VirtualView" style="stroke:#A80036;stroke-width:1.0;"/><polygon fill="#FFFFFF" points="218.55,378.9526,216.1355,385.7475,221.4791,390.5897,223.8935,383.7948,218.55,378.9526" style="stroke:#A80036;stroke-width:1.0;"/><text fill="#000000" font-family="sans-serif" font-size="13" lengthAdjust="spacing" textLength="74" x="232" y="422.0095">virtualView</text><!--MD5=[5abccf99b911867b0e4693a996ab539d]
reverse link it.polimi.ingsw.server.SendMessageToClient to it.polimi.ingsw.server.Server--><path codeLine="135" d="M261.22,1333.1626 C258.49,1353.8926 255.67,1375.3426 252.86,1396.6226 " fill="none" id="it.polimi.ingsw.server.SendMessageToClient-backto-it.polimi.ingsw.server.Server" style="stroke:#A80036;stroke-width:1.0;"/><polygon fill="#FFFFFF" points="262.96,1320.0026,258.2096,1325.4279,261.3905,1331.8995,266.1409,1326.4743,262.96,1320.0026" style="stroke:#A80036;stroke-width:1.0;"/><text fill="#000000" font-family="sans-serif" font-size="13" lengthAdjust="spacing" textLength="41" x="259" y="1363.0095">server</text><!--MD5=[f0d92613b659c19cf0a55b7f6b7b4270]
reverse link it.polimi.ingsw.server.VirtualView to it.polimi.ingsw.server.Controller.Controller--><path codeLine="136" d="M397.14,909.0326 C442.35,1004.0126 490.76,1105.7126 511.98,1150.2826 " fill="none" id="it.polimi.ingsw.server.VirtualView-backto-it.polimi.ingsw.server.Controller.Controller" style="stroke:#A80036;stroke-width:1.0;"/><polygon fill="#FFFFFF" points="391.51,897.1926,390.4785,904.3296,396.6697,908.0267,397.7012,900.8898,391.51,897.1926" style="stroke:#A80036;stroke-width:1.0;"/><text fill="#000000" font-family="sans-serif" font-size="13" lengthAdjust="spacing" textLength="62" x="439" y="995.0095">controller</text><!--MD5=[f468f163b19e28cebb5b9c24a23c572d]
reverse link it.polimi.ingsw.server.VirtualView to it.polimi.ingsw.server.Model.Game--><path codeLine="137" d="M401.22,797.5626 C522.44,908.4826 717.8,1087.2426 786.84,1150.4226 " fill="none" id="it.polimi.ingsw.server.VirtualView-backto-it.polimi.ingsw.server.Model.Game" style="stroke:#A80036;stroke-width:1.0;"/><polygon fill="#FFFFFF" points="391.54,788.7026,393.2605,795.7055,400.3864,796.8107,398.6659,789.8079,391.54,788.7026" style="stroke:#A80036;stroke-width:1.0;"/><text fill="#000000" font-family="sans-serif" font-size="13" lengthAdjust="spacing" textLength="37" x="617" y="995.0095">game</text><!--MD5=[a9b48f892a6938c74f850a8d58adcd8b]
reverse link it.polimi.ingsw.server.VirtualView to it.polimi.ingsw.server.SendMessageToClient--><path codeLine="138" d="M289.99,965.3926 C289.16,987.0826 288.34,1008.4626 287.56,1028.7926 " fill="none" id="it.polimi.ingsw.server.VirtualView-backto-it.polimi.ingsw.server.SendMessageToClient" style="stroke:#A80036;stroke-width:1.0;"/><polygon fill="#FFFFFF" points="290.5,952.2226,286.2724,958.0645,290.0388,964.2138,294.2664,958.3719,290.5,952.2226" style="stroke:#A80036;stroke-width:1.0;"/><text fill="#000000" font-family="sans-serif" font-size="13" lengthAdjust="spacing" textLength="85" x="290" y="995.0095">sendToClient</text><text fill="#888888" font-family="sans-serif" font-size="10" lengthAdjust="spacing" textLength="0" x="1010" y="1846.2249"/><text fill="#888888" font-family="sans-serif" font-size="10" lengthAdjust="spacing" textLength="0" x="1010" y="1857.8655"/><text fill="#888888" font-family="sans-serif" font-size="10" lengthAdjust="spacing" textLength="420" x="590" y="1869.5061">PlantUML diagram generated by SketchIt! (https://bitbucket.org/pmesmeur/sketch.it)</text><text fill="#888888" font-family="sans-serif" font-size="10" lengthAdjust="spacing" textLength="414" x="596" y="1881.1467">For more information about this tool, please contact philippe.mesmeur@gmail.com</text><!--MD5=[2049ddc9d9bd102e00138bd51f5c6dde]
@startuml

title __SERVER's Class Diagram__\n

  namespace it.polimi.ingsw {
    namespace server {
      class it.polimi.ingsw.server.ClientConnectionHandler {
          - client : Socket
          - connectedPlayerIndex : int
          - keepAlive : boolean
          - ois : ObjectInputStream
          - oos : ObjectOutputStream
          - waitingPlayerIndex : int
          + ClientConnectionHandler()
          + close()
          + handleDisconnection()
          + isStillAlive()
          + run()
          + sendMessage()
          + setConnectedPlayerIndex()
          + setKeepAlive()
          + setWaitingPlayerIndex()
          + startListening()
      }
    }
  }
  

  namespace it.polimi.ingsw {
    namespace server {
      class it.polimi.ingsw.server.SendMessageToClient {
          - lobbyCompleteOnce : boolean
          + SendMessageToClient()
          + askNPlayer()
          + askName()
          + askName()
          + askName()
          + completelyRemoveFromConnected()
          + getServer()
          + isLobbyCompleteOnce()
          + sendAlreadyFull()
          + sendAlreadyFull()
          + sendBroadcastMessage()
          + sendConnected()
          + sendMessage()
          + sendToFirst()
          + sendToOther()
          + sendWait()
          + sendWait()
          + setNullInConnected()
      }
    }
  }
  

  namespace it.polimi.ingsw {
    namespace server {
      class it.polimi.ingsw.server.Server {
          {static} - DEFAULT_PORT_NUMBER : int
          {static} - MAX_PORT_NUMBER : int
          {static} - MIN_PORT_NUMBER : int
          - connectedClients : ArrayList<ClientConnectionHandler>
          - connectedNicknameSolver : HashMap<String, Integer>
          {static} - kbdScanner : Scanner
          {static} - portNumber : int
          - waitingClients : ArrayList<ClientConnectionHandler>
          + Server()
          + acceptWaitingClients()
          + adjustConnectedIndex()
          + broadcastConnectedClients()
          + completelyRemoveFromConnected()
          + fromWaitingToConnected()
          + getConnectedClients()
          + getConnectedNicknameSolver()
          + getPortNumber()
          + getWaitingClients()
          {static} + main()
          + sendToConnectedClient()
          + sendToWaitingClient()
          + setConnectedNickname()
          + setNullInConnected()
          + updateConnectedClientIndex()
          + updateWaitingClientIndex()
          - closeServerHandlers()
          {static} - setPortNumber()
      }
    }
  }
  

  namespace it.polimi.ingsw {
    namespace server {
      class it.polimi.ingsw.server.VirtualView {
          + VirtualView()
          + handleDisconnectedPlayer()
          + nameAlreadyTaken()
          + newPlayer()
          + notifyObserver()
          + notifyObserver()
          + notifyObserver()
          + notifyObserver()
          + notifyObserver()
          + notifyObserver()
          + notifyObserver()
          + notifyObserver()
          + notifyObserver()
          + notifyObserver()
          + notifyObserver()
          + notifyObserver()
          + notifyObserver()
          + notifyObserver()
          + notifyObserver()
          + notifyObserver()
          + notifyObserver()
          + notifyObserver()
          + notifyObserver()
          + notifyObserver()
          + notifyObserver()
          + notifyObserver()
          + notifyObserver()
          + notifyObserver()
          + notifyObserver()
          + notifyObserver()
          + setGame()
          + update()
          + update()
          + update()
          + update()
      }
    }
  }
  

  it.polimi.ingsw.server.ClientConnectionHandler o- - it.polimi.ingsw.server.Server : server
  it.polimi.ingsw.server.ClientConnectionHandler o- - it.polimi.ingsw.server.VirtualView : virtualView
  it.polimi.ingsw.server.SendMessageToClient o- - it.polimi.ingsw.server.Server : server
  it.polimi.ingsw.server.VirtualView o- - it.polimi.ingsw.server.Controller.Controller : controller
  it.polimi.ingsw.server.VirtualView o- - it.polimi.ingsw.server.Model.Game : game
  it.polimi.ingsw.server.VirtualView o- - it.polimi.ingsw.server.SendMessageToClient : sendToClient


right footer


PlantUML diagram generated by SketchIt! (https://bitbucket.org/pmesmeur/sketch.it)
For more information about this tool, please contact philippe.mesmeur@gmail.com
endfooter

@enduml

PlantUML version 1.2021.7(Sun May 23 14:40:07 CEST 2021)
(GPL source distribution)
Java Runtime: OpenJDK Runtime Environment
JVM: Dynamic Code Evolution 64-Bit Server VM
Default Encoding: UTF-8
Language: en
Country: US
--></g></svg>