<?xml version="1.0" encoding="UTF-8" standalone="no"?><svg xmlns="http://www.w3.org/2000/svg" xmlns:xlink="http://www.w3.org/1999/xlink" contentScriptType="application/ecmascript" contentStyleType="text/css" height="873px" preserveAspectRatio="none" style="width:1003px;height:873px;background:#FFFFFF;" version="1.1" viewBox="0 0 1003 873" width="1003px" zoomAndPan="magnify"><defs><filter height="300%" id="f3e9xwhx0o13h" width="300%" x="-1" y="-1"><feGaussianBlur result="blurOut" stdDeviation="2.0"/><feColorMatrix in="blurOut" result="blurOut2" type="matrix" values="0 0 0 0 0 0 0 0 0 0 0 0 0 0 0 0 0 0 .4 0"/><feOffset dx="4.0" dy="4.0" in="blurOut2" result="blurOut3"/><feBlend in="SourceGraphic" in2="blurOut3" mode="normal"/></filter></defs><g><text fill="#000000" font-family="sans-serif" font-size="18" lengthAdjust="spacing" text-decoration="underline" textLength="206" x="392" y="16.7225">TABLE's Class Diagram</text><text fill="#000000" font-family="sans-serif" font-size="18" lengthAdjust="spacing" textLength="0" x="498" y="37.6938"/><!--MD5=[432dd831305d7709bed0fe1447e3cfc7]
cluster it.polimi.ingsw--><polygon fill="#FFFFFF" filter="url(#f3e9xwhx0o13h)" points="16,47.9426,140,47.9426,147,70.2395,572,70.2395,572,689.9426,16,689.9426,16,47.9426" style="stroke:#000000;stroke-width:1.5;"/><line style="stroke:#000000;stroke-width:1.5;" x1="16" x2="147" y1="70.2395" y2="70.2395"/><text fill="#000000" font-family="sans-serif" font-size="14" font-weight="bold" lengthAdjust="spacing" textLength="118" x="20" y="62.9377">it.polimi.ingsw</text><!--MD5=[6ff9cca172c9c23be7720fa07ee26538]
cluster it.polimi.ingsw.server--><polygon fill="#FFFFFF" filter="url(#f3e9xwhx0o13h)" points="40,90.9426,97,90.9426,104,113.2395,548,113.2395,548,665.9426,40,665.9426,40,90.9426" style="stroke:#000000;stroke-width:1.5;"/><line style="stroke:#000000;stroke-width:1.5;" x1="40" x2="104" y1="113.2395" y2="113.2395"/><text fill="#000000" font-family="sans-serif" font-size="14" font-weight="bold" lengthAdjust="spacing" textLength="51" x="44" y="105.9377">server</text><!--MD5=[6644f379719c89a69245f782f93ed447]
cluster it.polimi.ingsw.server.Model--><polygon fill="#FFFFFF" filter="url(#f3e9xwhx0o13h)" points="64,133.9426,119,133.9426,126,156.2395,524,156.2395,524,641.9426,64,641.9426,64,133.9426" style="stroke:#000000;stroke-width:1.5;"/><line style="stroke:#000000;stroke-width:1.5;" x1="64" x2="126" y1="156.2395" y2="156.2395"/><text fill="#000000" font-family="sans-serif" font-size="14" font-weight="bold" lengthAdjust="spacing" textLength="49" x="68" y="148.9377">Model</text><!--MD5=[419117b42b064efe7b33cc44d03110f0]
cluster it.polimi.ingsw.server.Model.Table--><polygon fill="#FFFFFF" filter="url(#f3e9xwhx0o13h)" points="88,176.9426,138,176.9426,145,199.2395,500,199.2395,500,617.9426,88,617.9426,88,176.9426" style="stroke:#000000;stroke-width:1.5;"/><line style="stroke:#000000;stroke-width:1.5;" x1="88" x2="145" y1="199.2395" y2="199.2395"/><text fill="#000000" font-family="sans-serif" font-size="14" font-weight="bold" lengthAdjust="spacing" textLength="44" x="92" y="191.9377">Table</text><!--MD5=[48f7be51bd0005e6c97bce768131ca54]
cluster it.polimi.ingsw.server.Model.Enums--><polygon fill="#FFFFFF" filter="url(#f3e9xwhx0o13h)" points="143,738.9426,435,738.9426,442,761.2395,445,761.2395,445,837.9426,143,837.9426,143,738.9426" style="stroke:#000000;stroke-width:1.5;"/><line style="stroke:#000000;stroke-width:1.5;" x1="143" x2="442" y1="761.2395" y2="761.2395"/><text fill="#000000" font-family="sans-serif" font-size="14" font-weight="bold" lengthAdjust="spacing" textLength="286" x="147" y="753.9377">it.polimi.ingsw.server.Model.Enums</text><!--MD5=[95b043438b998d13a814029b92bae770]
cluster it.polimi.ingsw.server.Model.Table.CardMarket--><polygon fill="#FFFFFF" filter="url(#f3e9xwhx0o13h)" points="596,429.4426,976,429.4426,983,451.7395,986,451.7395,986,528.4426,596,528.4426,596,429.4426" style="stroke:#000000;stroke-width:1.5;"/><line style="stroke:#000000;stroke-width:1.5;" x1="596" x2="983" y1="451.7395" y2="451.7395"/><text fill="#000000" font-family="sans-serif" font-size="14" font-weight="bold" lengthAdjust="spacing" textLength="374" x="600" y="444.4377">it.polimi.ingsw.server.Model.Table.CardMarket</text><!--MD5=[8c2b701418bad59f3102e128070dde94]
class it.polimi.ingsw.server.Model.Table.ResourceMarket--><rect codeLine="8" fill="#FEFECE" filter="url(#f3e9xwhx0o13h)" height="227.2656" id="it.polimi.ingsw.server.Model.Table.ResourceMarket" style="stroke:#A80036;stroke-width:1.5;" width="381" x="103.5" y="374.9426"/><ellipse cx="241.75" cy="390.9426" fill="#ADD1B2" rx="11" ry="11" style="stroke:#A80036;stroke-width:1.0;"/><path d="M244.2188,396.8176 Q243.6406,397.1301 243,397.2864 Q242.3594,397.4426 241.6563,397.4426 Q239.1406,397.4426 237.8281,395.7708 Q236.5156,394.0989 236.5156,390.9426 Q236.5156,387.7864 237.8281,386.1145 Q239.1406,384.4426 241.6563,384.4426 Q242.3594,384.4426 243,384.5989 Q243.6563,384.7551 244.2188,385.0676 L244.2188,387.8645 Q243.5781,387.2864 242.9844,387.0208 Q242.4063,386.7551 241.7656,386.7551 Q240.4219,386.7551 239.7344,387.8176 Q239.0625,388.8645 239.0625,390.9426 Q239.0625,393.0208 239.7344,394.0833 Q240.4219,395.1301 241.7656,395.1301 Q242.4063,395.1301 242.9844,394.8645 Q243.5781,394.5989 244.2188,394.0208 L244.2188,396.8176 Z " fill="#000000"/><text fill="#000000" font-family="sans-serif" font-size="12" lengthAdjust="spacing" textLength="96" x="262.25" y="395.0969">ResourceMarket</text><line style="stroke:#A80036;stroke-width:1.5;" x1="104.5" x2="483.5" y1="406.9426" y2="406.9426"/><rect fill="none" height="6" style="stroke:#C82930;stroke-width:1.0;" width="6" x="111.5" y="414.9426"/><text fill="#000000" font-family="sans-serif" font-size="11" lengthAdjust="spacing" text-decoration="underline" textLength="80" x="123.5" y="421.1531">COL_SIZE : int</text><rect fill="none" height="6" style="stroke:#C82930;stroke-width:1.0;" width="6" x="111.5" y="427.7473"/><text fill="#000000" font-family="sans-serif" font-size="11" lengthAdjust="spacing" text-decoration="underline" textLength="85" x="123.5" y="433.9578">ROW_SIZE : int</text><rect fill="none" height="6" style="stroke:#C82930;stroke-width:1.0;" width="6" x="111.5" y="440.552"/><text fill="#000000" font-family="sans-serif" font-size="11" lengthAdjust="spacing" textLength="355" x="123.5" y="446.7625">marbleToResource : EnumMap&lt;MarbleEnum, ResourceEnum&gt;</text><rect fill="none" height="6" style="stroke:#C82930;stroke-width:1.0;" width="6" x="111.5" y="453.3567"/><text fill="#000000" font-family="sans-serif" font-size="11" lengthAdjust="spacing" textLength="190" x="123.5" y="459.5671">marketStructure : MarbleEnum[][]</text><line style="stroke:#A80036;stroke-width:1.5;" x1="104.5" x2="483.5" y1="466.1614" y2="466.1614"/><ellipse cx="114.5" cy="477.1614" fill="#84BE84" rx="3" ry="3" style="stroke:#038048;stroke-width:1.0;"/><text fill="#000000" font-family="sans-serif" font-size="11" lengthAdjust="spacing" textLength="99" x="123.5" y="480.3718">ResourceMarket()</text><ellipse cx="114.5" cy="489.9661" fill="#84BE84" rx="3" ry="3" style="stroke:#038048;stroke-width:1.0;"/><text fill="#000000" font-family="sans-serif" font-size="11" lengthAdjust="spacing" textLength="67" x="123.5" y="493.1765">getColSize()</text><ellipse cx="114.5" cy="502.7708" fill="#84BE84" rx="3" ry="3" style="stroke:#038048;stroke-width:1.0;"/><text fill="#000000" font-family="sans-serif" font-size="11" lengthAdjust="spacing" textLength="161" x="123.5" y="505.9812">getMarbleFromCoordinates()</text><ellipse cx="114.5" cy="515.5754" fill="#84BE84" rx="3" ry="3" style="stroke:#038048;stroke-width:1.0;"/><text fill="#000000" font-family="sans-serif" font-size="11" lengthAdjust="spacing" textLength="116" x="123.5" y="518.7859">getMarketStructure()</text><ellipse cx="114.5" cy="528.3801" fill="#84BE84" rx="3" ry="3" style="stroke:#038048;stroke-width:1.0;"/><text fill="#000000" font-family="sans-serif" font-size="11" lengthAdjust="spacing" textLength="73" x="123.5" y="531.5906">getRowSize()</text><ellipse cx="114.5" cy="541.1848" fill="#84BE84" rx="3" ry="3" style="stroke:#038048;stroke-width:1.0;"/><text fill="#000000" font-family="sans-serif" font-size="11" lengthAdjust="spacing" textLength="97" x="123.5" y="544.3953">getSpareMarble()</text><ellipse cx="114.5" cy="553.9895" fill="#84BE84" rx="3" ry="3" style="stroke:#038048;stroke-width:1.0;"/><text fill="#000000" font-family="sans-serif" font-size="11" lengthAdjust="spacing" textLength="182" x="123.5" y="557.2">obtainResourceFromMarbleList()</text><ellipse cx="114.5" cy="566.7942" fill="#84BE84" rx="3" ry="3" style="stroke:#038048;stroke-width:1.0;"/><text fill="#000000" font-family="sans-serif" font-size="11" lengthAdjust="spacing" textLength="102" x="123.5" y="570.0046">obtainResources()</text><rect fill="#F24D5C" height="6" style="stroke:#C82930;stroke-width:1.0;" width="6" x="111.5" y="576.5989"/><text fill="#000000" font-family="sans-serif" font-size="11" lengthAdjust="spacing" text-decoration="underline" textLength="78" x="123.5" y="582.8093">shuffleArray()</text><rect fill="#F24D5C" height="6" style="stroke:#C82930;stroke-width:1.0;" width="6" x="111.5" y="589.4036"/><text fill="#000000" font-family="sans-serif" font-size="11" lengthAdjust="spacing" textLength="160" x="123.5" y="595.614">updateMarbleArrangement()</text><!--MD5=[3523c7540da93c950736b7b8d78ae813]
class it.polimi.ingsw.server.Model.Table.Table--><rect codeLine="34" fill="#FEFECE" filter="url(#f3e9xwhx0o13h)" height="86.4141" id="it.polimi.ingsw.server.Model.Table.Table" style="stroke:#A80036;stroke-width:1.5;" width="143" x="310.5" y="211.9426"/><ellipse cx="361.75" cy="227.9426" fill="#ADD1B2" rx="11" ry="11" style="stroke:#A80036;stroke-width:1.0;"/><path d="M364.2188,233.8176 Q363.6406,234.1301 363,234.2864 Q362.3594,234.4426 361.6563,234.4426 Q359.1406,234.4426 357.8281,232.7708 Q356.5156,231.0989 356.5156,227.9426 Q356.5156,224.7864 357.8281,223.1145 Q359.1406,221.4426 361.6563,221.4426 Q362.3594,221.4426 363,221.5989 Q363.6563,221.7551 364.2188,222.0676 L364.2188,224.8645 Q363.5781,224.2864 362.9844,224.0208 Q362.4063,223.7551 361.7656,223.7551 Q360.4219,223.7551 359.7344,224.8176 Q359.0625,225.8645 359.0625,227.9426 Q359.0625,230.0208 359.7344,231.0833 Q360.4219,232.1301 361.7656,232.1301 Q362.4063,232.1301 362.9844,231.8645 Q363.5781,231.5989 364.2188,231.0208 L364.2188,233.8176 Z " fill="#000000"/><text fill="#000000" font-family="sans-serif" font-size="12" lengthAdjust="spacing" textLength="32" x="382.25" y="232.0969">Table</text><line style="stroke:#A80036;stroke-width:1.5;" x1="311.5" x2="452.5" y1="243.9426" y2="243.9426"/><line style="stroke:#A80036;stroke-width:1.5;" x1="311.5" x2="452.5" y1="251.9426" y2="251.9426"/><ellipse cx="321.5" cy="262.9426" fill="#84BE84" rx="3" ry="3" style="stroke:#038048;stroke-width:1.0;"/><text fill="#000000" font-family="sans-serif" font-size="11" lengthAdjust="spacing" textLength="39" x="330.5" y="266.1531">Table()</text><ellipse cx="321.5" cy="275.7473" fill="#84BE84" rx="3" ry="3" style="stroke:#038048;stroke-width:1.0;"/><text fill="#000000" font-family="sans-serif" font-size="11" lengthAdjust="spacing" textLength="91" x="330.5" y="278.9578">getCardMarket()</text><ellipse cx="321.5" cy="288.552" fill="#84BE84" rx="3" ry="3" style="stroke:#038048;stroke-width:1.0;"/><text fill="#000000" font-family="sans-serif" font-size="11" lengthAdjust="spacing" textLength="117" x="330.5" y="291.7625">getResourceMarket()</text><!--MD5=[85f587d30f490b4e64f4551450423256]
class it.polimi.ingsw.server.Model.Enums.MarbleEnum--><rect fill="#FEFECE" filter="url(#f3e9xwhx0o13h)" height="48" id="it.polimi.ingsw.server.Model.Enums.MarbleEnum" style="stroke:#A80036;stroke-width:1.5;" width="108" x="240" y="773.9426"/><ellipse cx="255" cy="789.9426" fill="#ADD1B2" rx="11" ry="11" style="stroke:#A80036;stroke-width:1.0;"/><path d="M257.4688,795.8176 Q256.8906,796.1301 256.25,796.2864 Q255.6094,796.4426 254.9063,796.4426 Q252.3906,796.4426 251.0781,794.7708 Q249.7656,793.0989 249.7656,789.9426 Q249.7656,786.7864 251.0781,785.1145 Q252.3906,783.4426 254.9063,783.4426 Q255.6094,783.4426 256.25,783.5989 Q256.9063,783.7551 257.4688,784.0676 L257.4688,786.8645 Q256.8281,786.2864 256.2344,786.0208 Q255.6563,785.7551 255.0156,785.7551 Q253.6719,785.7551 252.9844,786.8176 Q252.3125,787.8645 252.3125,789.9426 Q252.3125,792.0208 252.9844,793.0833 Q253.6719,794.1301 255.0156,794.1301 Q255.6563,794.1301 256.2344,793.8645 Q256.8281,793.5989 257.4688,793.0208 L257.4688,795.8176 Z " fill="#000000"/><text fill="#000000" font-family="sans-serif" font-size="12" lengthAdjust="spacing" textLength="76" x="269" y="794.0969">MarbleEnum</text><line style="stroke:#A80036;stroke-width:1.5;" x1="241" x2="347" y1="805.9426" y2="805.9426"/><line style="stroke:#A80036;stroke-width:1.5;" x1="241" x2="347" y1="813.9426" y2="813.9426"/><!--MD5=[eba51d5b6707e50a2bb83479dea1e827]
class it.polimi.ingsw.server.Model.Table.CardMarket.CardMarket--><rect fill="#FEFECE" filter="url(#f3e9xwhx0o13h)" height="48" id="it.polimi.ingsw.server.Model.Table.CardMarket.CardMarket" style="stroke:#A80036;stroke-width:1.5;" width="101" x="612.5" y="464.4426"/><ellipse cx="627.5" cy="480.4426" fill="#ADD1B2" rx="11" ry="11" style="stroke:#A80036;stroke-width:1.0;"/><path d="M629.9688,486.3176 Q629.3906,486.6301 628.75,486.7864 Q628.1094,486.9426 627.4063,486.9426 Q624.8906,486.9426 623.5781,485.2708 Q622.2656,483.5989 622.2656,480.4426 Q622.2656,477.2864 623.5781,475.6145 Q624.8906,473.9426 627.4063,473.9426 Q628.1094,473.9426 628.75,474.0989 Q629.4063,474.2551 629.9688,474.5676 L629.9688,477.3645 Q629.3281,476.7864 628.7344,476.5208 Q628.1563,476.2551 627.5156,476.2551 Q626.1719,476.2551 625.4844,477.3176 Q624.8125,478.3645 624.8125,480.4426 Q624.8125,482.5208 625.4844,483.5833 Q626.1719,484.6301 627.5156,484.6301 Q628.1563,484.6301 628.7344,484.3645 Q629.3281,484.0989 629.9688,483.5208 L629.9688,486.3176 Z " fill="#000000"/><text fill="#000000" font-family="sans-serif" font-size="12" lengthAdjust="spacing" textLength="69" x="641.5" y="484.5969">CardMarket</text><line style="stroke:#A80036;stroke-width:1.5;" x1="613.5" x2="712.5" y1="496.4426" y2="496.4426"/><line style="stroke:#A80036;stroke-width:1.5;" x1="613.5" x2="712.5" y1="504.4426" y2="504.4426"/><!--MD5=[736316ba34909df47705ab100378a5ee]
reverse link it.polimi.ingsw.server.Model.Table.ResourceMarket to it.polimi.ingsw.server.Model.Enums.MarbleEnum--><path codeLine="45" d="M294,615.5626 C294,674.9526 294,740.0426 294,773.7726 " fill="none" id="it.polimi.ingsw.server.Model.Table.ResourceMarket-backto-it.polimi.ingsw.server.Model.Enums.MarbleEnum" style="stroke:#A80036;stroke-width:1.0;"/><polygon fill="#FFFFFF" points="294,602.2026,290,608.2026,294,614.2026,298,608.2026,294,602.2026" style="stroke:#A80036;stroke-width:1.0;"/><text fill="#000000" font-family="sans-serif" font-size="13" lengthAdjust="spacing" textLength="80" x="295" y="719.0095">spareMarble</text><!--MD5=[f2dfe697475be02eba52b75c753598d4]
reverse link it.polimi.ingsw.server.Model.Table.Table to it.polimi.ingsw.server.Model.Table.CardMarket.CardMarket--><path codeLine="46" d="M443.61,306.6926 C503.06,355.6826 590.41,427.6326 634.82,464.2326 " fill="none" id="it.polimi.ingsw.server.Model.Table.Table-backto-it.polimi.ingsw.server.Model.Table.CardMarket.CardMarket" style="stroke:#A80036;stroke-width:1.0;"/><polygon fill="#FFFFFF" points="433.21,298.1326,435.2936,305.0362,442.4675,305.768,440.3839,298.8645,433.21,298.1326" style="stroke:#A80036;stroke-width:1.0;"/><text fill="#000000" font-family="sans-serif" font-size="13" lengthAdjust="spacing" textLength="73" x="490" y="341.0095">cardMarket</text><!--MD5=[d0a1ca80815c07b12aa7f0e1dda2ff77]
reverse link it.polimi.ingsw.server.Model.Table.Table to it.polimi.ingsw.server.Model.Table.ResourceMarket--><path codeLine="47" d="M361.32,310.3326 C353.98,329.6626 345.41,352.2026 336.9,374.5926 " fill="none" id="it.polimi.ingsw.server.Model.Table.Table-backto-it.polimi.ingsw.server.Model.Table.ResourceMarket" style="stroke:#A80036;stroke-width:1.0;"/><polygon fill="#FFFFFF" points="365.96,298.1326,360.0912,302.3227,361.7018,309.3517,367.5706,305.1616,365.96,298.1326" style="stroke:#A80036;stroke-width:1.0;"/><text fill="#000000" font-family="sans-serif" font-size="13" lengthAdjust="spacing" textLength="101" x="354" y="341.0095">resourceMarket</text><text fill="#888888" font-family="sans-serif" font-size="10" lengthAdjust="spacing" textLength="0" x="990" y="853.2249"/><text fill="#888888" font-family="sans-serif" font-size="10" lengthAdjust="spacing" textLength="0" x="990" y="864.8655"/><!--MD5=[95c92cbe25b8b6f7c9bfd301f7846ce9]
@startuml

title __TABLE's Class Diagram__\n

  namespace it.polimi.ingsw {
    namespace server {
      namespace Model {
        namespace Table {
          class it.polimi.ingsw.server.Model.Table.ResourceMarket {
              {static} - COL_SIZE : int
              {static} - ROW_SIZE : int
              - marbleToResource : EnumMap<MarbleEnum, ResourceEnum>
              - marketStructure : MarbleEnum[][]
              + ResourceMarket()
              + getColSize()
              + getMarbleFromCoordinates()
              + getMarketStructure()
              + getRowSize()
              + getSpareMarble()
              + obtainResourceFromMarbleList()
              + obtainResources()
              {static} - shuffleArray()
              - updateMarbleArrangement()
          }
        }
      }
    }
  }
  

  namespace it.polimi.ingsw {
    namespace server {
      namespace Model {
        namespace Table {
          class it.polimi.ingsw.server.Model.Table.Table {
              + Table()
              + getCardMarket()
              + getResourceMarket()
          }
        }
      }
    }
  }
  

  it.polimi.ingsw.server.Model.Table.ResourceMarket o- - it.polimi.ingsw.server.Model.Enums.MarbleEnum : spareMarble
  it.polimi.ingsw.server.Model.Table.Table o- - it.polimi.ingsw.server.Model.Table.CardMarket.CardMarket : cardMarket
  it.polimi.ingsw.server.Model.Table.Table o- - it.polimi.ingsw.server.Model.Table.ResourceMarket : resourceMarket


right footer


endfooter

@enduml

PlantUML version 1.2021.7(Sun May 23 14:40:07 CEST 2021)
(GPL source distribution)
Java Runtime: OpenJDK Runtime Environment
JVM: Dynamic Code Evolution 64-Bit Server VM
Default Encoding: UTF-8
Language: en
Country: US
--></g></svg>