<?xml version="1.0" encoding="UTF-8" standalone="no"?><svg xmlns="http://www.w3.org/2000/svg" xmlns:xlink="http://www.w3.org/1999/xlink" contentScriptType="application/ecmascript" contentStyleType="text/css" height="948px" preserveAspectRatio="none" style="width:641px;height:948px;background:#FFFFFF;" version="1.1" viewBox="0 0 641 948" width="641px" zoomAndPan="magnify"><defs><filter height="300%" id="f19f3o0d6sxyxf" width="300%" x="-1" y="-1"><feGaussianBlur result="blurOut" stdDeviation="2.0"/><feColorMatrix in="blurOut" result="blurOut2" type="matrix" values="0 0 0 0 0 0 0 0 0 0 0 0 0 0 0 0 0 0 .4 0"/><feOffset dx="4.0" dy="4.0" in="blurOut2" result="blurOut3"/><feBlend in="SourceGraphic" in2="blurOut3" mode="normal"/></filter></defs><g><text fill="#000000" font-family="sans-serif" font-size="18" lengthAdjust="spacing" text-decoration="underline" textLength="267" x="180.5" y="16.7225">WAREHOUSE's Class Diagram</text><text fill="#000000" font-family="sans-serif" font-size="18" lengthAdjust="spacing" textLength="0" x="317" y="37.6938"/><!--MD5=[432dd831305d7709bed0fe1447e3cfc7]
cluster it.polimi.ingsw--><polygon fill="#FFFFFF" filter="url(#f19f3o0d6sxyxf)" points="16,179.9426,140,179.9426,147,202.2395,624,202.2395,624,764.9426,16,764.9426,16,179.9426" style="stroke:#000000;stroke-width:1.5;"/><line style="stroke:#000000;stroke-width:1.5;" x1="16" x2="147" y1="202.2395" y2="202.2395"/><text fill="#000000" font-family="sans-serif" font-size="14" font-weight="bold" lengthAdjust="spacing" textLength="118" x="20" y="194.9377">it.polimi.ingsw</text><!--MD5=[6ff9cca172c9c23be7720fa07ee26538]
cluster it.polimi.ingsw.server--><polygon fill="#FFFFFF" filter="url(#f19f3o0d6sxyxf)" points="40,222.9426,97,222.9426,104,245.2395,600,245.2395,600,740.9426,40,740.9426,40,222.9426" style="stroke:#000000;stroke-width:1.5;"/><line style="stroke:#000000;stroke-width:1.5;" x1="40" x2="104" y1="245.2395" y2="245.2395"/><text fill="#000000" font-family="sans-serif" font-size="14" font-weight="bold" lengthAdjust="spacing" textLength="51" x="44" y="237.9377">server</text><!--MD5=[6644f379719c89a69245f782f93ed447]
cluster it.polimi.ingsw.server.Model--><polygon fill="#FFFFFF" filter="url(#f19f3o0d6sxyxf)" points="64,265.9426,119,265.9426,126,288.2395,576,288.2395,576,716.9426,64,716.9426,64,265.9426" style="stroke:#000000;stroke-width:1.5;"/><line style="stroke:#000000;stroke-width:1.5;" x1="64" x2="126" y1="288.2395" y2="288.2395"/><text fill="#000000" font-family="sans-serif" font-size="14" font-weight="bold" lengthAdjust="spacing" textLength="49" x="68" y="280.9377">Model</text><!--MD5=[337df128b1a50173dc98f0e88cea32e3]
cluster it.polimi.ingsw.server.Model.PersonalBoard--><polygon fill="#FFFFFF" filter="url(#f19f3o0d6sxyxf)" points="88,308.9426,210,308.9426,217,331.2395,552,331.2395,552,692.9426,88,692.9426,88,308.9426" style="stroke:#000000;stroke-width:1.5;"/><line style="stroke:#000000;stroke-width:1.5;" x1="88" x2="217" y1="331.2395" y2="331.2395"/><text fill="#000000" font-family="sans-serif" font-size="14" font-weight="bold" lengthAdjust="spacing" textLength="116" x="92" y="323.9377">PersonalBoard</text><!--MD5=[13d13ad1bade9644606168a4c085714f]
cluster it.polimi.ingsw.server.Model.PersonalBoard.Warehouse--><polygon fill="#FFFFFF" filter="url(#f19f3o0d6sxyxf)" points="112,351.9426,207,351.9426,214,374.2395,528,374.2395,528,668.9426,112,668.9426,112,351.9426" style="stroke:#000000;stroke-width:1.5;"/><line style="stroke:#000000;stroke-width:1.5;" x1="112" x2="214" y1="374.2395" y2="374.2395"/><text fill="#000000" font-family="sans-serif" font-size="14" font-weight="bold" lengthAdjust="spacing" textLength="89" x="116" y="366.9377">Warehouse</text><!--MD5=[0d852700fdad35b7061d461d6907a324]
cluster java.io--><polygon fill="#FFFFFF" filter="url(#f19f3o0d6sxyxf)" points="264,47.9426,322,47.9426,329,70.2395,396,70.2395,396,146.9426,264,146.9426,264,47.9426" style="stroke:#000000;stroke-width:1.5;"/><line style="stroke:#000000;stroke-width:1.5;" x1="264" x2="329" y1="70.2395" y2="70.2395"/><text fill="#000000" font-family="sans-serif" font-size="14" font-weight="bold" lengthAdjust="spacing" textLength="52" x="268" y="62.9377">java.io</text><!--MD5=[48f7be51bd0005e6c97bce768131ca54]
cluster it.polimi.ingsw.server.Model.Enums--><polygon fill="#FFFFFF" filter="url(#f19f3o0d6sxyxf)" points="72,813.9426,364,813.9426,371,836.2395,374,836.2395,374,912.9426,72,912.9426,72,813.9426" style="stroke:#000000;stroke-width:1.5;"/><line style="stroke:#000000;stroke-width:1.5;" x1="72" x2="371" y1="836.2395" y2="836.2395"/><text fill="#000000" font-family="sans-serif" font-size="14" font-weight="bold" lengthAdjust="spacing" textLength="286" x="76" y="828.9377">it.polimi.ingsw.server.Model.Enums</text><!--MD5=[848c093144ec972cdb1b981f6c767f82]
class it.polimi.ingsw.server.Model.PersonalBoard.Warehouse.Depot--><rect codeLine="9" fill="#FEFECE" filter="url(#f19f3o0d6sxyxf)" height="227.2656" id="it.polimi.ingsw.server.Model.PersonalBoard.Warehouse.Depot" style="stroke:#A80036;stroke-width:1.5;" width="154" x="128" y="406.4426"/><ellipse cx="182.75" cy="422.4426" fill="#ADD1B2" rx="11" ry="11" style="stroke:#A80036;stroke-width:1.0;"/><path d="M185.2188,428.3176 Q184.6406,428.6301 184,428.7864 Q183.3594,428.9426 182.6563,428.9426 Q180.1406,428.9426 178.8281,427.2708 Q177.5156,425.5989 177.5156,422.4426 Q177.5156,419.2864 178.8281,417.6145 Q180.1406,415.9426 182.6563,415.9426 Q183.3594,415.9426 184,416.0989 Q184.6563,416.2551 185.2188,416.5676 L185.2188,419.3645 Q184.5781,418.7864 183.9844,418.5208 Q183.4063,418.2551 182.7656,418.2551 Q181.4219,418.2551 180.7344,419.3176 Q180.0625,420.3645 180.0625,422.4426 Q180.0625,424.5208 180.7344,425.5833 Q181.4219,426.6301 182.7656,426.6301 Q183.4063,426.6301 183.9844,426.3645 Q184.5781,426.0989 185.2188,425.5208 L185.2188,428.3176 Z " fill="#000000"/><text fill="#000000" font-family="sans-serif" font-size="12" lengthAdjust="spacing" textLength="36" x="203.25" y="426.5969">Depot</text><line style="stroke:#A80036;stroke-width:1.5;" x1="129" x2="281" y1="438.4426" y2="438.4426"/><rect fill="none" height="6" style="stroke:#C82930;stroke-width:1.0;" width="6" x="136" y="446.4426"/><text fill="#000000" font-family="sans-serif" font-size="11" lengthAdjust="spacing" textLength="128" x="148" y="452.6531">leaderAbility : boolean</text><rect fill="none" height="6" style="stroke:#C82930;stroke-width:1.0;" width="6" x="136" y="459.2473"/><text fill="#000000" font-family="sans-serif" font-size="11" lengthAdjust="spacing" textLength="48" x="148" y="465.4578">size : int</text><rect fill="none" height="6" style="stroke:#C82930;stroke-width:1.0;" width="6" x="136" y="472.052"/><text fill="#000000" font-family="sans-serif" font-size="11" lengthAdjust="spacing" textLength="53" x="148" y="478.2625">used : int</text><line style="stroke:#A80036;stroke-width:1.5;" x1="129" x2="281" y1="484.8567" y2="484.8567"/><ellipse cx="139" cy="495.8567" fill="#84BE84" rx="3" ry="3" style="stroke:#038048;stroke-width:1.0;"/><text fill="#000000" font-family="sans-serif" font-size="11" lengthAdjust="spacing" textLength="41" x="148" y="499.0671">Depot()</text><ellipse cx="139" cy="508.6614" fill="#84BE84" rx="3" ry="3" style="stroke:#038048;stroke-width:1.0;"/><text fill="#000000" font-family="sans-serif" font-size="11" lengthAdjust="spacing" textLength="41" x="148" y="511.8718">Depot()</text><ellipse cx="139" cy="521.4661" fill="#84BE84" rx="3" ry="3" style="stroke:#038048;stroke-width:1.0;"/><text fill="#000000" font-family="sans-serif" font-size="11" lengthAdjust="spacing" textLength="45" x="148" y="524.6765">equals()</text><ellipse cx="139" cy="534.2708" fill="#84BE84" rx="3" ry="3" style="stroke:#038048;stroke-width:1.0;"/><text fill="#000000" font-family="sans-serif" font-size="11" lengthAdjust="spacing" textLength="107" x="148" y="537.4812">getAmountStored()</text><ellipse cx="139" cy="547.0754" fill="#84BE84" rx="3" ry="3" style="stroke:#038048;stroke-width:1.0;"/><text fill="#000000" font-family="sans-serif" font-size="11" lengthAdjust="spacing" textLength="85" x="148" y="550.2859">getFreeSpace()</text><ellipse cx="139" cy="559.8801" fill="#84BE84" rx="3" ry="3" style="stroke:#038048;stroke-width:1.0;"/><text fill="#000000" font-family="sans-serif" font-size="11" lengthAdjust="spacing" textLength="79" x="148" y="563.0906">getResource()</text><ellipse cx="139" cy="572.6848" fill="#84BE84" rx="3" ry="3" style="stroke:#038048;stroke-width:1.0;"/><text fill="#000000" font-family="sans-serif" font-size="11" lengthAdjust="spacing" textLength="49" x="148" y="575.8953">getSize()</text><ellipse cx="139" cy="585.4895" fill="#84BE84" rx="3" ry="3" style="stroke:#038048;stroke-width:1.0;"/><text fill="#000000" font-family="sans-serif" font-size="11" lengthAdjust="spacing" textLength="91" x="148" y="588.7">isLeaderAbility()</text><ellipse cx="139" cy="598.2942" fill="#84BE84" rx="3" ry="3" style="stroke:#038048;stroke-width:1.0;"/><text fill="#000000" font-family="sans-serif" font-size="11" lengthAdjust="spacing" textLength="26" x="148" y="601.5046">put()</text><ellipse cx="139" cy="611.0989" fill="#84BE84" rx="3" ry="3" style="stroke:#038048;stroke-width:1.0;"/><text fill="#000000" font-family="sans-serif" font-size="11" lengthAdjust="spacing" textLength="52" x="148" y="614.3093">remove()</text><ellipse cx="139" cy="623.9036" fill="#84BE84" rx="3" ry="3" style="stroke:#038048;stroke-width:1.0;"/><text fill="#000000" font-family="sans-serif" font-size="11" lengthAdjust="spacing" textLength="78" x="148" y="627.114">setResource()</text><!--MD5=[075892b0b73b7224489b7096cb0e909a]
class it.polimi.ingsw.server.Model.PersonalBoard.Warehouse.Warehouse--><rect codeLine="37" fill="#FEFECE" filter="url(#f19f3o0d6sxyxf)" height="265.6797" id="it.polimi.ingsw.server.Model.PersonalBoard.Warehouse.Warehouse" style="stroke:#A80036;stroke-width:1.5;" width="195" x="317.5" y="386.9426"/><ellipse cx="377.25" cy="402.9426" fill="#ADD1B2" rx="11" ry="11" style="stroke:#A80036;stroke-width:1.0;"/><path d="M379.7188,408.8176 Q379.1406,409.1301 378.5,409.2864 Q377.8594,409.4426 377.1563,409.4426 Q374.6406,409.4426 373.3281,407.7708 Q372.0156,406.0989 372.0156,402.9426 Q372.0156,399.7864 373.3281,398.1145 Q374.6406,396.4426 377.1563,396.4426 Q377.8594,396.4426 378.5,396.5989 Q379.1563,396.7551 379.7188,397.0676 L379.7188,399.8645 Q379.0781,399.2864 378.4844,399.0208 Q377.9063,398.7551 377.2656,398.7551 Q375.9219,398.7551 375.2344,399.8176 Q374.5625,400.8645 374.5625,402.9426 Q374.5625,405.0208 375.2344,406.0833 Q375.9219,407.1301 377.2656,407.1301 Q377.9063,407.1301 378.4844,406.8645 Q379.0781,406.5989 379.7188,406.0208 L379.7188,408.8176 Z " fill="#000000"/><text fill="#000000" font-family="sans-serif" font-size="12" lengthAdjust="spacing" textLength="67" x="397.75" y="407.0969">Warehouse</text><line style="stroke:#A80036;stroke-width:1.5;" x1="318.5" x2="511.5" y1="418.9426" y2="418.9426"/><rect fill="none" height="6" style="stroke:#C82930;stroke-width:1.0;" width="6" x="325.5" y="426.9426"/><text fill="#000000" font-family="sans-serif" font-size="11" lengthAdjust="spacing" textLength="152" x="337.5" y="433.1531">depots : ArrayList&lt;Depot&gt;</text><line style="stroke:#A80036;stroke-width:1.5;" x1="318.5" x2="511.5" y1="439.7473" y2="439.7473"/><ellipse cx="328.5" cy="450.7473" fill="#84BE84" rx="3" ry="3" style="stroke:#038048;stroke-width:1.0;"/><text fill="#000000" font-family="sans-serif" font-size="11" lengthAdjust="spacing" textLength="72" x="337.5" y="453.9578">Warehouse()</text><ellipse cx="328.5" cy="463.552" fill="#84BE84" rx="3" ry="3" style="stroke:#038048;stroke-width:1.0;"/><text fill="#000000" font-family="sans-serif" font-size="11" lengthAdjust="spacing" textLength="126" x="337.5" y="466.7625">addDepotFromAbility()</text><ellipse cx="328.5" cy="476.3567" fill="#84BE84" rx="3" ry="3" style="stroke:#038048;stroke-width:1.0;"/><text fill="#000000" font-family="sans-serif" font-size="11" lengthAdjust="spacing" textLength="137" x="337.5" y="479.5671">getDepotFromCapacity()</text><ellipse cx="328.5" cy="489.1614" fill="#84BE84" rx="3" ry="3" style="stroke:#038048;stroke-width:1.0;"/><text fill="#000000" font-family="sans-serif" font-size="11" lengthAdjust="spacing" textLength="169" x="337.5" y="492.3718">getDepotFromResourceType()</text><ellipse cx="328.5" cy="501.9661" fill="#84BE84" rx="3" ry="3" style="stroke:#038048;stroke-width:1.0;"/><text fill="#000000" font-family="sans-serif" font-size="11" lengthAdjust="spacing" textLength="65" x="337.5" y="505.1765">getDepots()</text><ellipse cx="328.5" cy="514.7708" fill="#84BE84" rx="3" ry="3" style="stroke:#038048;stroke-width:1.0;"/><text fill="#000000" font-family="sans-serif" font-size="11" lengthAdjust="spacing" textLength="139" x="337.5" y="517.9812">getLeaderAbilityDepots()</text><ellipse cx="328.5" cy="527.5754" fill="#84BE84" rx="3" ry="3" style="stroke:#038048;stroke-width:1.0;"/><text fill="#000000" font-family="sans-serif" font-size="11" lengthAdjust="spacing" textLength="123" x="337.5" y="530.7859">getResourceAmount()</text><ellipse cx="328.5" cy="540.3801" fill="#84BE84" rx="3" ry="3" style="stroke:#038048;stroke-width:1.0;"/><text fill="#000000" font-family="sans-serif" font-size="11" lengthAdjust="spacing" textLength="157" x="337.5" y="543.5906">getTotalResourcesAmount()</text><ellipse cx="328.5" cy="553.1848" fill="#84BE84" rx="3" ry="3" style="stroke:#038048;stroke-width:1.0;"/><text fill="#000000" font-family="sans-serif" font-size="11" lengthAdjust="spacing" textLength="40" x="337.5" y="556.3953">insert()</text><ellipse cx="328.5" cy="565.9895" fill="#84BE84" rx="3" ry="3" style="stroke:#038048;stroke-width:1.0;"/><text fill="#000000" font-family="sans-serif" font-size="11" lengthAdjust="spacing" textLength="53" x="337.5" y="569.2">isEmpty()</text><ellipse cx="328.5" cy="578.7942" fill="#84BE84" rx="3" ry="3" style="stroke:#038048;stroke-width:1.0;"/><text fill="#000000" font-family="sans-serif" font-size="11" lengthAdjust="spacing" textLength="40" x="337.5" y="582.0046">move()</text><ellipse cx="328.5" cy="591.5989" fill="#84BE84" rx="3" ry="3" style="stroke:#038048;stroke-width:1.0;"/><text fill="#000000" font-family="sans-serif" font-size="11" lengthAdjust="spacing" textLength="52" x="337.5" y="594.8093">remove()</text><ellipse cx="328.5" cy="604.4036" fill="#84BE84" rx="3" ry="3" style="stroke:#038048;stroke-width:1.0;"/><text fill="#000000" font-family="sans-serif" font-size="11" lengthAdjust="spacing" textLength="52" x="337.5" y="607.614">remove()</text><ellipse cx="328.5" cy="617.2083" fill="#84BE84" rx="3" ry="3" style="stroke:#038048;stroke-width:1.0;"/><text fill="#000000" font-family="sans-serif" font-size="11" lengthAdjust="spacing" textLength="56" x="337.5" y="620.4187">tryInsert()</text><rect fill="#F24D5C" height="6" style="stroke:#C82930;stroke-width:1.0;" width="6" x="325.5" y="627.0129"/><text fill="#000000" font-family="sans-serif" font-size="11" lengthAdjust="spacing" textLength="58" x="337.5" y="633.2234">canSwap()</text><rect fill="#F24D5C" height="6" style="stroke:#C82930;stroke-width:1.0;" width="6" x="325.5" y="639.8176"/><text fill="#000000" font-family="sans-serif" font-size="11" lengthAdjust="spacing" textLength="37" x="337.5" y="646.0281">swap()</text><!--MD5=[5a5af9b0547913863cbe0ddf55a9ab5e]
class java.io.Serializable--><rect fill="#FEFECE" filter="url(#f19f3o0d6sxyxf)" height="48" id="java.io.Serializable" style="stroke:#A80036;stroke-width:1.5;" width="99" x="280.5" y="82.9426"/><ellipse cx="295.5" cy="98.9426" fill="#ADD1B2" rx="11" ry="11" style="stroke:#A80036;stroke-width:1.0;"/><path d="M297.9688,104.8176 Q297.3906,105.1301 296.75,105.2864 Q296.1094,105.4426 295.4063,105.4426 Q292.8906,105.4426 291.5781,103.7708 Q290.2656,102.0989 290.2656,98.9426 Q290.2656,95.7864 291.5781,94.1145 Q292.8906,92.4426 295.4063,92.4426 Q296.1094,92.4426 296.75,92.5989 Q297.4063,92.7551 297.9688,93.0676 L297.9688,95.8645 Q297.3281,95.2864 296.7344,95.0208 Q296.1563,94.7551 295.5156,94.7551 Q294.1719,94.7551 293.4844,95.8176 Q292.8125,96.8645 292.8125,98.9426 Q292.8125,101.0208 293.4844,102.0833 Q294.1719,103.1301 295.5156,103.1301 Q296.1563,103.1301 296.7344,102.8645 Q297.3281,102.5989 297.9688,102.0208 L297.9688,104.8176 Z " fill="#000000"/><text fill="#000000" font-family="sans-serif" font-size="12" lengthAdjust="spacing" textLength="67" x="309.5" y="103.0969">Serializable</text><line style="stroke:#A80036;stroke-width:1.5;" x1="281.5" x2="378.5" y1="114.9426" y2="114.9426"/><line style="stroke:#A80036;stroke-width:1.5;" x1="281.5" x2="378.5" y1="122.9426" y2="122.9426"/><!--MD5=[61e2b70fc86cd1fbbb8a31d82e121482]
class it.polimi.ingsw.server.Model.Enums.ResourceEnum--><rect fill="#FEFECE" filter="url(#f19f3o0d6sxyxf)" height="48" id="it.polimi.ingsw.server.Model.Enums.ResourceEnum" style="stroke:#A80036;stroke-width:1.5;" width="123" x="143.5" y="848.9426"/><ellipse cx="158.5" cy="864.9426" fill="#ADD1B2" rx="11" ry="11" style="stroke:#A80036;stroke-width:1.0;"/><path d="M160.9688,870.8176 Q160.3906,871.1301 159.75,871.2864 Q159.1094,871.4426 158.4063,871.4426 Q155.8906,871.4426 154.5781,869.7708 Q153.2656,868.0989 153.2656,864.9426 Q153.2656,861.7864 154.5781,860.1145 Q155.8906,858.4426 158.4063,858.4426 Q159.1094,858.4426 159.75,858.5989 Q160.4063,858.7551 160.9688,859.0676 L160.9688,861.8645 Q160.3281,861.2864 159.7344,861.0208 Q159.1563,860.7551 158.5156,860.7551 Q157.1719,860.7551 156.4844,861.8176 Q155.8125,862.8645 155.8125,864.9426 Q155.8125,867.0208 156.4844,868.0833 Q157.1719,869.1301 158.5156,869.1301 Q159.1563,869.1301 159.7344,868.8645 Q160.3281,868.5989 160.9688,868.0208 L160.9688,870.8176 Z " fill="#000000"/><text fill="#000000" font-family="sans-serif" font-size="12" lengthAdjust="spacing" textLength="91" x="172.5" y="869.0969">ResourceEnum</text><line style="stroke:#A80036;stroke-width:1.5;" x1="144.5" x2="265.5" y1="880.9426" y2="880.9426"/><line style="stroke:#A80036;stroke-width:1.5;" x1="144.5" x2="265.5" y1="888.9426" y2="888.9426"/><!--MD5=[3a52bbf70efcbbd24ae6224d82d8d516]
reverse link java.io.Serializable to it.polimi.ingsw.server.Model.PersonalBoard.Warehouse.Depot--><path codeLine="63" d="M309.23,149.5926 C305.92,156.9526 302.7,164.6026 300,171.9426 C271.78,248.5826 247.61,337.4526 230.71,406.0626 " fill="none" id="java.io.Serializable-backto-it.polimi.ingsw.server.Model.PersonalBoard.Warehouse.Depot" style="stroke:#A80036;stroke-width:1.0;stroke-dasharray:7.0,7.0;"/><polygon fill="none" points="303.03,146.3326,317.9,131.2426,315.68,152.3126,303.03,146.3326" style="stroke:#A80036;stroke-width:1.0;"/><!--MD5=[d7ce90a5a8a8b891a51b3d12bf2b0bbc]
reverse link it.polimi.ingsw.server.Model.PersonalBoard.Warehouse.Depot to it.polimi.ingsw.server.Model.Enums.ResourceEnum--><path codeLine="64" d="M205,646.6626 C205,720.8826 205,808.0526 205,848.7826 " fill="none" id="it.polimi.ingsw.server.Model.PersonalBoard.Warehouse.Depot-backto-it.polimi.ingsw.server.Model.Enums.ResourceEnum" style="stroke:#A80036;stroke-width:1.0;"/><polygon fill="#FFFFFF" points="205,633.4526,201,639.4526,205,645.4526,209,639.4526,205,633.4526" style="stroke:#A80036;stroke-width:1.0;"/><text fill="#000000" font-family="sans-serif" font-size="13" lengthAdjust="spacing" textLength="56" x="206" y="794.0095">resource</text><!--MD5=[b26483ba4f9cf51e9c2a3bd5b7431798]
reverse link java.io.Serializable to it.polimi.ingsw.server.Model.PersonalBoard.Warehouse.Warehouse--><path codeLine="65" d="M338.88,150.8526 C350.35,206.3326 370.85,305.4826 387.69,386.9026 " fill="none" id="java.io.Serializable-backto-it.polimi.ingsw.server.Model.PersonalBoard.Warehouse.Warehouse" style="stroke:#A80036;stroke-width:1.0;stroke-dasharray:7.0,7.0;"/><polygon fill="none" points="332.01,152.2226,334.81,131.2126,345.72,149.3826,332.01,152.2226" style="stroke:#A80036;stroke-width:1.0;"/><text fill="#888888" font-family="sans-serif" font-size="10" lengthAdjust="spacing" textLength="0" x="628" y="928.2249"/><text fill="#888888" font-family="sans-serif" font-size="10" lengthAdjust="spacing" textLength="0" x="628" y="939.8655"/><!--MD5=[c5590a927f0500d233d1ad39afb210c5]
@startuml

title __WAREHOUSE's Class Diagram__\n

  namespace it.polimi.ingsw {
    namespace server {
      namespace Model {
        namespace PersonalBoard {
          namespace Warehouse {
            class it.polimi.ingsw.server.Model.PersonalBoard.Warehouse.Depot {
                - leaderAbility : boolean
                - size : int
                - used : int
                + Depot()
                + Depot()
                + equals()
                + getAmountStored()
                + getFreeSpace()
                + getResource()
                + getSize()
                + isLeaderAbility()
                + put()
                + remove()
                + setResource()
            }
          }
        }
      }
    }
  }
  

  namespace it.polimi.ingsw {
    namespace server {
      namespace Model {
        namespace PersonalBoard {
          namespace Warehouse {
            class it.polimi.ingsw.server.Model.PersonalBoard.Warehouse.Warehouse {
                - depots : ArrayList<Depot>
                + Warehouse()
                + addDepotFromAbility()
                + getDepotFromCapacity()
                + getDepotFromResourceType()
                + getDepots()
                + getLeaderAbilityDepots()
                + getResourceAmount()
                + getTotalResourcesAmount()
                + insert()
                + isEmpty()
                + move()
                + remove()
                + remove()
                + tryInsert()
                - canSwap()
                - swap()
            }
          }
        }
      }
    }
  }
  

  it.polimi.ingsw.server.Model.PersonalBoard.Warehouse.Depot .up.|> java.io.Serializable
  it.polimi.ingsw.server.Model.PersonalBoard.Warehouse.Depot o- - it.polimi.ingsw.server.Model.Enums.ResourceEnum : resource
  it.polimi.ingsw.server.Model.PersonalBoard.Warehouse.Warehouse .up.|> java.io.Serializable


right footer


endfooter

@enduml

PlantUML version 1.2021.7(Sun May 23 14:40:07 CEST 2021)
(GPL source distribution)
Java Runtime: OpenJDK Runtime Environment
JVM: Dynamic Code Evolution 64-Bit Server VM
Default Encoding: UTF-8
Language: en
Country: US
--></g></svg>